<svg data-name="Partner Program" width="24" height="24" xmlns="http://www.w3.org/2000/svg">
<path d="M17.656 8.47l-3.008 2.002a1.004 1.004 0 01-1.093 0c-.22-.22-.652-.44-.873-.66a2.532 2.532 0 00-2.186.44l-1.093.651-5.465 3.684a2.48 2.48 0 01-3.5-.871 2.51 2.51 0 01.662-3.494l6.508-4.364a8.034 8.034 0 015.897-1.101 7.613 7.613 0 014.151 2.622.712.712 0 010 1.092zM23.994 11.534a2.698 2.698 0 01-1.093 2.182l-6.779 4.364a7.119 7.119 0 01-4.162 1.311 4.761 4.761 0 01-1.745-.22 7.544 7.544 0 01-4.151-2.612 1 1 0 01.22-1.092l3.06-2.002a.662.662 0 01.872 0c.392.17.76.393 1.093.661a3.565 3.565 0 002.186-.44l1.524-.871 4.372-3.063.662-.43a2.672 2.672 0 013.49.65 2.35 2.35 0 01.45 1.562z"/>
</svg>