<svg data-name="Stickers" width="24" height="24" xmlns="http://www.w3.org/2000/svg">
<path fill-rule="evenodd" clip-rule="evenodd" d="M23.763 8.26l-7.998-8a.79.79 0 00-1.37.54v5.68a3.11 3.11 0 003.12 3.12h5.688a.78.78 0 00.56-1.34z"/>
<path fill-rule="evenodd" clip-rule="evenodd" d="M17.535 12a5.538 5.538 0 01-5.539-5.54V0H2.4A2.409 2.409 0 000 2.4v19.19A2.41 2.41 0 002.4 24h19.183a2.409 2.409 0 002.41-2.41V12h-6.458zM6.248 16.91a1.34 1.34 0 01-.82.47.86.86 0 01-.28 0 1.46 1.46 0 01-1.41-1.11.91.91 0 01-.06-.27 1.58 1.58 0 01.42-1.06A1.479 1.479 0 016.639 16a1.38 1.38 0 01-.39.91zm5.748 1.25a2.659 2.659 0 01-2.629-2.66h.21a2.67 2.67 0 004.909 0h.21a2.662 2.662 0 01-2.7 2.66zm6.878-.74a1.49 1.49 0 111.51-1.42 1.47 1.47 0 01-1.47 1.42h-.04z"/>
</svg>