<svg data-name="Widget" width="24" height="24" xmlns="http://www.w3.org/2000/svg">
<path d="M2.66667 0C1.19333 0 0 1.19333 0 2.66667V8V21.3333C0 22.7908 1.20925 24 2.66667 24H21.3333C22.7908 24 24 22.7908 24 21.3333V6.66667V2.66667C24 1.19333 22.8067 1.77428e-06 21.3333 1.77428e-06L2.66667 0ZM4 2.66667C4.736 2.66667 5.33334 3.264 5.33334 4C5.33334 4.736 4.736 5.33333 4 5.33333C3.264 5.33333 2.66667 4.736 2.66667 4C2.66667 3.264 3.264 2.66667 4 2.66667V2.66667ZM8 2.66667C8.736 2.66667 9.33334 3.264 9.33334 4C9.33334 4.736 8.736 5.33333 8 5.33333C7.264 5.33333 6.66667 4.736 6.66667 4C6.66667 3.264 7.264 2.66667 8 2.66667V2.66667ZM12 2.66667H21.3333V5.33333H12V2.66667ZM2.66667 8H21.3333V21.3333H2.66667V8ZM5.33334 10.6667V13.3333H12V10.6667H5.33334ZM14.6667 10.6667V18.6667H18.6667V10.6667H14.6667ZM5.33334 16V18.6667H12V16H5.33334Z"/>
</svg>