<svg data-name="Widget" width="24" height="24" xmlns="http://www.w3.org/2000/svg">
<path d="M12.001 1a2.185 2.185 0 00-.401.04 2.178 2.178 0 00-.526.173 2.201 2.201 0 00-.826.682 2.193 2.193 0 00-.118.178 2.19 2.19 0 00.035 2.309 2.246 2.246 0 00.263.337 2.214 2.214 0 00.482.385V6.5h-.71c-4.442 0-8.017 3.34-8.017 7.49 0 .048.002.094.003.142 0 .023-.003.044-.003.067v.001H1.091C.487 14.2 0 14.69 0 15.299v3.3c0 .61.487 1.1 1.09 1.1h1.092v1.476c0 1.011.973 1.825 2.182 1.825h15.272c1.21 0 2.182-.814 2.182-1.825V19.7h1.091c.604 0 1.091-.49 1.091-1.099v-3.3c0-.61-.487-1.1-1.091-1.1h-1.091v-.002c0-.022-.003-.044-.004-.067.001-.047.004-.094.004-.142 0-4.149-3.576-7.489-8.017-7.489h-.71V5.104a2.211 2.211 0 00.209-.142 2.2 2.2 0 00.732-.969 2.359 2.359 0 00.07-.212 2.138 2.138 0 00.046-.208 2.143 2.143 0 00.025-.216c.005-.052.008-.104.009-.156a2.234 2.234 0 00-.024-.303 2.145 2.145 0 00-.067-.32 2.207 2.207 0 00-.071-.203 2.198 2.198 0 00-.149-.302 2.193 2.193 0 00-.256-.348 2.17 2.17 0 00-.235-.227 2.218 2.218 0 00-.085-.064 2.214 2.214 0 00-.176-.12 2.201 2.201 0 00-.3-.152 2.21 2.21 0 00-.108-.038 2.237 2.237 0 00-.093-.032 2.185 2.185 0 00-.217-.052 2.168 2.168 0 00-.217-.03 2.184 2.184 0 00-.183-.01zM7.093 13.099a2.72 2.72 0 011.927.807 2.764 2.764 0 010 3.886 2.719 2.719 0 01-1.927.807c-.723 0-1.417-.29-1.928-.806a2.764 2.764 0 010-3.887 2.719 2.719 0 011.928-.806v-.001zm9.818 0c.723 0 1.416.29 1.928.806a2.764 2.764 0 010 3.89 2.719 2.719 0 01-1.928.807c-.724 0-1.418-.29-1.93-.806a2.764 2.764 0 010-3.89 2.719 2.719 0 011.93-.806v-.001z"/>
</svg>