<svg width="24" height="24" viewBox="0 0 24 24" fill="none" xmlns="http://www.w3.org/2000/svg">
<g clip-path="url(#clip0_2_122)">
<path d="M12.7562 0.0238535C10.3231 -0.129762 7.90106 0.4613 5.81229 1.71836C3.72353 2.97543 2.06718 4.83886 1.06372 7.06062C0.0602587 9.28237 -0.242709 11.7571 0.195145 14.1553C0.632998 16.5535 1.7909 18.7615 3.51473 20.4853C5.23855 22.2091 7.44652 23.367 9.84474 23.8049C12.2429 24.2427 14.7176 23.9398 16.9394 22.9363C19.1612 21.9328 21.0246 20.2765 22.2817 18.1877C23.5387 16.099 24.1298 13.6769 23.9762 11.2439C23.7921 8.32846 22.5509 5.58032 20.4853 3.51472C18.4197 1.44913 15.6716 0.207926 12.7562 0.0238535ZM11.5162 4.43385C11.9401 4.33061 12.3862 4.36885 12.7864 4.54274C13.1866 4.71663 13.5189 5.01663 13.7328 5.39699C13.9466 5.77735 14.0302 6.2172 13.9707 6.64948C13.9113 7.08176 13.7121 7.48274 13.4036 7.79128C13.095 8.09982 12.6941 8.29899 12.2618 8.35843C11.8295 8.41786 11.3897 8.33429 11.0093 8.12047C10.6289 7.90664 10.3289 7.57429 10.155 7.17409C9.98116 6.77389 9.94292 6.32781 10.0462 5.90385C10.1265 5.54461 10.3073 5.21563 10.5676 4.95533C10.8279 4.69503 11.1569 4.51417 11.5162 4.43385ZM17.8862 9.22385C17.8849 9.35188 17.8464 9.47678 17.7753 9.58331C17.7043 9.68985 17.6038 9.77342 17.4862 9.82385L13.9762 11.3239V13.8939L15.6862 17.8939C15.8607 18.3052 15.9525 18.747 15.9562 19.1939V19.2539C15.944 19.5019 15.8401 19.7366 15.6645 19.9122C15.4889 20.0878 15.2542 20.1917 15.0062 20.2039C14.8024 20.2017 14.6041 20.1374 14.4379 20.0194C14.2716 19.9015 14.1454 19.7355 14.0762 19.5439L12.6262 15.4839C12.6018 15.4216 12.5592 15.3681 12.5038 15.3306C12.4485 15.2931 12.383 15.2733 12.3162 15.2739H11.6962C11.6293 15.2733 11.5639 15.2931 11.5085 15.3306C11.4531 15.3681 11.4105 15.4216 11.3862 15.4839L9.89616 19.5039C9.82748 19.694 9.7028 19.8588 9.53857 19.9766C9.37433 20.0944 9.17825 20.1597 8.97616 20.1639C8.71938 20.1642 8.47232 20.0657 8.28616 19.8889C8.1 19.712 7.989 19.4703 7.97616 19.2139V19.1539C7.97985 18.707 8.0716 18.2652 8.24616 17.8539L9.95616 13.8539V11.3239L6.44616 9.82385C6.32847 9.77342 6.228 9.68985 6.15697 9.58331C6.08595 9.47678 6.04745 9.35188 6.04616 9.22385C6.0453 9.10591 6.06959 8.98913 6.11741 8.88131C6.16523 8.77349 6.23548 8.6771 6.32348 8.59856C6.41148 8.52002 6.51521 8.46114 6.62775 8.42584C6.7403 8.39054 6.85907 8.37964 6.97616 8.39385C7.29037 8.40527 7.60082 8.46601 7.89616 8.57385L9.09616 9.02385C9.65793 9.22363 10.2499 9.32512 10.8462 9.32385H13.0862C13.6824 9.32512 14.2744 9.22363 14.8362 9.02385L16.0862 8.58385C16.3714 8.47563 16.6716 8.41156 16.9762 8.39385C17.0893 8.38703 17.2026 8.40344 17.3092 8.44208C17.4157 8.48073 17.5132 8.54078 17.5957 8.61854C17.6781 8.69631 17.7438 8.79013 17.7886 8.89424C17.8334 8.99834 17.8564 9.11052 17.8562 9.22385H17.8862Z" fill="#B9BBBE"/>
</g>
<defs>
<clipPath id="clip0_2_122">
<rect width="24" height="24" fill="white"/>
</clipPath>
</defs>
</svg>
