<svg data-name="Activity Status" width="24" height="24" xmlns="http://www.w3.org/2000/svg">
<path d="M4.45 3.5h15.1a3.639 3.639 0 013.64 3.382l.8 11.206A2.252 2.252 0 0121.9 20.5h-.17a3.108 3.108 0 01-3-2.362l-.63-2.501H5.92l-.63 2.501a3.112 3.112 0 01-3 2.362A2.26 2.26 0 010 18.248a.811.811 0 010-.16L.8 6.882A3.643 3.643 0 014.45 3.5zM15 9.573a1.819 1.819 0 001.785-2.176A1.82 1.82 0 1015 9.573zm4.87 3.643a1.82 1.82 0 001.273-3.113 1.82 1.82 0 00-3.103 1.292 1.811 1.811 0 001.87 1.82h-.04zM4.7 8.363H2.27v2.431H4.7v2.422h2.43v-2.422h2.44V8.363H7.13V5.93H4.7v2.432z"/>
</svg>