<svg data-name="Billing" width="24" height="24" xmlns="http://www.w3.org/2000/svg">
<path d="M1.71 2.5c-.454.003-.89.186-1.21.511-.32.325-.5.764-.5 1.222v.856h19.71v-.856a1.733 1.733 0 00-.497-1.225A1.71 1.71 0 0018 2.5H1.71zm19.72 3.455v2.59H24v-.867a1.74 1.74 0 00-.504-1.215 1.714 1.714 0 00-1.206-.508h-.86zM0 7.678v7.778c0 .456.18.895.5 1.218.322.323.756.504 1.21.504H18a1.69 1.69 0 001.212-.501 1.713 1.713 0 00.498-1.221V7.678H0zm21.43 3.456v6.044c0 .46-.181.9-.504 1.225-.322.325-.76.508-1.216.508H4.29v.856a1.734 1.734 0 00.497 1.225A1.71 1.71 0 006 21.5h16.29c.454-.003.89-.186 1.21-.511.32-.325.5-.764.5-1.222v-8.633h-2.57z"/>
</svg>