<svg data-name="Command" width="24" height="24" xmlns="http://www.w3.org/2000/svg">
<path d="M3.692 3A3.692 3.692 0 000 6.692V17.77a3.692 3.692 0 003.692 3.693h16.616A3.692 3.692 0 0024 17.768V6.692A3.692 3.692 0 0020.308 3H3.692zM19.61 8.686h1.206v6.309h-1.168v-.716h-.074c-.245.492-.762.786-1.396.786-1.15 0-1.858-.902-1.858-2.358 0-1.454.711-2.351 1.858-2.351.617 0 1.128.298 1.363.802h.069V8.686zm-14.553.182c1.416 0 2.5.94 2.59 2.24H6.432c-.12-.686-.662-1.138-1.374-1.138-.94 0-1.523.78-1.523 2.037 0 1.258.582 2.041 1.527 2.041.716 0 1.255-.424 1.375-1.082h1.215c-.103 1.292-1.153 2.182-2.594 2.182-1.73 0-2.803-1.196-2.803-3.14 0-1.943 1.069-3.14 2.803-3.14zm6.132 1.46c.641 0 1.079.316 1.262.846h.075c.212-.508.736-.845 1.374-.845.911 0 1.479.592 1.479 1.532v3.134h-1.207v-2.816c0-.543-.254-.812-.762-.812-.489 0-.802.35-.802.833v2.795h-1.16V12.13c0-.484-.282-.761-.753-.761-.472 0-.806.369-.806.878v2.748H8.683V10.43H9.85v.744h.076c.186-.52.662-.845 1.262-.845zm7.4 1.037c-.641 0-1.03.509-1.03 1.345 0 .845.384 1.349 1.03 1.349.647 0 1.035-.508 1.035-1.345.001-.832-.393-1.349-1.034-1.349z"/>
</svg>