<svg data-name="Developer Options" width="24" height="24" xmlns="http://www.w3.org/2000/svg">
<path d="M1.846 1L0 2.833 1.846 6.5l2.77.916 3.232 3.209L9.694 8.79 6.463 5.583l-.924-2.75L1.846 1zm16.68.009a5.697 5.697 0 00-4.25 1.649c-1.51 1.5-1.646 3.303-.894 5L2.658 18.305a2.735 2.735 0 000 3.889 2.782 2.782 0 003.916 0l10.724-10.647c1.71.745 3.526.61 5.037-.89a5.62 5.62 0 001.395-5.718l-3.42 3.398-2.956-.734-.739-2.934 3.422-3.397a5.776 5.776 0 00-1.51-.263zM17.1 14.416l-3.475 3.45 4.448 4.419a2.47 2.47 0 003.477 0c.96-.953.96-2.498 0-3.452l-4.45-4.416zM4.616 19.334c.245 0 .48.096.653.268a.914.914 0 01-.653 1.565.927.927 0 01-.653-.269.913.913 0 01.653-1.564z"/>
</svg>