<svg data-name="Discord Nitro" width="24" height="24" xmlns="http://www.w3.org/2000/svg">
<path d="M13.319 21.98c-.7-.05-1.394-.17-2.07-.361a6.65 6.65 0 01-.675-.22.152.152 0 00-.057-.018.37.37 0 01-.09-.03l-.137-.06a.386.386 0 00-.088-.03.421.421 0 01-.097-.038 7.33 7.33 0 00-.187-.088 8.159 8.159 0 01-.67-.326 4.251 4.251 0 01-.34-.19 1.976 1.976 0 01-.18-.11 1.28 1.28 0 00-.17-.103.765.765 0 01-.103-.07.395.395 0 00-.086-.056c-.007 0-.084-.054-.171-.12a1.056 1.056 0 00-.18-.12c-.01 0-.02-.008-.02-.018 0-.01-.072-.07-.16-.133a.874.874 0 01-.16-.133c0-.01-.01-.017-.02-.017-.012 0-.048-.027-.08-.06a.34.34 0 00-.07-.06.332.332 0 01-.067-.055c-.359-.313-.695-.65-1.008-1.009a.328.328 0 01-.055-.069.34.34 0 00-.06-.068c-.033-.033-.06-.068-.06-.08 0-.01-.008-.02-.017-.02a.874.874 0 01-.132-.16.826.826 0 00-.133-.16c-.01 0-.018-.01-.018-.022 0-.01-.054-.092-.12-.178a1.488 1.488 0 01-.12-.171.402.402 0 00-.055-.087 1.03 1.03 0 01-.12-.182.735.735 0 00-.054-.09 1.614 1.614 0 01-.11-.18 4.26 4.26 0 01-.19-.34 8.163 8.163 0 01-.325-.671 7.443 7.443 0 00-.088-.189.417.417 0 01-.038-.097.419.419 0 00-.033-.093c-.078-.175-.087-.2-.087-.22a.151.151 0 00-.02-.058c-.055-.098-.266-.813-.35-1.186-.06-.266-.161-.848-.181-1.046l-.014-.135H3.53c-.59-.002-.7-.019-.9-.14a.968.968 0 01.014-1.67c.189-.112.32-.131.89-.131h.498l.025-.226c.047-.438.196-1.222.29-1.526a.809.809 0 00.03-.125c0-.02-.352-.026-1.695-.026-1.446 0-1.714-.005-1.824-.03a1.116 1.116 0 01-.83-.83 1.113 1.113 0 01.83-1.33c.11-.027.428-.03 2.29-.03 2.036 0 2.165-.003 2.194-.036a.35.35 0 00.043-.065c.018-.038.052-.095.103-.17.062-.093.089-.137.103-.17a.76.76 0 01.07-.103.397.397 0 00.057-.086c0-.007.054-.084.12-.17a1.08 1.08 0 00.12-.18c0-.011.008-.02.018-.02.01 0 .07-.073.133-.16a.874.874 0 01.132-.16c.01 0 .017-.01.017-.023 0-.01.027-.047.06-.079a.34.34 0 00.06-.069.33.33 0 01.055-.068c.03-.032.109-.118.175-.192.066-.074.13-.147.146-.162.02-.023-.233-.028-1.69-.033l-1.717-.006-.14-.05a1.48 1.48 0 01-.64-.391 1.441 1.441 0 01-.393-.652c-.038-.125-.046-.194-.046-.41 0-.217.008-.286.046-.41.085-.274.193-.452.393-.651.188-.19.346-.29.585-.372.283-.099.14-.097 6.016-.1 5.47-.003 5.626 0 6.12.063.236.03.698.112.956.17.366.083 1.082.294 1.18.35.019.01.045.019.057.019.012 0 .053.013.09.03l.136.06c.038.016.077.03.088.03a.41.41 0 01.097.038l.187.088c.228.098.452.206.67.324.116.059.23.122.34.19.057.03.112.065.18.11.093.063.138.09.17.104.036.02.07.044.103.07a.45.45 0 00.086.057c.008 0 .085.054.17.12.088.066.169.12.18.12.01 0 .02.008.02.018 0 .01.073.07.16.133.089.064.16.123.16.132 0 .01.01.017.022.017.012 0 .047.027.08.06.02.023.043.043.068.06a.332.332 0 01.068.055l.193.176c.287.262.56.54.816.833.021.02.04.043.055.068.017.026.037.05.06.07.033.031.06.067.06.078 0 .012.007.021.016.021.01 0 .07.072.132.16.064.089.124.16.134.16.01 0 .018.01.018.022 0 .012.054.092.12.18.066.086.12.163.12.17 0 .007.024.046.055.086.063.085.1.14.118.183a.722.722 0 00.055.09c.045.065.078.118.11.18.07.11.133.224.19.34.12.219.228.443.326.671.027.06.067.145.088.187.02.043.038.086.038.097 0 .011.013.051.03.088l.06.137c.016.038.03.079.03.09.093.239.173.484.238.732a10.126 10.126 0 01-.22 6.181.148.148 0 00-.02.057.407.407 0 01-.03.095c-.078.175-.088.2-.088.22a.425.425 0 01-.038.096l-.088.188a8.198 8.198 0 01-.325.67c-.058.116-.122.23-.19.34-.03.057-.063.113-.11.181a1.465 1.465 0 00-.103.17.774.774 0 01-.07.103.4.4 0 00-.056.087c0 .007-.054.084-.12.17-.066.087-.12.168-.12.18 0 .011-.008.02-.018.02-.01 0-.07.073-.134.16a.875.875 0 01-.132.16c-.01 0-.016.01-.016.021 0 .012-.027.047-.06.08a.336.336 0 00-.06.068.334.334 0 01-.055.069l-.175.193c-.263.287-.541.56-.834.816a.334.334 0 01-.068.055.34.34 0 00-.07.06c-.031.034-.066.06-.078.06-.011 0-.02.008-.02.018a.964.964 0 01-.16.132.823.823 0 00-.16.133c0 .01-.01.018-.022.018-.011 0-.092.054-.18.12-.085.066-.162.12-.17.12a.395.395 0 00-.086.055.975.975 0 01-.183.118.732.732 0 00-.09.055 1.63 1.63 0 01-.18.111c-.11.069-.224.132-.34.19-.1.05-.193.1-.21.111a8.13 8.13 0 01-.46.215c-.06.027-.144.067-.187.088a.425.425 0 01-.097.038.384.384 0 00-.088.03l-.136.06a.372.372 0 01-.09.03.152.152 0 00-.057.02c-.098.054-.814.266-1.18.348-.946.213-1.994.295-2.925.23v.001zm1.74-3.138a7.37 7.37 0 001.66-.445c.346-.134 1.079-.535 1.35-.738.055-.042.172-.128.26-.191.088-.064.178-.136.2-.16a4.42 4.42 0 01.24-.219c.243-.21.212-.18.423-.423.096-.11.196-.22.222-.247.027-.026.098-.116.16-.2.06-.084.145-.199.187-.254.176-.233.632-1.064.725-1.32l.092-.248c.446-1.187.543-2.577.27-3.856-.08-.377-.142-.581-.362-1.18-.095-.263-.55-1.09-.725-1.322a23.812 23.812 0 01-.191-.26 2.308 2.308 0 00-.16-.2 3.186 3.186 0 01-.16-.18 3.95 3.95 0 00-.536-.537 1.42 1.42 0 01-.175-.158 1.69 1.69 0 00-.215-.17 5.655 5.655 0 01-.225-.167 4.486 4.486 0 00-.448-.288 6.84 6.84 0 00-2.937-.954 9.525 9.525 0 00-1.576.038 7.002 7.002 0 00-2.09.644c-.25.123-.743.405-.77.44-.045.036-.092.07-.14.1A6.918 6.918 0 008.81 7.57c-.377.455-.64.855-.89 1.355a7.007 7.007 0 00-.558 4.567c.113.483.273.96.466 1.389.118.26.435.832.528.952a6.86 6.86 0 004.6 2.975c.453.077.609.087 1.243.08.467-.005.646-.015.86-.047zm-1.51-1.727a5.327 5.327 0 01-1.308-.308 5.761 5.761 0 01-.683-.326 7.106 7.106 0 01-.707-.483 6.133 6.133 0 01-.675-.676 7.131 7.131 0 01-.482-.708 5.033 5.033 0 01-.506-3.703c.15-.604.412-1.174.775-1.68.17-.241.196-.274.385-.48.157-.171.3-.31.503-.485.115-.1.518-.373.707-.482a5.022 5.022 0 013.7-.505 4.889 4.889 0 011.68.774c.24.17.274.196.48.386.17.157.308.3.484.504.099.115.373.517.482.707a5.035 5.035 0 01.407 4.044c-.155.479-.383.93-.677 1.339-.17.242-.196.275-.385.481-.147.161-.15.164-.311.311-.206.19-.24.217-.48.387a4.89 4.89 0 01-1.68.774 5.27 5.27 0 01-1.71.13zm2.888-3.44c.477-.797.867-1.47.867-1.494 0-.035-1.485-2.588-1.697-2.916l-.05-.075H12.62l-.047.075c-.22.35-1.66 2.883-1.66 2.917 0 .037 1.46 2.57 1.659 2.878l.048.076 1.475-.006 1.475-.005.868-1.45z"/>
</svg>