<svg data-name="Hotspot Options" width="24" height="24" xmlns="http://www.w3.org/2000/svg">
<path d="M10.15 0a.926.926 0 00-.925.923c0 4.668-6.475 8.308-6.475 14.77 0 4.908 5.331 8.082 7.209 8.287a.926.926 0 001.093-1.105.923.923 0 00-.318-.514v-.002c-.842-.681-2.434-2.657-2.434-4.462 0-2.962 2.775-4.05 2.775-4.05-1.583 4.467 3.603 5.007 4.647 9.43h.002a.923.923 0 001.492.508c.15-.097 4.034-2.66 4.034-8.093 0-2.218-1.112-6.027-1.911-7.714l-.002-.006a.924.924 0 00-1.77.168v.004c-.003.01-.428 1.893-1.867 2.933 0-4.35-3.146-8.842-4.806-10.7A.925.925 0 0010.15 0z"/>
</svg>