<svg data-name="Privacy And Safety" width="24" height="24" xmlns="http://www.w3.org/2000/svg">
<path d="M20.36 4.82c-4.093 0-7.344-4.271-7.344-4.321A1.241 1.241 0 0012.025 0a1.232 1.232 0 00-.991.499s-3.251 4.32-7.345 4.32a1.183 1.183 0 00-.848.358 1.198 1.198 0 00-.34.86v8.39c0 4.56 8.047 8.98 8.92 9.45.186.095.395.136.604.12.193-.003.383-.051.555-.14.921-.48 8.92-4.89 8.92-9.45v-8.37a1.201 1.201 0 00-.324-.843 1.186 1.186 0 00-.816-.375zm-4.767 11.972l-3.568-2.384-3.568 2.394 1.19-3.592-2.39-2.394h3.578l1.19-3.602 1.19 3.602h3.577l-2.389 2.394 1.19 3.582z"/>
</svg>