<svg data-name="Settings" width="24" height="24" xmlns="http://www.w3.org/2000/svg">
<path d="M23.63 14.88l-2.166-1.47a.799.799 0 01-.35-.72V12a8.484 8.484 0 00-.049-.87.83.83 0 01.35-.73L23.6 8.91a.78.78 0 00.24-1L21.433 3.6a.799.799 0 00-.998-.32L17.87 4.51a.778.778 0 01-.768 0 9.972 9.972 0 00-1.059-.6.789.789 0 01-.439-.65l-.17-2.52a.8.8 0 00-.798-.74H9.764a.798.798 0 00-.759.74l-.22 2.49a.76.76 0 01-.449.65c-.41.199-.804.43-1.178.69a.828.828 0 01-.819 0L3.604 3.28a.797.797 0 00-.998.32L.13 7.85a.791.791 0 00.24 1.06l2.565 1.75a.78.78 0 01.34.72v1.06a.821.821 0 01-.36.72L.37 14.88A.81.81 0 00.13 16l2.437 4.2a.799.799 0 00.998.32l2.586-1.26a.777.777 0 01.828.08c.414.293.851.55 1.308.77a.829.829 0 01.47.67l.249 2.48a.8.8 0 00.799.74h4.872a.797.797 0 00.798-.74l.17-2.49a.77.77 0 01.46-.65 8.65 8.65 0 001.177-.69.799.799 0 01.789-.07l2.366 1.16a.798.798 0 00.998-.32L23.87 16a.81.81 0 00-.24-1.12zM12 16.4a4.387 4.387 0 01-4.073-2.702 4.407 4.407 0 01.94-4.802A4.39 4.39 0 0116.373 12a4.395 4.395 0 01-2.697 4.062c-.53.222-1.1.337-1.676.338z"/>
</svg>