<svg data-name="Subscriptions" width="24" height="24" xmlns="http://www.w3.org/2000/svg">
<path d="M12.715 20.567l5.079 3.209a1.377 1.377 0 001.586-.058c.228-.173.4-.413.496-.689.094-.275.107-.574.035-.857L18.5 16.194a1.506 1.506 0 01.013-.79c.074-.258.216-.49.41-.669l4.515-4.084c.236-.184.41-.44.498-.732a1.505 1.505 0 00-.009-.894 1.457 1.457 0 00-.512-.721 1.38 1.38 0 00-.824-.276l-5.926-.584a1.203 1.203 0 01-.698-.254 1.268 1.268 0 01-.43-.622L13.28.881a1.516 1.516 0 00-.546-.642 1.446 1.446 0 00-1.59 0 1.516 1.516 0 00-.546.642L8.34 6.714c-.097.236-.252.44-.45.594-.198.153-.432.25-.678.28l-5.927.439c-.276.04-.534.159-.748.343a1.548 1.548 0 00-.461.697c-.088.273-.1.565-.037.845.064.28.202.535.398.738l4.515 4.084c.207.169.359.4.435.66.076.261.072.54-.011.799L3.966 22.17c-.072.283-.06.582.035.857.095.276.267.516.496.689a1.376 1.376 0 001.586.058l5.078-3.209a1.486 1.486 0 011.553 0v.001z"/>
</svg>