<svg data-name="Subscriptions" xmlns="http://www.w3.org/2000/svg" width="24" height="24" viewBox="0 0 24 24">
<path d="M12.595 18.581l4.232 2.587a1.176 1.176 0 001.764-1.293l-1.176-4.82a1.176 1.176 0 01.353-1.176l3.762-3.293a1.176 1.176 0 00-.706-2.115L15.886 8a1.023 1.023 0 01-.94-.706l-1.88-4.585a1.234 1.234 0 00-2.235 0l-1.88 4.703a1.176 1.176 0 01-.94.705l-4.939.353a1.246 1.246 0 00-.706 2.115l3.762 3.293a1.07 1.07 0 01.353 1.176l-1.176 4.82a1.176 1.176 0 001.764 1.293L11.3 18.58a1.27 1.27 0 011.294 0h.001z"/>
</svg>