<svg data-name="Voice And Video" width="24" height="24" xmlns="http://www.w3.org/2000/svg">
<path fill-rule="evenodd" clip-rule="evenodd" d="M15.662 10.8c.026.488-.05.976-.22 1.435a3.593 3.593 0 01-.778 1.232 3.653 3.653 0 01-1.207.83 3.696 3.696 0 01-4.091-.83 3.593 3.593 0 01-.777-1.232 3.554 3.554 0 01-.22-1.435V3.6c0-.955.384-1.87 1.07-2.546A3.678 3.678 0 0112.02 0c.969 0 1.898.38 2.582 1.054a3.574 3.574 0 011.07 2.546l-.01 7.2zm-3.642 6.12a6.4 6.4 0 002.433-.426 6.33 6.33 0 002.082-1.313 6.227 6.227 0 001.411-2c.332-.752.51-1.561.525-2.381H20.5a8.286 8.286 0 01-2.15 5.352 8.507 8.507 0 01-5.153 2.708V24h-2.394v-5.14a8.527 8.527 0 01-5.148-2.712A8.306 8.306 0 013.5 10.8h2.029c.014.823.194 1.636.529 2.39a6.23 6.23 0 001.422 2.005 6.332 6.332 0 002.095 1.31 6.4 6.4 0 002.445.415z"/>
</svg>