<svg xmlns="http://www.w3.org/2000/svg" width="20" height="20" viewBox="0 0 172 172">
<g fill="none" stroke-miterlimit="10" font-family="none" font-weight="none" font-size="none" text-anchor="none" style="mix-blend-mode:normal">
    <path d="M0 172V0h172v172z"/>
    <path d="M85.916 21.423a5.376 5.376 0 00-5.291 5.452v76.608L68.3 91.158a5.376 5.376 0 10-7.6 7.6l21.5 21.5a5.376 5.376 0 007.6 0l21.5-21.5a5.376 5.376 0 10-7.6-7.6l-12.325 12.325V26.875a5.376 5.376 0 00-5.459-5.452zM41.208 60.917c-10.82 0-19.708 8.887-19.708 19.708v50.167c0 10.82 8.887 19.708 19.708 19.708h89.584c10.82 0 19.708-8.887 19.708-19.708V80.625c0-10.82-8.887-19.708-19.708-19.708h-21.5a5.376 5.376 0 100 10.75h21.5c5.01 0 8.958 3.948 8.958 8.958v50.167c0 5.01-3.948 8.958-8.958 8.958H41.208c-5.01 0-8.958-3.948-8.958-8.958V80.625c0-5.01 3.948-8.958 8.958-8.958h21.5a5.376 5.376 0 100-10.75z" fill="#2ecc71"/>
</g>
</svg>