<svg xmlns="http://www.w3.org/2000/svg" width="20" height="20" viewBox="0 0 172 172">
<g fill="none" stroke-miterlimit="10" font-family="none" font-weight="none" font-size="none" text-anchor="none" style="mix-blend-mode:normal">
    <path d="M0 172V0h172v172z"/>
    <path d="M53.75 25.083c-21.706 0-39.417 17.71-39.417 39.417 0 14.678 11.064 28.498 24.552 42.671C52.372 121.344 68.973 135.7 82.2 148.925a5.376 5.376 0 007.6 0c13.227-13.226 29.828-27.58 43.315-41.754 13.488-14.173 24.552-27.993 24.552-42.671 0-21.706-17.71-39.417-39.417-39.417-12.457 0-23.303 6.689-32.25 18.05-8.947-11.361-19.793-18.05-32.25-18.05zm0 10.75c10.494 0 19.23 5.585 27.708 18.995a5.376 5.376 0 009.084 0c8.479-13.41 17.214-18.995 27.708-18.995A28.584 28.584 0 01146.917 64.5c0 8.614-8.645 21.669-21.584 35.266-11.8 12.4-26.468 25.355-39.333 37.898-12.865-12.543-27.533-25.498-39.333-37.898C33.727 86.17 25.083 73.114 25.083 64.5A28.584 28.584 0 0153.75 35.833z" fill="#e74c3c"/>
</g>
</svg>