<svg data-name="Heart" xmlns="http://www.w3.org/2000/svg" width="20" height="20" viewBox="0 0 172 172">
<g fill="none" stroke-miterlimit="10" font-family="none" font-weight="none" font-size="none" text-anchor="none" style="mix-blend-mode:normal">
    <path d="M0 172V0h172v172z"/>
    <g fill="rgb(237, 66, 69)">
        <path d="M30.903 100.856c6.127 6.128 43.229 36.995 45.802 39.568a13.094 13.094 0 009.288 3.848c3.361 0 6.722-1.283 9.288-3.848 2.58-2.573 39.675-33.44 45.802-39.568 14.104-14.104 14.104-36.98 0-51.084-14.104-14.104-36.98-14.104-51.084 0-1.512 1.527-2.802 3.204-3.999 4.91-1.197-1.713-2.487-3.383-4.013-4.91-14.104-14.104-36.98-14.104-51.084 0-14.104 14.104-14.104 36.98 0 51.084z" opacity=".35"/>
        <path d="M121.475 50.167c5.84 0 11.33 2.272 15.459 6.4 4.127 4.128 6.4 9.617 6.4 15.458 0 5.84-2.273 11.33-6.4 15.459-3.842 3.84-23.73 20.711-35.612 30.788-7.869 6.672-12.484 10.599-15.322 13.057-2.83-2.45-7.446-6.378-15.308-13.043C58.81 108.202 38.915 91.332 35.074 87.49c-8.522-8.521-8.522-22.389 0-30.91 4.12-4.142 9.61-6.414 15.451-6.414 5.84 0 11.087 2.43 15.458 6.4C66.643 57.233 86 72.97 86 72.97s19.357-15.738 20.016-16.404c4.508-3.97 9.618-6.4 15.459-6.4m0-21.5c-11.094 0-22.195 4.235-30.659 12.699-1.835 1.835-3.376 3.841-4.816 5.898-1.44-2.057-2.981-4.063-4.816-5.898-8.464-8.464-19.565-12.7-30.659-12.7-11.094 0-22.195 4.236-30.659 12.7-16.935 16.935-16.935 44.383 0 61.318 7.36 7.36 51.894 44.405 54.983 47.493A15.713 15.713 0 0086 154.793c4.035 0 8.07-1.541 11.151-4.615 3.096-3.09 47.63-40.141 54.983-47.494 16.935-16.935 16.935-44.383 0-61.318-8.464-8.464-19.565-12.7-30.659-12.7z"/>
    </g>
</g>
</svg>