<svg data-name="Support" xmlns="http://www.w3.org/2000/svg" width="20" height="20" viewBox="0 0 172 172">
<g fill="none" stroke-miterlimit="10" font-family="none" font-weight="none" font-size="none" text-anchor="none" style="mix-blend-mode:normal">
    <path d="M0 172V0h172v172z"/>
    <g fill="rgb(255, 159, 10)">
        <circle cx="12" cy="12" transform="scale(7.16667)" r="10" opacity=".35"/>
        <path d="M85.162 100.14h-.044c-4.801 0-8.506-4.336-7.682-9.066 2.508-14.427 13.738-14.928 13.738-23.887 0-2.486-.43-8.055-6.421-8.055-3.24 0-5.146 2.071-6.256 4.279-1.498 2.988-4.953 4.457-8.242 3.877-4.988-.889-8.048-6.235-5.934-10.836C67.345 49.88 73.537 43 85.799 43c19.895 0 22.561 15.58 22.561 22.905 0 17.314-12.893 17.96-15.566 27.935-.968 3.598-3.906 6.3-7.633 6.3zm10.334 18.347c0 2.952-.91 5.446-2.738 7.474-1.835 2.021-4.235 3.039-7.188 3.039-2.967 0-5.36-1.018-7.188-3.039-1.828-2.028-2.752-4.522-2.752-7.474 0-2.889.924-5.375 2.752-7.49 1.827-2.1 4.221-3.146 7.188-3.146 2.953 0 5.353 1.046 7.188 3.146 1.828 2.115 2.738 4.609 2.738 7.49z"/>
    </g>
</g>
</svg>