<svg xmlns="http://www.w3.org/2000/svg" width="20" height="20" viewBox="0 0 172 172">
<g fill="none" stroke-miterlimit="10" font-family="none" font-weight="none" font-size="none" text-anchor="none" style="mix-blend-mode:normal">
    <path d="M0 172V0h172v172z"/>
    <path d="M86 14.333c-39.517 0-71.667 32.15-71.667 71.667S46.483 157.667 86 157.667s71.667-32.15 71.667-71.667S125.517 14.333 86 14.333zm0 10.75c33.707 0 60.917 27.21 60.917 60.917S119.707 146.917 86 146.917 25.083 119.707 25.083 86 52.293 25.083 86 25.083zm0 21.5c-11.81 0-21.5 9.69-21.5 21.5v1.792a5.376 5.376 0 1010.75 0v-1.792c0-5.999 4.751-10.75 10.75-10.75s10.75 4.751 10.75 10.75c0 8.389-2.181 9.44-6.005 12.444-1.912 1.502-4.416 3.234-6.558 6.152-2.141 2.918-3.562 6.985-3.562 11.863a5.376 5.376 0 1010.75 0c0-3.058.595-4.3 1.477-5.501.882-1.202 2.409-2.395 4.528-4.06 4.238-3.33 10.12-9.578 10.12-20.898 0-11.81-9.69-21.5-21.5-21.5zm0 68.084A7.167 7.167 0 1086 129a7.167 7.167 0 000-14.333z" fill="#e67e22"/>
</g>
</svg>