<svg width="2400" height="1260" viewBox="0 0 2400 1260" fill="none" xmlns="http://www.w3.org/2000/svg">
<rect width="2400" height="1260" rx="100" fill="#36393F"/>
<g clip-path="url(#clip0_6_131)">
<rect x="325" y="230" width="800" height="800" rx="100" fill="#2F3136"/>
<path d="M352.923 249.2L338.781 239.4C338.022 238.875 337.412 238.156 337.011 237.313C336.611 236.47 336.434 235.535 336.5 234.6V230C336.489 228.062 336.38 226.126 336.174 224.2C336.116 223.257 336.296 222.315 336.695 221.463C337.094 220.611 337.7 219.878 338.455 219.333L352.727 209.4C353.734 208.672 354.447 207.594 354.735 206.368C355.023 205.141 354.865 203.85 354.291 202.733L338.585 174C337.933 172.9 336.914 172.079 335.717 171.687C334.519 171.295 333.223 171.359 332.068 171.867L315.32 180.067C314.555 180.511 313.69 180.744 312.811 180.744C311.931 180.744 311.067 180.511 310.302 180.067C308.081 178.591 305.774 177.255 303.394 176.067C302.588 175.663 301.9 175.05 301.397 174.29C300.894 173.53 300.594 172.649 300.526 171.733L299.418 154.933C299.319 153.589 298.727 152.333 297.76 151.418C296.792 150.503 295.522 149.996 294.205 150H262.402C261.13 150.062 259.924 150.597 259.011 151.506C258.099 152.415 257.543 153.634 257.449 154.933L256.015 171.533C255.962 172.461 255.66 173.356 255.143 174.121C254.626 174.885 253.913 175.489 253.083 175.867C250.405 177.191 247.834 178.729 245.393 180.467C244.578 180.94 243.658 181.189 242.721 181.189C241.784 181.189 240.863 180.94 240.049 180.467L222.192 171.867C221.037 171.359 219.741 171.295 218.544 171.687C217.346 172.079 216.328 172.9 215.675 174L199.513 202.333C198.841 203.492 198.628 204.871 198.919 206.186C199.21 207.5 199.982 208.651 201.077 209.4L217.826 221.067C218.583 221.589 219.188 222.311 219.578 223.156C219.968 224 220.128 224.937 220.042 225.867V232.933C220.087 233.872 219.895 234.807 219.484 235.648C219.073 236.489 218.457 237.207 217.696 237.733L201.077 249.2C199.902 249.978 199.077 251.202 198.784 252.602C198.491 254.002 198.753 255.464 199.513 256.667L215.415 284.667C216.067 285.766 217.086 286.588 218.283 286.98C219.481 287.372 220.776 287.308 221.932 286.8L238.811 278.4C239.669 277.956 240.633 277.771 241.591 277.865C242.548 277.96 243.46 278.33 244.22 278.933C246.919 280.888 249.775 282.605 252.757 284.067C253.601 284.477 254.327 285.104 254.864 285.887C255.401 286.67 255.73 287.582 255.82 288.533L257.449 305.067C257.548 306.411 258.141 307.667 259.108 308.582C260.075 309.497 261.345 310.004 262.663 310H294.465C295.783 310.004 297.053 309.497 298.02 308.582C298.988 307.667 299.58 306.411 299.679 305.067L300.787 288.467C300.853 287.534 301.167 286.637 301.696 285.873C302.224 285.109 302.946 284.508 303.785 284.133C306.462 282.809 309.034 281.271 311.475 279.533C312.219 279.004 313.086 278.683 313.988 278.601C314.891 278.52 315.799 278.68 316.623 279.067L332.068 286.8C333.223 287.308 334.519 287.372 335.717 286.98C336.914 286.588 337.933 285.766 338.585 284.667L354.487 256.667C355.247 255.464 355.509 254.002 355.216 252.602C354.923 251.202 354.098 249.978 352.923 249.2ZM277 259.333C271.323 259.36 265.766 257.662 261.034 254.455C256.301 251.248 252.606 246.676 250.415 241.318C248.225 235.961 247.639 230.058 248.73 224.36C249.822 218.661 252.542 213.422 256.547 209.306C260.552 205.19 265.662 202.383 271.227 201.24C276.793 200.098 282.565 200.671 287.813 202.887C293.06 205.103 297.546 208.863 300.702 213.69C303.859 218.516 305.544 224.193 305.544 230C305.553 233.843 304.821 237.651 303.391 241.205C301.962 244.759 299.861 247.99 297.211 250.714C294.56 253.438 291.411 255.601 287.943 257.08C284.476 258.559 280.757 259.325 277 259.333Z" fill="#B9BBBE"/>
<path d="M501 150C485.178 150 469.71 154.692 456.554 163.482C443.398 172.273 433.145 184.767 427.09 199.385C421.035 214.003 419.45 230.089 422.537 245.607C425.624 261.126 433.243 275.38 444.431 286.569C455.62 297.757 469.874 305.376 485.393 308.463C500.911 311.55 516.997 309.965 531.615 303.91C546.233 297.855 558.727 287.602 567.518 274.446C576.308 261.29 581 245.822 581 230C581 208.783 572.571 188.434 557.569 173.431C542.566 158.429 522.217 150 501 150V150ZM469 182C472.165 182 475.258 182.938 477.889 184.696C480.52 186.455 482.571 188.953 483.782 191.877C484.993 194.801 485.31 198.018 484.693 201.121C484.075 204.225 482.551 207.076 480.314 209.314C478.076 211.551 475.225 213.075 472.121 213.693C469.018 214.31 465.801 213.993 462.877 212.782C459.953 211.571 457.455 209.52 455.697 206.889C453.938 204.258 453 201.164 453 198C453.018 193.762 454.709 189.702 457.706 186.706C460.703 183.709 464.762 182.018 469 182ZM549 246C549 266.933 526.133 286 501 286C475.867 286 453 266.933 453 246V238H549V246ZM533 214C529.836 214 526.742 213.062 524.111 211.304C521.48 209.545 519.429 207.047 518.218 204.123C517.007 201.199 516.69 197.982 517.307 194.879C517.925 191.775 519.449 188.924 521.686 186.686C523.924 184.449 526.775 182.925 529.879 182.307C532.982 181.69 536.199 182.007 539.123 183.218C542.047 184.429 544.545 186.48 546.304 189.111C548.062 191.742 549 194.835 549 198C549 202.243 547.314 206.313 544.314 209.314C541.313 212.314 537.243 214 533 214Z" fill="#B9BBBE"/>
<path d="M693 173.333L645 230L693 286.667L713 266.667L681.666 230L713 193.333L693 173.333ZM757 173.333L737 193.333L768.333 230L737 266.667L757 286.667L805 230L757 173.333Z" fill="#B9BBBE"/>
<path d="M1010.39 225.932H998.93V195.357C998.92 191.306 997.306 187.423 994.441 184.559C991.576 181.694 987.694 180.08 983.643 180.069H953.061V168.607C952.929 163.627 950.859 158.896 947.29 155.42C943.721 151.945 938.937 150 933.955 150C928.974 150 924.189 151.945 920.62 155.42C917.052 158.896 914.981 163.627 914.849 168.607V180.069H884.287C880.243 180.082 876.368 181.699 873.515 184.565C870.661 187.431 869.061 191.312 869.067 195.357V224.401H880.455C885.93 224.401 891.179 226.575 895.051 230.445C898.922 234.315 901.098 239.564 901.1 245.038C901.096 250.51 898.92 255.756 895.051 259.625C891.181 263.493 885.934 265.667 880.462 265.669H869V294.712C869.01 298.764 870.625 302.646 873.489 305.511C876.354 308.375 880.236 309.989 884.287 310H913.331V298.538C913.333 293.066 915.507 287.819 919.375 283.949C923.244 280.079 928.49 277.904 933.962 277.9C939.435 277.902 944.683 280.077 948.553 283.947C952.423 287.817 954.598 293.065 954.599 298.538V310H983.643C987.694 309.989 991.576 308.375 994.441 305.511C997.306 302.646 998.92 298.764 998.93 294.712V264.144H1010.39C1015.37 264.012 1020.1 261.942 1023.58 258.373C1027.05 254.804 1029 250.02 1029 245.038C1029 240.057 1027.05 235.272 1023.58 231.703C1020.1 228.135 1015.37 226.064 1010.39 225.932Z" fill="#B9BBBE"/>
<path d="M1133 150C1130.8 149.993 1128.63 150.531 1126.69 151.567C1124.74 152.602 1123.09 154.102 1121.87 155.933L1112.2 170.533C1114.02 170.156 1115.87 169.977 1117.73 170C1120.24 170.022 1122.73 170.381 1125.13 171.067L1192.6 190.467L1202.4 193.333L1140.4 152.2C1138.2 150.753 1135.63 149.988 1133 150ZM1118.8 183.333C1115.74 183.087 1112.7 183.9 1110.17 185.636C1107.65 187.373 1105.8 189.926 1104.93 192.867L1101 206.2C1104.71 204.303 1108.83 203.32 1113 203.333H1188.87L1121.47 183.733C1120.59 183.51 1119.7 183.376 1118.8 183.333ZM1113 216.667C1109.46 216.667 1106.07 218.072 1103.57 220.572C1101.07 223.073 1099.67 226.464 1099.67 230V296.667C1099.67 300.203 1101.07 303.594 1103.57 306.095C1106.07 308.595 1109.46 310 1113 310H1233C1236.54 310 1239.93 308.595 1242.43 306.095C1244.93 303.594 1246.33 300.203 1246.33 296.667V230C1246.33 226.464 1244.93 223.073 1242.43 220.572C1239.93 218.072 1236.54 216.667 1233 216.667H1113ZM1213 230H1233V296.667H1213V230Z" fill="#B9BBBE"/>
<path d="M389 430C411.091 430 429 412.091 429 390C429 367.909 411.091 350 389 350C366.909 350 349 367.909 349 390C349 412.091 366.909 430 389 430Z" fill="#B9BBBE"/>
<path d="M469 490V510H309V490C309.168 486.367 310.154 482.82 311.886 479.622C313.618 476.424 316.049 473.659 319 471.533C335.667 457.2 369.467 450 389 450C408.533 450 442.333 457.2 459 471.533C461.95 473.659 464.382 476.424 466.114 479.622C467.846 482.82 468.832 486.367 469 490Z" fill="#B9BBBE"/>
<path fill-rule="evenodd" clip-rule="evenodd" d="M677.776 410.657L683.565 404.933C689.6 398.905 692.994 390.725 693 382.193C693.006 373.661 689.624 365.476 683.598 359.439C680.614 356.449 677.071 354.077 673.171 352.458C669.27 350.838 665.089 350.003 660.866 350C652.338 349.994 644.156 353.377 638.121 359.406L632.332 365.196L677.776 410.657ZM621.021 376.645L552.623 444.936L598.067 490.397L666.332 421.906L621.021 376.645ZM543.175 509.767L584.36 499.516L543.774 458.914L533.261 499.849C532.908 501.184 532.913 502.588 533.275 503.92C533.637 505.252 534.344 506.465 535.324 507.437C536.309 508.487 537.555 509.255 538.934 509.665C540.314 510.074 541.777 510.109 543.175 509.767Z" fill="#B9BBBE"/>
<path d="M837 350L772 379.067V430C773.393 448.369 780.364 465.874 791.981 480.172C803.597 494.469 819.305 504.877 837 510C854.695 504.877 870.403 494.469 882.019 480.172C893.636 465.874 900.607 448.369 902 430V379.067L837 350ZM837 430H786.467V388.2L837 364.867V430ZM837 495.267V430H887.667C886.771 444.722 881.457 458.832 872.418 470.488C863.379 482.143 851.036 490.802 837 495.333V495.267Z" fill="#B9BBBE"/>
<path d="M1050.42 499.816C1043.43 499.055 1036.87 496.123 1031.65 491.435C1026.43 486.747 1022.83 480.542 1021.36 473.701C1019.49 464.608 1021.18 455.722 1026.23 448.143C1031.05 440.934 1038.52 435.886 1047.03 434.073C1063.11 430.788 1078.65 438.851 1084.99 453.744C1085.29 454.448 1085.59 455.171 1085.65 455.35C1085.75 455.649 1087.24 455.669 1113.38 455.669H1141V477.298H1131.98V499.285H1107.86V477.305H1085.95L1085.77 477.716C1084.19 481.552 1083.47 482.959 1081.98 485.196C1077.15 492.406 1069.69 497.454 1061.17 499.266C1057.64 499.994 1054.01 500.182 1050.42 499.823V499.816ZM1056.75 478.121C1058.8 477.666 1060.71 476.695 1062.28 475.3C1063.86 473.905 1065.04 472.132 1065.73 470.15C1066.27 468.504 1066.4 465.166 1066 463.533C1065.48 461.425 1064.4 459.495 1062.87 457.948C1061.34 456.401 1059.42 455.295 1057.31 454.746C1054.74 454.122 1052.05 454.299 1049.59 455.251C1044.91 457.228 1041.84 462.153 1042.19 467.117C1042.31 468.838 1042.79 470.515 1043.61 472.035C1044.43 473.554 1045.57 474.88 1046.95 475.923C1048.33 476.967 1049.92 477.703 1051.61 478.082C1053.3 478.461 1055.05 478.474 1056.75 478.121ZM992.98 477.019C990.011 476.434 987.294 474.958 985.192 472.791C983.09 470.623 981.704 467.868 981.22 464.894C980.927 463.029 980.927 374.276 981.22 372.411C981.716 369.353 983.165 366.528 985.363 364.337C987.561 362.145 990.396 360.697 993.467 360.199C994.42 360.053 1011.66 360 1054.8 360C1105.8 360 1115.02 360.033 1116.17 360.259C1122.39 361.453 1127.13 366.292 1128.09 372.404C1128.23 373.333 1128.29 384.722 1128.29 411.674V449.623H1111.8L1112.22 448.362C1113.24 445.335 1113.22 446.105 1113.17 416.983L1113.11 390.144L1112.63 388.385C1111.79 385.232 1110.13 382.355 1107.81 380.047C1105.5 377.739 1102.61 376.082 1099.44 375.245L1097.65 374.753H1010.93L1009.15 375.245C1005.92 376.095 1002.99 377.793 1000.66 380.162C998.324 382.53 996.673 385.481 995.88 388.704L995.467 390.33V445.13L995.88 446.756C996.672 450.003 998.338 452.974 1000.7 455.349C1003.06 457.724 1006.03 459.413 1009.28 460.235L1010.03 460.434L1009.95 464.058C1009.85 468.836 1010.26 472.712 1011.3 476.793L1011.43 477.298L1002.8 477.278C996.467 477.265 993.86 477.198 992.98 477.019ZM1009.37 421.901C1009.37 402.741 1009.41 399.117 1009.64 398.029C1010.51 393.901 1013.97 390.463 1018.11 389.6C1020.05 389.195 1088.89 389.195 1090.83 389.6C1094.97 390.463 1098.43 393.901 1099.3 398.029C1099.53 399.117 1099.57 402.741 1099.57 421.901V444.486H1094.12L1093.69 443.709C1091.13 439.258 1087.87 435.248 1084.02 431.836C1077.65 426.195 1069.14 422.432 1059.99 421.191C1057.74 420.886 1051.39 420.886 1049.13 421.191C1044.56 421.799 1040.11 423.06 1035.91 424.934C1033.17 426.177 1030.57 427.693 1028.13 429.46C1027.9 429.613 1026.92 430.389 1025.95 431.186C1022.75 433.84 1019.75 437.126 1017.65 440.278L1016.18 442.475C1015.92 442.876 1015.68 443.29 1015.46 443.716L1015.06 444.486H1009.37V421.901Z" fill="#B9BBBE"/>
<path d="M285.792 696.529C281.123 696.2 276.499 695.395 271.992 694.127C270.467 693.72 268.965 693.232 267.492 692.665C267.375 692.598 267.246 692.555 267.112 692.539C266.905 692.498 266.703 692.431 266.512 692.339L265.599 691.938C265.412 691.848 265.215 691.781 265.012 691.738C264.787 691.681 264.57 691.596 264.366 691.485C263.953 691.283 263.537 691.087 263.119 690.897C261.598 690.243 260.107 689.52 258.652 688.729C257.878 688.341 257.121 687.918 256.386 687.461C255.973 687.238 255.572 686.993 255.186 686.727C254.826 686.469 254.447 686.239 254.052 686.04C253.811 685.904 253.581 685.747 253.366 685.573C253.191 685.424 252.999 685.299 252.792 685.2C252.746 685.2 252.232 684.839 251.652 684.399C251.283 684.092 250.883 683.824 250.459 683.598C250.386 683.598 250.319 683.545 250.319 683.478C250.319 683.411 249.839 683.011 249.252 682.591C248.863 682.341 248.505 682.045 248.186 681.71C248.186 681.643 248.119 681.597 248.052 681.597C247.972 681.597 247.732 681.417 247.519 681.196C247.384 681.043 247.23 680.908 247.059 680.796C246.892 680.694 246.74 680.571 246.606 680.429C244.215 678.343 241.97 676.096 239.886 673.704C239.743 673.567 239.62 673.413 239.519 673.243C239.406 673.075 239.272 672.922 239.119 672.79C238.899 672.57 238.719 672.336 238.719 672.256C238.719 672.183 238.666 672.123 238.606 672.123C238.271 671.803 237.976 671.445 237.726 671.055C237.476 670.663 237.178 670.304 236.839 669.988C236.772 669.988 236.719 669.921 236.719 669.841C236.719 669.767 236.359 669.227 235.919 668.653C235.626 668.292 235.359 667.911 235.119 667.512C235.022 667.304 234.899 667.109 234.752 666.932C234.326 666.371 234.086 665.998 233.959 665.717C233.851 665.509 233.729 665.308 233.592 665.117C233.322 664.733 233.077 664.332 232.859 663.916C232.402 663.18 231.98 662.423 231.592 661.648C230.802 660.191 230.079 658.7 229.426 657.177C229.236 656.757 229.04 656.338 228.839 655.923C228.728 655.719 228.643 655.501 228.586 655.276C228.537 655.061 228.463 654.853 228.366 654.655C227.846 653.488 227.786 653.321 227.786 653.181C227.767 653.046 227.722 652.917 227.652 652.801C227.286 652.147 225.879 647.383 225.319 644.894C224.919 643.12 224.246 639.237 224.112 637.922L224.019 637.021L220.532 637.015C216.599 637.008 215.866 636.895 214.532 636.087C213.569 635.509 212.774 634.689 212.225 633.708C211.676 632.727 211.392 631.62 211.401 630.496C211.411 629.372 211.713 628.27 212.279 627.299C212.844 626.328 213.653 625.521 214.626 624.959C215.886 624.205 216.759 624.078 220.559 624.078H223.879L224.046 622.577C224.359 619.654 225.352 614.424 225.979 612.402C226.068 612.13 226.135 611.851 226.179 611.568C226.179 611.435 223.832 611.395 214.879 611.395C205.239 611.395 203.452 611.361 202.719 611.194C201.374 610.877 200.143 610.19 199.166 609.212C198.189 608.234 197.503 607.003 197.186 605.657C196.75 603.747 197.088 601.742 198.124 600.081C199.161 598.419 200.813 597.236 202.719 596.79C203.459 596.616 205.572 596.596 217.992 596.596C231.559 596.596 232.419 596.576 232.612 596.356C232.724 596.223 232.82 596.077 232.899 595.922C233.019 595.669 233.246 595.288 233.586 594.788C233.999 594.168 234.179 593.874 234.272 593.654C234.409 593.412 234.565 593.183 234.739 592.967C234.89 592.793 235.018 592.6 235.119 592.393C235.119 592.346 235.479 591.832 235.919 591.259C236.359 590.671 236.719 590.138 236.719 590.058C236.719 589.984 236.772 589.924 236.839 589.924C236.906 589.924 237.306 589.437 237.726 588.857C237.976 588.467 238.271 588.109 238.606 587.789C238.672 587.789 238.719 587.722 238.719 587.642C238.719 587.576 238.899 587.329 239.119 587.115C239.272 586.981 239.407 586.826 239.519 586.655C239.621 586.488 239.744 586.336 239.886 586.201C240.086 585.988 240.612 585.414 241.052 584.92C241.492 584.427 241.926 583.939 242.026 583.839C242.166 583.686 240.472 583.653 230.759 583.619L219.312 583.579L218.379 583.252C216.756 582.762 215.286 581.861 214.112 580.637C212.866 579.45 211.961 577.95 211.492 576.293C211.239 575.459 211.186 574.999 211.186 573.558C211.186 572.117 211.239 571.656 211.492 570.822C212.059 569.001 212.779 567.813 214.112 566.486C215.366 565.218 216.419 564.551 218.012 564.004C219.899 563.35 218.946 563.363 258.119 563.337C294.586 563.323 295.626 563.337 298.919 563.757C300.492 563.957 303.572 564.504 305.292 564.891C307.732 565.445 312.506 566.853 313.159 567.226C313.286 567.293 313.459 567.353 313.539 567.353C313.619 567.353 313.892 567.44 314.139 567.553L315.046 567.953C315.299 568.06 315.559 568.154 315.632 568.154C315.706 568.154 315.999 568.267 316.279 568.407L317.526 568.994C319.047 569.646 320.537 570.368 321.992 571.156C322.767 571.544 323.523 571.967 324.259 572.424C324.639 572.624 325.006 572.851 325.459 573.158C326.079 573.571 326.379 573.751 326.592 573.845C326.834 573.981 327.063 574.138 327.279 574.312C327.546 574.519 327.812 574.692 327.852 574.692C327.906 574.692 328.419 575.052 328.992 575.493C329.572 575.933 330.112 576.293 330.192 576.293C330.259 576.293 330.326 576.347 330.326 576.414C330.326 576.48 330.806 576.881 331.392 577.301C331.979 577.728 332.459 578.122 332.459 578.182C332.459 578.248 332.526 578.295 332.599 578.295C332.679 578.295 332.912 578.475 333.132 578.695C333.265 578.848 333.417 578.983 333.586 579.096C333.752 579.197 333.905 579.321 334.039 579.463L335.326 580.63C337.241 582.38 339.057 584.236 340.766 586.188C340.907 586.322 341.031 586.475 341.132 586.642C341.244 586.815 341.378 586.972 341.532 587.109C341.752 587.315 341.932 587.556 341.932 587.629C341.932 587.709 341.979 587.769 342.039 587.769C342.106 587.769 342.506 588.25 342.919 588.837C343.346 589.424 343.746 589.904 343.812 589.904C343.879 589.904 343.932 589.971 343.932 590.044C343.932 590.124 344.292 590.658 344.732 591.245C345.172 591.819 345.532 592.333 345.532 592.379C345.532 592.426 345.692 592.686 345.899 592.953C346.319 593.52 346.566 593.887 346.686 594.174C346.793 594.383 346.916 594.584 347.052 594.775C347.352 595.208 347.572 595.562 347.792 595.976C348.249 596.712 348.672 597.469 349.059 598.244C349.849 599.7 350.572 601.192 351.226 602.714C351.406 603.115 351.672 603.682 351.812 603.962C351.946 604.249 352.066 604.536 352.066 604.609C352.066 604.683 352.152 604.949 352.266 605.196L352.666 606.104C352.772 606.357 352.866 606.631 352.866 606.704C353.489 608.3 354.019 609.931 354.452 611.588C358.275 625.139 357.764 639.548 352.992 652.794C352.923 652.91 352.878 653.04 352.859 653.174C352.816 653.393 352.747 653.606 352.652 653.808C352.132 654.976 352.066 655.142 352.066 655.276C352.008 655.499 351.923 655.714 351.812 655.916L351.226 657.164C350.572 658.686 349.849 660.178 349.059 661.634C348.672 662.409 348.249 663.166 347.792 663.903C347.592 664.283 347.372 664.65 347.059 665.11C346.652 665.731 346.472 666.024 346.372 666.245C346.235 666.484 346.079 666.711 345.906 666.925C345.756 667.101 345.631 667.297 345.532 667.506C345.532 667.552 345.172 668.066 344.732 668.64C344.292 669.22 343.932 669.761 343.932 669.841C343.932 669.914 343.879 669.974 343.812 669.974C343.746 669.974 343.346 670.461 342.919 671.042C342.669 671.431 342.374 671.79 342.039 672.109C341.979 672.109 341.932 672.176 341.932 672.249C341.932 672.329 341.752 672.563 341.532 672.783C341.379 672.916 341.245 673.068 341.132 673.237C341.031 673.404 340.907 673.556 340.766 673.69L339.599 674.978C337.848 676.895 335.992 678.713 334.039 680.422C333.905 680.564 333.752 680.688 333.586 680.789C333.415 680.902 333.26 681.036 333.126 681.19C332.912 681.41 332.679 681.59 332.599 681.59C332.526 681.59 332.466 681.637 332.466 681.703C332.466 681.764 331.979 682.157 331.399 682.584C331.007 682.834 330.649 683.132 330.332 683.472C330.332 683.538 330.266 683.592 330.186 683.592C330.112 683.592 329.572 683.952 328.992 684.392C328.419 684.833 327.906 685.193 327.859 685.193C327.651 685.29 327.456 685.413 327.279 685.56C326.719 685.98 326.346 686.227 326.059 686.347C325.85 686.455 325.65 686.577 325.459 686.714C325.076 686.987 324.675 687.234 324.259 687.455C323.523 687.912 322.767 688.335 321.992 688.722C321.332 689.056 320.706 689.39 320.592 689.463C319.585 689.971 318.562 690.447 317.526 690.891C317.126 691.071 316.566 691.338 316.279 691.478C316.075 691.589 315.858 691.674 315.632 691.731C315.429 691.774 315.232 691.841 315.046 691.932L314.139 692.332C313.948 692.424 313.747 692.491 313.539 692.532C313.405 692.551 313.276 692.596 313.159 692.665C312.506 693.026 307.732 694.44 305.292 694.987C298.986 696.408 291.999 696.956 285.792 696.522V696.529ZM297.392 675.612C301.184 675.06 304.898 674.065 308.459 672.65C310.766 671.756 315.652 669.08 317.459 667.726C317.826 667.446 318.606 666.872 319.192 666.451C319.779 666.024 320.379 665.544 320.526 665.384C320.672 665.217 321.392 664.563 322.126 663.929C323.746 662.528 323.539 662.728 324.946 661.107C325.586 660.373 326.252 659.639 326.426 659.459C326.606 659.286 327.079 658.685 327.492 658.125C327.899 657.564 328.459 656.804 328.739 656.437C329.912 654.882 332.952 649.338 333.572 647.63L334.186 645.982C337.159 638.069 337.806 628.802 335.992 620.275C335.459 617.76 335.039 616.398 333.572 612.402C332.939 610.654 329.906 605.136 328.739 603.595C328.311 603.02 327.886 602.441 327.466 601.86C327.135 601.396 326.779 600.951 326.399 600.526C326.029 600.139 325.673 599.738 325.332 599.325C324.259 598.021 323.062 596.823 321.759 595.749C321.342 595.43 320.951 595.078 320.592 594.695C320.592 594.641 319.952 594.134 319.159 593.56C318.65 593.201 318.15 592.83 317.659 592.446C316.702 591.747 315.705 591.105 314.672 590.525C308.715 586.94 302.018 584.765 295.092 584.166C291.589 583.96 288.075 584.045 284.586 584.42C279.546 585.174 275.052 586.562 270.652 588.717C268.992 589.531 265.699 591.412 265.519 591.646C265.22 591.885 264.908 592.107 264.586 592.313C261.772 594.194 258.226 597.457 255.732 600.473C253.219 603.508 251.466 606.17 249.799 609.506C245.166 618.947 243.855 629.677 246.079 639.957C246.832 643.173 247.899 646.349 249.186 649.211C249.972 650.946 252.086 654.762 252.706 655.563C252.906 655.83 253.339 656.43 253.652 656.904C260.717 666.768 271.407 673.421 283.372 675.398C286.392 675.906 287.432 675.972 291.659 675.932C294.772 675.892 295.966 675.825 297.392 675.612ZM287.326 664.103C284.344 663.789 281.414 663.098 278.606 662.048C277.042 661.424 275.521 660.697 274.052 659.873C272.418 658.896 270.844 657.823 269.339 656.657C267.724 655.273 266.22 653.765 264.839 652.147C263.674 650.64 262.601 649.065 261.626 647.43C257.375 639.94 256.167 631.1 258.252 622.743C259.247 618.715 261.001 614.913 263.419 611.541C264.552 609.933 264.726 609.713 265.986 608.339C267.032 607.198 267.986 606.277 269.339 605.11C270.106 604.442 272.792 602.621 274.052 601.894C281.537 597.642 290.369 596.435 298.719 598.524C302.747 599.517 306.548 601.27 309.919 603.688C311.526 604.823 311.746 604.996 313.119 606.257C314.252 607.305 315.172 608.259 316.346 609.62C317.006 610.387 318.832 613.069 319.559 614.337C321.859 618.394 323.288 622.887 323.755 627.528C324.223 632.169 323.717 636.857 322.272 641.291C321.241 644.484 319.718 647.496 317.759 650.219C316.626 651.833 316.452 652.053 315.192 653.428C314.212 654.502 314.192 654.522 313.119 655.503C311.746 656.77 311.526 656.944 309.919 658.078C306.548 660.497 302.747 662.25 298.719 663.242C294.991 664.149 291.14 664.44 287.319 664.103H287.326ZM306.579 641.171C309.759 635.854 312.359 631.37 312.359 631.21C312.359 630.97 302.459 613.957 301.046 611.768L300.719 611.268H281.126L280.812 611.768C279.352 614.103 269.752 630.983 269.752 631.217C269.752 631.457 279.486 648.344 280.806 650.399L281.126 650.906L290.959 650.866L300.792 650.832L306.579 641.171Z" fill="#B9BBBE"/>
<path d="M501 550L447.667 603.333V656.667L501 710L554.333 656.667V603.333L501 550ZM541 651.2L501 691.2L461 651.2V608.8L501 568.8L541 608.8V651.2Z" fill="#B9BBBE"/>
<path d="M474.333 614.4V645.6L501 672.267L527.667 645.6V614.4L501 587.733L474.333 614.4Z" fill="#B9BBBE"/>
<path d="M729.765 687.115L763.626 708.506C765.223 709.545 767.085 710.063 768.971 709.994C770.856 709.925 772.678 709.271 774.2 708.119C775.721 706.966 776.873 705.367 777.504 703.53C778.135 701.692 778.218 699.701 777.74 697.815L768.331 657.96C767.889 656.228 767.919 654.403 768.417 652.687C768.916 650.971 769.863 649.431 771.155 648.236L801.255 621.008C802.829 619.781 803.991 618.075 804.576 616.129C805.161 614.183 805.14 612.097 804.516 610.165C803.892 608.232 802.696 606.551 801.097 605.359C799.499 604.166 797.578 603.523 795.607 603.52L756.097 599.625C754.415 599.569 752.79 598.979 751.444 597.934C750.098 596.89 749.097 595.441 748.576 593.787L733.534 555.876C732.738 554.119 731.474 552.634 729.891 551.593C728.307 550.553 726.469 550 724.593 550C722.716 550 720.878 550.553 719.295 551.593C717.711 552.634 716.447 554.119 715.651 555.876L700.609 594.763C699.96 596.331 698.924 597.695 697.604 598.718C696.284 599.741 694.726 600.388 693.088 600.592L653.571 603.511C651.736 603.78 650.011 604.571 648.587 605.797C647.164 607.023 646.099 608.634 645.513 610.45C644.926 612.266 644.841 614.215 645.266 616.079C645.692 617.942 646.612 619.646 647.922 620.999L678.022 648.228C679.402 649.353 680.413 650.89 680.918 652.63C681.424 654.369 681.399 656.228 680.847 657.952L671.437 697.807C670.96 699.693 671.042 701.684 671.673 703.522C672.305 705.359 673.456 706.958 674.978 708.111C676.499 709.263 678.321 709.917 680.207 709.986C682.092 710.055 683.954 709.536 685.551 708.498L719.404 687.107C720.971 686.148 722.759 685.642 724.581 685.642C726.402 685.642 728.19 686.148 729.757 687.107H729.765V687.115Z" fill="#B9BBBE"/>
<path fill-rule="evenodd" clip-rule="evenodd" d="M988.067 597.956H1013C1017.24 597.956 1021.31 599.64 1024.31 602.638C1027.31 605.636 1029 609.703 1029 613.943V630.063H869V613.943C869 609.703 870.686 605.636 873.686 602.638C876.687 599.64 880.756 597.956 885 597.956H909.933C906.296 596.097 902.95 593.718 900 590.895C895.514 586.378 892.996 580.272 892.996 573.908C892.996 567.544 895.514 561.438 900 556.921C904.585 552.564 910.672 550.133 917 550.133C923.328 550.133 929.414 552.564 934 556.921C947.067 570.111 949 594.692 949 597.489C949 594.692 950.933 570.111 964 556.788C968.585 552.43 974.672 550 981 550C987.328 550 993.414 552.43 998 556.788C1002.49 561.305 1005 567.411 1005 573.775C1005 580.139 1002.49 586.244 998 590.761C995.059 593.632 991.712 596.056 988.067 597.956ZM911.333 579.57C910.587 578.828 909.996 577.945 909.592 576.973C909.188 576.002 908.98 574.96 908.98 573.908C908.98 572.856 909.188 571.814 909.592 570.843C909.996 569.871 910.587 568.988 911.333 568.246C912.843 566.757 914.879 565.922 917 565.922C919.121 565.922 921.157 566.757 922.667 568.246C927.347 574.009 930.428 580.901 931.6 588.23C924.202 587.167 917.213 584.181 911.333 579.57ZM966.4 588.496C967.571 581.167 970.652 574.275 975.333 568.512C976.843 567.023 978.879 566.189 981 566.189C983.121 566.189 985.157 567.023 986.667 568.512C987.412 569.255 988.004 570.137 988.408 571.109C988.812 572.081 989.02 573.122 989.02 574.174C989.02 575.227 988.812 576.268 988.408 577.24C988.004 578.212 987.412 579.094 986.667 579.837C980.795 584.461 973.802 587.449 966.4 588.496ZM877 645.984V694.013C877.017 698.247 878.709 702.304 881.706 705.298C884.702 708.292 888.762 709.982 893 710H941V645.984H877ZM957 645.984V710H1005C1009.24 709.982 1013.3 708.292 1016.29 705.298C1019.29 702.304 1020.98 698.247 1021 694.013V645.984H957Z" fill="#B9BBBE"/>
<path d="M1104.4 566.667C1101.37 566.684 1098.47 567.909 1096.33 570.074C1094.2 572.238 1093 575.166 1093 578.218V583.927H1224.4V578.218C1224.41 576.704 1224.12 575.204 1223.55 573.803C1222.98 572.402 1222.14 571.128 1221.08 570.054C1220.03 568.98 1218.77 568.128 1217.38 567.547C1215.99 566.966 1214.5 566.666 1213 566.667H1104.4ZM1235.87 589.703V606.963H1253V601.188C1252.98 598.147 1251.78 595.236 1249.64 593.086C1247.51 590.936 1244.62 589.721 1241.6 589.703H1235.87ZM1093 601.188V653.036C1093 656.082 1094.2 659.003 1096.34 661.157C1098.48 663.311 1101.38 664.521 1104.4 664.521H1213C1214.5 664.53 1215.99 664.239 1217.37 663.665C1218.76 663.091 1220.02 662.245 1221.08 661.177C1222.14 660.109 1222.98 658.839 1223.55 657.442C1224.12 656.044 1224.41 654.547 1224.4 653.036V601.188H1093ZM1235.87 624.224V664.521C1235.87 667.585 1234.66 670.523 1232.51 672.689C1230.36 674.856 1227.44 676.073 1224.4 676.073H1121.6V681.781C1121.59 683.295 1121.88 684.796 1122.45 686.197C1123.02 687.598 1123.86 688.872 1124.92 689.946C1125.97 691.019 1127.23 691.871 1128.62 692.453C1130.01 693.034 1131.5 693.333 1133 693.333H1241.6C1244.63 693.315 1247.53 692.091 1249.66 689.926C1251.8 687.762 1253 684.833 1253 681.781V624.224H1235.87Z" fill="#B9BBBE"/>
<path d="M389 750C344.82 750 309 785.82 309 830C309 874.18 344.82 910 389 910C396.38 910 402.333 904.047 402.333 896.667C402.333 893.2 401 890.087 398.867 887.687C396.708 885.262 395.506 882.133 395.487 878.887C395.487 871.513 401.447 865.553 408.82 865.553H424.553C436.338 865.548 447.64 860.864 455.974 852.532C464.308 844.199 468.993 832.899 469 821.113C469 781.82 433.18 750 389 750ZM340.113 830C332.733 830 326.78 824.047 326.78 816.667C326.78 809.287 332.733 803.333 340.113 803.333C347.487 803.333 353.447 809.287 353.447 816.667C353.447 824.047 347.487 830 340.113 830ZM366.78 794.447C359.4 794.447 353.447 788.487 353.447 781.113C353.447 773.733 359.4 767.78 366.78 767.78C374.153 767.78 380.113 773.733 380.113 781.113C380.113 788.487 374.153 794.447 366.78 794.447ZM411.22 794.447C403.847 794.447 397.887 788.487 397.887 781.113C397.887 773.733 403.847 767.78 411.22 767.78C418.6 767.78 424.553 773.733 424.553 781.113C424.553 788.487 418.6 794.447 411.22 794.447ZM437.887 830C430.513 830 424.553 824.047 424.553 816.667C424.553 809.287 430.513 803.333 437.887 803.333C445.267 803.333 451.22 809.287 451.22 816.667C451.22 824.047 445.267 830 437.887 830Z" fill="#B9BBBE"/>
<path d="M618.041 750.159C601.821 749.135 585.674 753.075 571.749 761.456C557.823 769.836 546.781 782.259 540.091 797.071C533.402 811.882 531.382 828.38 534.301 844.369C537.22 860.357 544.939 875.076 556.431 886.569C567.924 898.061 582.643 905.78 598.632 908.699C614.62 911.618 631.118 909.598 645.929 902.909C660.741 896.219 673.164 885.177 681.544 871.251C689.925 857.326 693.865 841.179 692.841 824.959C691.614 805.523 683.339 787.202 669.569 773.431C655.798 759.661 637.477 751.386 618.041 750.159ZM609.774 779.559C612.601 778.871 615.575 779.126 618.243 780.285C620.911 781.444 623.126 783.444 624.552 785.98C625.977 788.516 626.534 791.448 626.138 794.33C625.742 797.212 624.414 799.885 622.357 801.942C620.3 803.999 617.627 805.327 614.745 805.723C611.863 806.119 608.931 805.562 606.395 804.136C603.859 802.711 601.86 800.495 600.7 797.827C599.541 795.159 599.286 792.185 599.974 789.359C600.51 786.964 601.716 784.771 603.451 783.036C605.186 781.3 607.379 780.094 609.774 779.559ZM652.241 811.492C652.232 812.346 651.976 813.179 651.502 813.889C651.029 814.599 650.359 815.156 649.574 815.492L626.174 825.492V842.626L637.574 869.292C638.738 872.035 639.35 874.98 639.374 877.959V878.359C639.294 880.013 638.6 881.577 637.43 882.748C636.259 883.918 634.695 884.612 633.041 884.692C631.682 884.678 630.36 884.249 629.252 883.463C628.144 882.676 627.303 881.57 626.841 880.292L617.174 853.226C617.012 852.81 616.728 852.454 616.359 852.204C615.99 851.954 615.553 851.822 615.108 851.826H610.974C610.529 851.822 610.092 851.954 609.723 852.204C609.354 852.454 609.07 852.81 608.908 853.226L598.974 880.026C598.516 881.293 597.685 882.392 596.59 883.177C595.495 883.963 594.188 884.398 592.841 884.426C591.129 884.428 589.482 883.771 588.241 882.592C587 881.413 586.26 879.802 586.174 878.092V877.692C586.199 874.713 586.811 871.768 587.974 869.026L599.374 842.359V825.492L575.974 815.492C575.19 815.156 574.52 814.599 574.046 813.889C573.573 813.179 573.316 812.346 573.308 811.492C573.302 810.706 573.464 809.928 573.783 809.209C574.101 808.49 574.57 807.847 575.156 807.324C575.743 806.8 576.435 806.408 577.185 806.172C577.935 805.937 578.727 805.864 579.508 805.959C581.602 806.035 583.672 806.44 585.641 807.159L593.641 810.159C597.386 811.491 601.333 812.167 605.308 812.159H620.241C624.216 812.167 628.163 811.491 631.908 810.159L640.241 807.226C642.143 806.504 644.144 806.077 646.174 805.959C646.929 805.913 647.684 806.023 648.394 806.281C649.105 806.538 649.755 806.939 650.304 807.457C650.854 807.975 651.292 808.601 651.59 809.295C651.889 809.989 652.042 810.737 652.041 811.492H652.241Z" fill="#B9BBBE"/>
<path fill-rule="evenodd" clip-rule="evenodd" d="M861.411 822C861.585 825.254 861.086 828.508 859.943 831.565C858.8 834.622 857.037 837.418 854.763 839.782C852.488 842.146 849.749 844.028 846.713 845.315C843.677 846.601 840.406 847.264 837.101 847.264C833.797 847.264 830.526 846.601 827.49 845.315C824.454 844.028 821.715 842.146 819.44 839.782C817.166 837.418 815.403 834.622 814.26 831.565C813.117 828.508 812.617 825.254 812.792 822V774C812.792 767.635 815.356 761.53 819.922 757.029C824.487 752.529 830.679 750 837.135 750C843.592 750 849.784 752.529 854.349 757.029C858.914 761.53 861.479 767.635 861.479 774L861.411 822ZM837.135 862.8C842.679 862.915 848.191 861.95 853.356 859.96C858.521 857.97 863.236 854.994 867.232 851.204C871.227 847.413 874.424 842.882 876.64 837.871C878.856 832.859 880.046 827.466 880.142 822H893.667C893.329 835.193 888.248 847.838 879.33 857.68C870.412 867.522 858.238 873.92 844.979 875.733V910H829.021V875.733C815.773 873.895 803.614 867.489 794.701 857.652C785.789 847.816 780.698 835.185 780.333 822H793.858C793.954 827.489 795.153 832.905 797.385 837.934C799.618 842.963 802.839 847.506 806.864 851.3C810.888 855.094 815.636 858.064 820.832 860.038C826.028 862.012 831.569 862.951 837.135 862.8Z" fill="#B9BBBE"/>
<path d="M1123.67 750H998.333C996.052 750 993.792 750.451 991.685 751.326C989.578 752.201 987.664 753.484 986.053 755.1C984.443 756.717 983.168 758.636 982.3 760.746C981.433 762.857 980.991 765.118 981 767.4V910L1013.53 878.333H1123.67C1125.95 878.333 1128.21 877.883 1130.32 877.008C1132.42 876.132 1134.34 874.85 1135.95 873.233C1137.56 871.616 1138.83 869.698 1139.7 867.587C1140.57 865.476 1141.01 863.215 1141 860.933V767.6C1141.04 765.301 1140.61 763.019 1139.76 760.885C1138.9 758.751 1137.63 756.809 1136.02 755.171C1134.41 753.533 1132.48 752.232 1130.36 751.344C1128.24 750.457 1125.97 750 1123.67 750ZM1004.07 846.267L1032.27 809.133L1052.67 833L1080.27 798.733L1116.67 846.267H1004.07Z" fill="#B9BBBE"/>
<path d="M226.693 973.334H327.36C333.506 973.318 339.43 975.637 343.934 979.821C348.438 984.006 351.187 989.745 351.626 995.88L356.96 1070.59C357.105 1072.56 356.859 1074.54 356.237 1076.42C355.614 1078.3 354.627 1080.03 353.332 1081.53C352.038 1083.02 350.461 1084.24 348.692 1085.12C346.923 1086.01 344.998 1086.53 343.026 1086.67H341.893C337.285 1086.64 332.817 1085.08 329.195 1082.23C325.574 1079.37 323.004 1075.4 321.893 1070.92L317.693 1054.25H236.493L232.293 1070.92C231.182 1075.4 228.612 1079.37 224.991 1082.23C221.369 1085.08 216.901 1086.64 212.293 1086.67C210.303 1086.69 208.328 1086.32 206.481 1085.58C204.634 1084.84 202.953 1083.74 201.533 1082.34C200.114 1080.95 198.985 1079.29 198.211 1077.45C197.438 1075.62 197.035 1073.65 197.026 1071.66C196.991 1071.3 196.991 1070.94 197.026 1070.59L202.36 995.88C202.799 989.734 205.558 983.985 210.076 979.799C214.595 975.612 220.535 973.301 226.693 973.334ZM297.026 1013.82C299.426 1013.82 301.772 1013.11 303.767 1011.78C305.763 1010.44 307.318 1008.55 308.236 1006.33C309.154 1004.11 309.395 1001.67 308.926 999.315C308.458 996.96 307.303 994.797 305.606 993.099C303.909 991.401 301.747 990.245 299.393 989.776C297.04 989.308 294.6 989.548 292.383 990.467C290.166 991.386 288.271 992.942 286.938 994.938C285.605 996.935 284.893 999.282 284.893 1001.68C284.893 1004.9 286.171 1007.99 288.447 1010.27C290.722 1012.54 293.808 1013.82 297.026 1013.82ZM329.493 1038.1C331.89 1038.09 334.229 1037.37 336.216 1036.03C338.202 1034.68 339.747 1032.78 340.655 1030.56C341.563 1028.34 341.794 1025.91 341.318 1023.55C340.843 1021.2 339.682 1019.05 337.982 1017.36C336.283 1015.66 334.121 1014.52 331.769 1014.05C329.417 1013.59 326.981 1013.83 324.768 1014.75C322.555 1015.67 320.664 1017.23 319.333 1019.23C318.003 1021.22 317.293 1023.57 317.293 1025.96C317.283 1027.59 317.601 1029.2 318.229 1030.7C318.856 1032.2 319.779 1033.56 320.943 1034.69C322.108 1035.82 323.488 1036.71 325.003 1037.3C326.518 1037.88 328.136 1038.16 329.76 1038.1H329.493ZM228.36 1005.75H212.16V1021.96H228.36V1038.1H244.56V1021.96H260.826V1005.75H244.56V989.543H228.36V1005.75Z" fill="#B9BBBE"/>
<path d="M568.667 966.667H433.333C430.062 966.667 426.925 968.004 424.612 970.385C422.299 972.765 421 975.994 421 979.361V1080.64C421 1084.01 422.299 1087.23 424.612 1089.62C426.925 1092 430.062 1093.33 433.333 1093.33H568.667C571.938 1093.33 575.075 1092 577.388 1089.62C579.701 1087.23 581 1084.01 581 1080.64V979.361C581 977.694 580.681 976.043 580.061 974.503C579.441 972.963 578.533 971.564 577.388 970.385C576.242 969.206 574.883 968.271 573.386 967.633C571.89 966.995 570.286 966.667 568.667 966.667ZM562.533 1036.31H501V985.674H562.533V1036.31Z" fill="#B9BBBE"/>
<path d="M725 950C709.177 950 693.71 954.692 680.554 963.482C667.398 972.273 657.145 984.767 651.09 999.385C645.035 1014 643.45 1030.09 646.537 1045.61C649.624 1061.13 657.243 1075.38 668.431 1086.57C679.62 1097.76 693.874 1105.38 709.393 1108.46C724.911 1111.55 740.996 1109.97 755.615 1103.91C770.233 1097.86 782.727 1087.6 791.517 1074.45C800.308 1061.29 805 1045.82 805 1030C805 1008.78 796.571 988.434 781.568 973.431C766.566 958.429 746.217 950 725 950V950ZM725 987.533C727.096 987.533 729.146 988.155 730.889 989.32C732.632 990.484 733.991 992.14 734.793 994.077C735.595 996.014 735.805 998.145 735.396 1000.2C734.987 1002.26 733.978 1004.15 732.495 1005.63C731.013 1007.11 729.124 1008.12 727.068 1008.53C725.012 1008.94 722.88 1008.73 720.943 1007.93C719.007 1007.12 717.351 1005.77 716.186 1004.02C715.022 1002.28 714.4 1000.23 714.4 998.133C714.4 995.322 715.517 992.626 717.505 990.638C719.492 988.65 722.189 987.533 725 987.533ZM748.867 1070H701.133V1054.27H717V1030.4H709.067V1014.47H725C726.047 1014.47 727.084 1014.67 728.051 1015.08C729.018 1015.48 729.896 1016.07 730.633 1016.81C731.371 1017.56 731.954 1018.44 732.349 1019.41C732.743 1020.38 732.942 1021.42 732.933 1022.47V1054.27H748.867V1070Z" fill="#B9BBBE"/>
<path fill-rule="evenodd" clip-rule="evenodd" d="M1025.95 975.281L962.751 1016.39C961.673 1017.11 960.801 1018.09 960.221 1019.24L950.565 1038.44C950.338 1038.86 949.954 1039.18 949.494 1039.33C949.035 1039.48 948.535 1039.45 948.101 1039.24C947.738 1039.06 947.437 1038.79 947.235 1038.44L937.646 1019.24C937.019 1018.1 936.129 1017.13 935.048 1016.39L871.851 975.281C871.508 975.068 871.104 974.972 870.701 975.007C870.298 975.042 869.918 975.207 869.617 975.476C869.316 975.745 869.112 976.104 869.034 976.499C868.957 976.893 869.011 977.303 869.187 977.664L895.625 1028.64C895.832 1029.08 895.858 1029.59 895.696 1030.04C895.534 1030.5 895.198 1030.88 894.759 1031.09C894.497 1031.16 894.222 1031.16 893.96 1031.09H878.044C877.642 1031.06 877.241 1031.17 876.907 1031.39C876.572 1031.62 876.323 1031.95 876.2 1032.33C876.077 1032.71 876.087 1033.12 876.228 1033.5C876.37 1033.88 876.634 1034.19 876.979 1034.4L947.834 1084.65C948.143 1084.88 948.517 1085 948.9 1085C949.283 1085 949.657 1084.88 949.965 1084.65L1020.82 1034.6C1021.17 1034.39 1021.43 1034.07 1021.57 1033.7C1021.71 1033.32 1021.72 1032.91 1021.6 1032.53C1021.48 1032.15 1021.23 1031.82 1020.89 1031.59C1020.56 1031.37 1020.16 1031.26 1019.76 1031.29H1004.04C1003.55 1031.27 1003.09 1031.07 1002.74 1030.73C1002.39 1030.39 1002.19 1029.92 1002.17 1029.44C1002.11 1029.18 1002.11 1028.9 1002.17 1028.64L1028.81 977.664C1028.99 977.303 1029.04 976.893 1028.97 976.499C1028.89 976.104 1028.68 975.745 1028.38 975.476C1028.08 975.207 1027.7 975.042 1027.3 975.007C1026.9 974.972 1026.49 975.068 1026.15 975.281" fill="#B9BBBE"/>
<path d="M1110.74 955.001C1109.18 955.026 1107.68 955.679 1106.59 956.818C1105.5 957.957 1104.89 959.489 1104.92 961.076V967.07H1099C1098.21 967.059 1097.44 967.206 1096.71 967.503C1095.98 967.799 1095.32 968.239 1094.76 968.797C1094.2 969.354 1093.76 970.019 1093.46 970.751C1093.16 971.483 1093 972.269 1093 973.063C1093 973.857 1093.16 974.643 1093.46 975.375C1093.76 976.108 1094.2 976.772 1094.76 977.33C1095.32 977.887 1095.98 978.327 1096.71 978.624C1097.44 978.92 1098.21 979.067 1099 979.057H1104.92V985.05C1104.91 985.844 1105.05 986.632 1105.34 987.368C1105.64 988.104 1106.07 988.775 1106.62 989.34C1107.17 989.905 1107.83 990.353 1108.55 990.659C1109.28 990.966 1110.05 991.123 1110.84 991.123C1111.62 991.123 1112.4 990.966 1113.12 990.659C1113.84 990.353 1114.5 989.905 1115.05 989.34C1115.6 988.775 1116.03 988.104 1116.33 987.368C1116.62 986.632 1116.76 985.844 1116.75 985.05V979.057H1122.67C1123.46 979.067 1124.23 978.92 1124.96 978.624C1125.69 978.327 1126.35 977.887 1126.91 977.33C1127.47 976.772 1127.91 976.108 1128.21 975.375C1128.51 974.643 1128.67 973.857 1128.67 973.063C1128.67 972.269 1128.51 971.483 1128.21 970.751C1127.91 970.019 1127.47 969.354 1126.91 968.797C1126.35 968.239 1125.69 967.799 1124.96 967.503C1124.23 967.206 1123.46 967.059 1122.67 967.07H1116.75V961.076C1116.77 960.275 1116.62 959.479 1116.32 958.736C1116.02 957.993 1115.58 957.318 1115.02 956.752C1114.46 956.185 1113.79 955.738 1113.06 955.437C1112.32 955.137 1111.53 954.988 1110.74 955.001ZM1211.46 961.076C1210.68 961.075 1209.91 961.23 1209.19 961.531C1208.47 961.833 1207.82 962.275 1207.27 962.833C1206.16 963.96 1197.36 972.859 1195.67 974.573L1189.99 968.826C1189.44 968.269 1188.79 967.827 1188.07 967.525C1187.36 967.224 1186.59 967.068 1185.81 967.068C1185.03 967.068 1184.26 967.224 1183.55 967.525C1182.83 967.827 1182.18 968.269 1181.63 968.826L1160.88 989.827C1159.14 989.659 1157.5 989.545 1155.97 989.545C1124.55 989.545 1099 1015.43 1099 1047.23C1099 1079.04 1124.55 1104.92 1155.97 1104.92C1187.38 1104.92 1212.94 1079.04 1212.94 1047.23C1212.94 1045.67 1212.82 1044.01 1212.66 1042.26L1233.4 1021.26C1233.95 1020.7 1234.39 1020.04 1234.68 1019.31C1234.98 1018.58 1235.13 1017.8 1235.13 1017.01C1235.13 1015.41 1234.51 1013.9 1233.4 1012.78L1227.71 1007.02C1229.41 1005.31 1238.2 996.408 1239.32 995.282C1239.87 994.726 1240.3 994.065 1240.6 993.338C1240.9 992.611 1241.05 991.831 1241.05 991.044C1241.05 990.257 1240.9 989.477 1240.6 988.75C1240.3 988.023 1239.87 987.362 1239.32 986.806L1215.64 962.833C1215.09 962.275 1214.44 961.833 1213.72 961.531C1213 961.23 1212.23 961.075 1211.46 961.076ZM1185.82 981.539L1220.84 1017.01L1206.3 1031.73L1171.27 996.253L1185.82 981.539ZM1155.97 1001.53C1157.3 1001.54 1158.63 1001.61 1159.96 1001.74L1200.89 1043.21C1201.03 1044.67 1201.1 1045.99 1201.1 1047.23C1201.1 1053.61 1199.77 1059.91 1197.2 1065.73C1195.9 1063.17 1194.2 1060.83 1192.17 1058.81C1187.27 1053.78 1180.47 1050.98 1172.98 1050.98H1145.76C1138.27 1050.98 1131.46 1047.58 1126.56 1042.55C1124.01 1040.01 1121.99 1036.98 1120.61 1033.65C1119.24 1030.31 1118.53 1026.72 1118.53 1023.11C1118.53 1022.59 1118.62 1022.09 1118.65 1021.57C1126.78 1009.49 1140.47 1001.53 1155.97 1001.53ZM1235.04 1068.88C1233.47 1068.9 1231.98 1069.56 1230.89 1070.69C1229.79 1071.83 1229.19 1073.36 1229.21 1074.95V1080.95H1223.29C1222.51 1080.93 1221.73 1081.08 1221 1081.37C1220.26 1081.66 1219.6 1082.1 1219.04 1082.66C1218.48 1083.22 1218.03 1083.89 1217.73 1084.62C1217.42 1085.35 1217.26 1086.14 1217.26 1086.94C1217.26 1087.74 1217.42 1088.52 1217.73 1089.26C1218.03 1089.99 1218.48 1090.66 1219.04 1091.22C1219.6 1091.78 1220.26 1092.21 1221 1092.51C1221.73 1092.8 1222.51 1092.95 1223.29 1092.93H1229.21V1098.93C1229.2 1099.72 1229.35 1100.51 1229.64 1101.24C1229.93 1101.98 1230.37 1102.65 1230.92 1103.22C1231.47 1103.78 1232.13 1104.23 1232.85 1104.54C1233.57 1104.84 1234.35 1105 1235.13 1105C1235.92 1105 1236.69 1104.84 1237.42 1104.54C1238.14 1104.23 1238.79 1103.78 1239.35 1103.22C1239.9 1102.65 1240.33 1101.98 1240.62 1101.24C1240.92 1100.51 1241.06 1099.72 1241.05 1098.93V1092.93H1246.97C1247.76 1092.95 1248.54 1092.8 1249.27 1092.51C1250 1092.21 1250.67 1091.78 1251.23 1091.22C1251.79 1090.66 1252.23 1089.99 1252.54 1089.26C1252.84 1088.52 1253 1087.74 1253 1086.94C1253 1086.14 1252.84 1085.35 1252.54 1084.62C1252.23 1083.89 1251.79 1083.22 1251.23 1082.66C1250.67 1082.1 1250 1081.66 1249.27 1081.37C1248.54 1081.08 1247.76 1080.93 1246.97 1080.95H1241.05V1074.95C1241.06 1074.15 1240.91 1073.35 1240.62 1072.61C1240.32 1071.87 1239.87 1071.19 1239.31 1070.63C1238.75 1070.06 1238.09 1069.61 1237.35 1069.31C1236.62 1069.01 1235.83 1068.86 1235.04 1068.88Z" fill="#B9BBBE"/>
</g>
<rect x="1280" y="235" width="790" height="790" rx="95" fill="#2F3136" stroke="#B9BBBE" stroke-width="10" stroke-linejoin="round" stroke-dasharray="50 50"/>
<rect x="1360" y="315" width="630" height="105" rx="15" fill="#4F545C" fill-opacity="0.32"/>
<path d="M1494.45 388.5C1494.28 388.5 1494.12 388.447 1493.98 388.342C1493.87 388.202 1493.82 388.045 1493.82 387.87V352.38C1493.82 352.205 1493.87 352.065 1493.98 351.96C1494.12 351.82 1494.28 351.75 1494.45 351.75H1507.84C1510.57 351.75 1512.98 352.222 1515.08 353.167C1517.18 354.112 1518.81 355.46 1519.97 357.21C1521.12 358.96 1521.7 360.972 1521.7 363.247V377.002C1521.7 379.277 1521.12 381.29 1519.97 383.04C1518.81 384.79 1517.18 386.137 1515.08 387.082C1512.98 388.027 1510.57 388.5 1507.84 388.5H1494.45ZM1502.54 380.782C1502.54 380.957 1502.62 381.045 1502.8 381.045H1508.21C1509.61 381.045 1510.74 380.555 1511.62 379.575C1512.49 378.56 1512.95 377.212 1512.98 375.532V364.717C1512.98 363.037 1512.53 361.707 1511.62 360.727C1510.74 359.712 1509.59 359.205 1508.15 359.205H1502.8C1502.62 359.205 1502.54 359.292 1502.54 359.467V380.782ZM1530.42 358.942C1529.09 358.942 1527.99 358.522 1527.12 357.682C1526.28 356.807 1525.86 355.705 1525.86 354.375C1525.86 353.01 1526.28 351.907 1527.12 351.067C1527.99 350.227 1529.09 349.807 1530.42 349.807C1531.75 349.807 1532.84 350.227 1533.68 351.067C1534.55 351.907 1534.99 353.01 1534.99 354.375C1534.99 355.67 1534.55 356.755 1533.68 357.63C1532.84 358.505 1531.75 358.942 1530.42 358.942ZM1526.64 388.5C1526.47 388.5 1526.31 388.447 1526.17 388.342C1526.07 388.202 1526.01 388.045 1526.01 387.87V361.987C1526.01 361.812 1526.07 361.672 1526.17 361.567C1526.31 361.427 1526.47 361.357 1526.64 361.357H1534.1C1534.27 361.357 1534.41 361.427 1534.52 361.567C1534.66 361.672 1534.73 361.812 1534.73 361.987V387.87C1534.73 388.045 1534.66 388.202 1534.52 388.342C1534.41 388.447 1534.27 388.5 1534.1 388.5H1526.64ZM1550.79 388.92C1548.3 388.92 1546.13 388.588 1544.28 387.922C1542.42 387.222 1540.99 386.26 1539.97 385.035C1538.99 383.775 1538.5 382.34 1538.5 380.73V380.152C1538.5 379.977 1538.56 379.837 1538.66 379.732C1538.8 379.592 1538.96 379.522 1539.13 379.522H1546.22C1546.4 379.522 1546.54 379.592 1546.64 379.732C1546.78 379.837 1546.85 379.977 1546.85 380.152C1546.85 380.817 1547.22 381.377 1547.95 381.832C1548.69 382.252 1549.62 382.462 1550.74 382.462C1551.72 382.462 1552.49 382.305 1553.05 381.99C1553.64 381.64 1553.94 381.185 1553.94 380.625C1553.94 380.065 1553.62 379.662 1552.99 379.417C1552.4 379.137 1551.42 378.875 1550.05 378.63C1547.85 378.21 1546.06 377.702 1544.7 377.107C1542.91 376.372 1541.5 375.462 1540.45 374.377C1539.4 373.257 1538.87 371.735 1538.87 369.81C1538.87 367.08 1539.92 364.927 1542.02 363.352C1544.16 361.742 1546.96 360.937 1550.42 360.937C1552.77 360.937 1554.81 361.322 1556.56 362.092C1558.35 362.827 1559.73 363.877 1560.71 365.242C1561.69 366.607 1562.18 368.182 1562.18 369.967C1562.18 370.142 1562.11 370.3 1561.97 370.44C1561.87 370.545 1561.73 370.597 1561.55 370.597H1554.67C1554.5 370.597 1554.34 370.545 1554.2 370.44C1554.1 370.3 1554.04 370.142 1554.04 369.967C1554.04 369.302 1553.73 368.76 1553.1 368.34C1552.47 367.92 1551.61 367.71 1550.53 367.71C1549.55 367.71 1548.74 367.885 1548.11 368.235C1547.52 368.55 1547.22 369.005 1547.22 369.6C1547.22 370.195 1547.55 370.632 1548.22 370.912C1548.88 371.157 1550 371.437 1551.58 371.752C1553.61 372.172 1555.02 372.505 1555.83 372.75C1558 373.45 1559.68 374.395 1560.87 375.585C1562.09 376.775 1562.71 378.367 1562.71 380.362C1562.71 383.092 1561.62 385.21 1559.45 386.715C1557.32 388.185 1554.43 388.92 1550.79 388.92ZM1578.55 388.92C1575.68 388.92 1573.16 388.202 1570.99 386.767C1568.85 385.332 1567.33 383.355 1566.42 380.835C1565.76 379.155 1565.42 377.142 1565.42 374.797C1565.42 372.452 1565.76 370.44 1566.42 368.76C1567.3 366.31 1568.82 364.402 1570.99 363.037C1573.16 361.637 1575.68 360.937 1578.55 360.937C1581.45 360.937 1584.01 361.655 1586.21 363.09C1588.42 364.525 1589.91 366.345 1590.68 368.55C1590.92 369.18 1591.08 369.862 1591.15 370.597C1591.15 370.982 1590.96 371.21 1590.57 371.28L1583.27 372.382H1583.17C1582.85 372.382 1582.64 372.207 1582.54 371.857L1582.43 371.385C1582.36 371.105 1582.29 370.86 1582.22 370.65C1581.91 369.985 1581.42 369.442 1580.75 369.022C1580.12 368.602 1579.37 368.392 1578.5 368.392C1576.64 368.392 1575.42 369.215 1574.82 370.86C1574.44 371.84 1574.24 373.17 1574.24 374.85C1574.24 376.355 1574.42 377.667 1574.77 378.787C1575.43 380.572 1576.68 381.465 1578.5 381.465C1579.41 381.465 1580.19 381.237 1580.86 380.782C1581.52 380.292 1582 379.61 1582.28 378.735C1582.31 378.665 1582.33 378.56 1582.33 378.42C1582.36 378.385 1582.38 378.315 1582.38 378.21C1582.49 377.79 1582.73 377.615 1583.12 377.685L1590.47 378.84C1590.82 378.91 1590.99 379.102 1590.99 379.417C1590.99 379.942 1590.89 380.52 1590.68 381.15C1589.84 383.6 1588.31 385.507 1586.11 386.872C1583.94 388.237 1581.42 388.92 1578.55 388.92ZM1606.64 388.92C1603.49 388.92 1600.81 388.08 1598.61 386.4C1596.4 384.72 1594.93 382.445 1594.2 379.575C1593.78 378.14 1593.57 376.565 1593.57 374.85C1593.57 372.925 1593.8 371.227 1594.25 369.757C1595.06 366.992 1596.54 364.84 1598.71 363.3C1600.92 361.725 1603.58 360.937 1606.69 360.937C1609.77 360.937 1612.38 361.725 1614.52 363.3C1616.65 364.84 1618.14 366.975 1618.98 369.705C1619.47 371.28 1619.71 372.96 1619.71 374.745C1619.71 376.355 1619.52 377.895 1619.14 379.365C1618.4 382.305 1616.93 384.632 1614.73 386.347C1612.52 388.062 1609.83 388.92 1606.64 388.92ZM1606.64 381.465C1607.66 381.465 1608.5 381.15 1609.16 380.52C1609.83 379.855 1610.32 378.962 1610.63 377.842C1610.84 376.932 1610.95 375.935 1610.95 374.85C1610.95 373.8 1610.82 372.785 1610.58 371.805C1610.3 370.72 1609.83 369.88 1609.16 369.285C1608.5 368.69 1607.66 368.392 1606.64 368.392C1604.61 368.392 1603.28 369.53 1602.65 371.805C1602.44 372.645 1602.34 373.66 1602.34 374.85C1602.34 375.935 1602.44 376.932 1602.65 377.842C1602.93 378.962 1603.4 379.855 1604.07 380.52C1604.77 381.15 1605.63 381.465 1606.64 381.465ZM1637.91 360.99C1639.17 360.99 1640.15 361.217 1640.85 361.672C1641.13 361.847 1641.24 362.11 1641.17 362.46L1639.96 369.757C1639.92 370.177 1639.68 370.3 1639.22 370.125C1638.59 369.985 1638 369.915 1637.44 369.915C1636.84 369.915 1636.39 369.95 1636.07 370.02C1634.99 370.16 1634.06 370.58 1633.29 371.28C1632.56 371.98 1632.19 372.907 1632.19 374.062V387.87C1632.19 388.045 1632.12 388.202 1631.98 388.342C1631.87 388.447 1631.73 388.5 1631.56 388.5H1624.1C1623.93 388.5 1623.77 388.447 1623.63 388.342C1623.53 388.202 1623.47 388.045 1623.47 387.87V361.987C1623.47 361.812 1623.53 361.672 1623.63 361.567C1623.77 361.427 1623.93 361.357 1624.1 361.357H1631.56C1631.73 361.357 1631.87 361.427 1631.98 361.567C1632.12 361.672 1632.19 361.812 1632.19 361.987V363.667C1632.19 363.772 1632.22 363.842 1632.29 363.877C1632.36 363.912 1632.42 363.877 1632.45 363.772C1633.85 361.917 1635.67 360.99 1637.91 360.99ZM1659.91 352.38C1659.91 352.205 1659.96 352.065 1660.07 351.96C1660.21 351.82 1660.37 351.75 1660.54 351.75H1668C1668.17 351.75 1668.31 351.82 1668.42 351.96C1668.56 352.065 1668.63 352.205 1668.63 352.38V387.87C1668.63 388.045 1668.56 388.202 1668.42 388.342C1668.31 388.447 1668.17 388.5 1668 388.5H1660.54C1660.37 388.5 1660.21 388.447 1660.07 388.342C1659.96 388.202 1659.91 388.045 1659.91 387.87V386.137C1659.91 386.032 1659.88 385.98 1659.81 385.98C1659.74 385.945 1659.67 385.962 1659.6 386.032C1658.2 387.957 1656.18 388.92 1653.56 388.92C1651.18 388.92 1649.06 388.202 1647.21 386.767C1645.39 385.332 1644.09 383.372 1643.32 380.887C1642.76 378.997 1642.48 376.967 1642.48 374.797C1642.48 372.347 1642.85 370.142 1643.58 368.182C1644.39 366.012 1645.67 364.262 1647.42 362.932C1649.2 361.602 1651.35 360.937 1653.87 360.937C1656.39 360.937 1658.3 361.76 1659.6 363.405C1659.67 363.51 1659.74 363.545 1659.81 363.51C1659.88 363.475 1659.91 363.405 1659.91 363.3V352.38ZM1659.02 379.417C1659.61 378.297 1659.91 376.81 1659.91 374.955C1659.91 372.925 1659.58 371.35 1658.91 370.23C1658.18 369.005 1657.15 368.392 1655.82 368.392C1654.38 368.392 1653.31 369.022 1652.61 370.282C1651.91 371.472 1651.56 373.03 1651.56 374.955C1651.56 376.81 1651.88 378.315 1652.51 379.47C1653.24 380.8 1654.35 381.465 1655.82 381.465C1657.22 381.465 1658.28 380.782 1659.02 379.417ZM1677.72 358.942C1676.39 358.942 1675.29 358.522 1674.41 357.682C1673.57 356.807 1673.15 355.705 1673.15 354.375C1673.15 353.01 1673.57 351.907 1674.41 351.067C1675.29 350.227 1676.39 349.807 1677.72 349.807C1679.05 349.807 1680.14 350.227 1680.98 351.067C1681.85 351.907 1682.29 353.01 1682.29 354.375C1682.29 355.67 1681.85 356.755 1680.98 357.63C1680.14 358.505 1679.05 358.942 1677.72 358.942ZM1673.94 388.5C1673.77 388.5 1673.61 388.447 1673.47 388.342C1673.36 388.202 1673.31 388.045 1673.31 387.87V361.987C1673.31 361.812 1673.36 361.672 1673.47 361.567C1673.61 361.427 1673.77 361.357 1673.94 361.357H1681.4C1681.57 361.357 1681.71 361.427 1681.82 361.567C1681.96 361.672 1682.03 361.812 1682.03 361.987V387.87C1682.03 388.045 1681.96 388.202 1681.82 388.342C1681.71 388.447 1681.57 388.5 1681.4 388.5H1673.94ZM1699.03 388.92C1696.16 388.92 1693.64 388.202 1691.47 386.767C1689.34 385.332 1687.81 383.355 1686.9 380.835C1686.24 379.155 1685.91 377.142 1685.91 374.797C1685.91 372.452 1686.24 370.44 1686.9 368.76C1687.78 366.31 1689.3 364.402 1691.47 363.037C1693.64 361.637 1696.16 360.937 1699.03 360.937C1701.94 360.937 1704.49 361.655 1706.7 363.09C1708.9 364.525 1710.39 366.345 1711.16 368.55C1711.4 369.18 1711.56 369.862 1711.63 370.597C1711.63 370.982 1711.44 371.21 1711.05 371.28L1703.76 372.382H1703.65C1703.34 372.382 1703.13 372.207 1703.02 371.857L1702.92 371.385C1702.85 371.105 1702.78 370.86 1702.71 370.65C1702.39 369.985 1701.9 369.442 1701.24 369.022C1700.61 368.602 1699.85 368.392 1698.98 368.392C1697.12 368.392 1695.9 369.215 1695.3 370.86C1694.92 371.84 1694.73 373.17 1694.73 374.85C1694.73 376.355 1694.9 377.667 1695.25 378.787C1695.92 380.572 1697.16 381.465 1698.98 381.465C1699.89 381.465 1700.68 381.237 1701.34 380.782C1702.01 380.292 1702.48 379.61 1702.76 378.735C1702.79 378.665 1702.81 378.56 1702.81 378.42C1702.85 378.385 1702.86 378.315 1702.86 378.21C1702.97 377.79 1703.21 377.615 1703.6 377.685L1710.95 378.84C1711.3 378.91 1711.47 379.102 1711.47 379.417C1711.47 379.942 1711.37 380.52 1711.16 381.15C1710.32 383.6 1708.8 385.507 1706.59 386.872C1704.42 388.237 1701.9 388.92 1699.03 388.92ZM1727.13 388.92C1723.98 388.92 1721.3 388.08 1719.09 386.4C1716.89 384.72 1715.42 382.445 1714.68 379.575C1714.26 378.14 1714.05 376.565 1714.05 374.85C1714.05 372.925 1714.28 371.227 1714.74 369.757C1715.54 366.992 1717.03 364.84 1719.2 363.3C1721.4 361.725 1724.06 360.937 1727.18 360.937C1730.26 360.937 1732.87 361.725 1735 363.3C1737.14 364.84 1738.62 366.975 1739.46 369.705C1739.95 371.28 1740.2 372.96 1740.2 374.745C1740.2 376.355 1740.01 377.895 1739.62 379.365C1738.89 382.305 1737.42 384.632 1735.21 386.347C1733.01 388.062 1730.31 388.92 1727.13 388.92ZM1727.13 381.465C1728.14 381.465 1728.98 381.15 1729.65 380.52C1730.31 379.855 1730.8 378.962 1731.12 377.842C1731.33 376.932 1731.43 375.935 1731.43 374.85C1731.43 373.8 1731.31 372.785 1731.06 371.805C1730.78 370.72 1730.31 369.88 1729.65 369.285C1728.98 368.69 1728.14 368.392 1727.13 368.392C1725.1 368.392 1723.77 369.53 1723.14 371.805C1722.93 372.645 1722.82 373.66 1722.82 374.85C1722.82 375.935 1722.93 376.932 1723.14 377.842C1723.42 378.962 1723.89 379.855 1724.55 380.52C1725.25 381.15 1726.11 381.465 1727.13 381.465ZM1759.24 360.937C1761.97 360.937 1764.21 361.812 1765.96 363.562C1767.71 365.277 1768.58 367.622 1768.58 370.597V387.87C1768.58 388.045 1768.51 388.202 1768.37 388.342C1768.27 388.447 1768.13 388.5 1767.95 388.5H1760.5C1760.32 388.5 1760.16 388.447 1760.02 388.342C1759.92 388.202 1759.87 388.045 1759.87 387.87V372.487C1759.87 371.297 1759.53 370.317 1758.87 369.547C1758.2 368.777 1757.35 368.392 1756.3 368.392C1755.21 368.392 1754.34 368.777 1753.67 369.547C1753.01 370.282 1752.67 371.262 1752.67 372.487V387.87C1752.67 388.045 1752.6 388.202 1752.46 388.342C1752.36 388.447 1752.22 388.5 1752.04 388.5H1744.59C1744.41 388.5 1744.26 388.447 1744.12 388.342C1744.01 388.202 1743.96 388.045 1743.96 387.87V361.987C1743.96 361.812 1744.01 361.672 1744.12 361.567C1744.26 361.427 1744.41 361.357 1744.59 361.357H1752.04C1752.22 361.357 1752.36 361.427 1752.46 361.567C1752.6 361.672 1752.67 361.812 1752.67 361.987V363.93C1752.67 364.07 1752.69 364.157 1752.73 364.192C1752.8 364.192 1752.87 364.14 1752.94 364.035C1754.27 361.97 1756.37 360.937 1759.24 360.937ZM1784.37 388.92C1781.89 388.92 1779.72 388.588 1777.86 387.922C1776.01 387.222 1774.57 386.26 1773.56 385.035C1772.58 383.775 1772.09 382.34 1772.09 380.73V380.152C1772.09 379.977 1772.14 379.837 1772.25 379.732C1772.39 379.592 1772.54 379.522 1772.72 379.522H1779.81C1779.98 379.522 1780.12 379.592 1780.23 379.732C1780.37 379.837 1780.44 379.977 1780.44 380.152C1780.44 380.817 1780.8 381.377 1781.54 381.832C1782.27 382.252 1783.2 382.462 1784.32 382.462C1785.3 382.462 1786.07 382.305 1786.63 381.99C1787.23 381.64 1787.52 381.185 1787.52 380.625C1787.52 380.065 1787.21 379.662 1786.58 379.417C1785.98 379.137 1785 378.875 1783.64 378.63C1781.43 378.21 1779.65 377.702 1778.28 377.107C1776.5 376.372 1775.08 375.462 1774.03 374.377C1772.98 373.257 1772.46 371.735 1772.46 369.81C1772.46 367.08 1773.51 364.927 1775.61 363.352C1777.74 361.742 1780.54 360.937 1784.01 360.937C1786.35 360.937 1788.4 361.322 1790.15 362.092C1791.93 362.827 1793.32 363.877 1794.3 365.242C1795.28 366.607 1795.77 368.182 1795.77 369.967C1795.77 370.142 1795.7 370.3 1795.56 370.44C1795.45 370.545 1795.31 370.597 1795.14 370.597H1788.26C1788.08 370.597 1787.93 370.545 1787.79 370.44C1787.68 370.3 1787.63 370.142 1787.63 369.967C1787.63 369.302 1787.31 368.76 1786.68 368.34C1786.05 367.92 1785.2 367.71 1784.11 367.71C1783.13 367.71 1782.33 367.885 1781.7 368.235C1781.1 368.55 1780.8 369.005 1780.8 369.6C1780.8 370.195 1781.14 370.632 1781.8 370.912C1782.47 371.157 1783.59 371.437 1785.16 371.752C1787.19 372.172 1788.61 372.505 1789.41 372.75C1791.58 373.45 1793.26 374.395 1794.45 375.585C1795.68 376.775 1796.29 378.367 1796.29 380.362C1796.29 383.092 1795.21 385.21 1793.04 386.715C1790.9 388.185 1788.01 388.92 1784.37 388.92Z" fill="white"/>
<g clip-path="url(#clip1_6_131)">
<path d="M1427.58 389.107L1441.47 397.597C1442.12 398.009 1442.89 398.214 1443.66 398.187C1444.43 398.16 1445.18 397.9 1445.8 397.443C1446.43 396.985 1446.9 396.351 1447.16 395.622C1447.42 394.892 1447.45 394.102 1447.26 393.353L1443.4 377.536C1443.22 376.848 1443.23 376.124 1443.43 375.443C1443.64 374.762 1444.03 374.15 1444.56 373.676L1456.9 362.87C1457.55 362.383 1458.02 361.705 1458.26 360.933C1458.5 360.161 1458.49 359.333 1458.24 358.566C1457.98 357.799 1457.49 357.132 1456.84 356.659C1456.18 356.185 1455.39 355.93 1454.58 355.929L1438.38 354.383C1437.69 354.361 1437.02 354.127 1436.47 353.712C1435.92 353.297 1435.51 352.723 1435.29 352.066L1429.13 337.02C1428.8 336.323 1428.28 335.733 1427.63 335.32C1426.98 334.907 1426.23 334.688 1425.46 334.688C1424.69 334.688 1423.93 334.907 1423.28 335.32C1422.64 335.733 1422.12 336.323 1421.79 337.02L1415.62 352.453C1415.35 353.076 1414.93 353.617 1414.39 354.023C1413.85 354.429 1413.21 354.686 1412.54 354.767L1396.33 355.926C1395.58 356.032 1394.87 356.346 1394.28 356.833C1393.7 357.319 1393.26 357.959 1393.02 358.679C1392.78 359.4 1392.75 360.174 1392.92 360.913C1393.1 361.653 1393.47 362.329 1394.01 362.866L1406.36 373.673C1406.92 374.12 1407.34 374.729 1407.54 375.42C1407.75 376.11 1407.74 376.848 1407.52 377.532L1403.66 393.35C1403.46 394.099 1403.49 394.889 1403.75 395.618C1404.01 396.347 1404.48 396.982 1405.11 397.44C1405.73 397.897 1406.48 398.156 1407.25 398.184C1408.03 398.211 1408.79 398.005 1409.44 397.593L1423.33 389.104C1423.97 388.723 1424.71 388.522 1425.45 388.522C1426.2 388.522 1426.93 388.723 1427.58 389.104H1427.58V389.107Z" fill="white"/>
</g>
<rect x="1360" y="430" width="630" height="105" rx="15" fill="#4F545C" fill-opacity="0.16"/>
<path d="M1520.39 466.313C1520.56 466.313 1520.7 466.383 1520.81 466.523C1520.95 466.628 1521.02 466.768 1521.02 466.943V473.19C1521.02 473.365 1520.95 473.523 1520.81 473.663C1520.7 473.768 1520.56 473.82 1520.39 473.82H1511.2C1511.02 473.82 1510.94 473.908 1510.94 474.083V502.433C1510.94 502.608 1510.87 502.765 1510.73 502.905C1510.62 503.01 1510.48 503.063 1510.31 503.063H1502.85C1502.68 503.063 1502.52 503.01 1502.38 502.905C1502.27 502.765 1502.22 502.608 1502.22 502.433V474.083C1502.22 473.908 1502.13 473.82 1501.96 473.82H1493.09C1492.91 473.82 1492.75 473.768 1492.61 473.663C1492.51 473.523 1492.46 473.365 1492.46 473.19V466.943C1492.46 466.768 1492.51 466.628 1492.61 466.523C1492.75 466.383 1492.91 466.313 1493.09 466.313H1520.39ZM1539.7 475.5C1542.43 475.5 1544.67 476.375 1546.42 478.125C1548.17 479.84 1549.04 482.185 1549.04 485.16V502.433C1549.04 502.608 1548.97 502.765 1548.83 502.905C1548.73 503.01 1548.59 503.063 1548.41 503.063H1540.96C1540.78 503.063 1540.63 503.01 1540.49 502.905C1540.38 502.765 1540.33 502.608 1540.33 502.433V487.05C1540.33 485.86 1540 484.88 1539.33 484.11C1538.67 483.34 1537.81 482.955 1536.76 482.955C1535.67 482.955 1534.8 483.34 1534.13 484.11C1533.47 484.845 1533.14 485.825 1533.14 487.05V502.433C1533.14 502.608 1533.07 502.765 1532.93 502.905C1532.82 503.01 1532.68 503.063 1532.51 503.063H1525.05C1524.88 503.063 1524.72 503.01 1524.58 502.905C1524.47 502.765 1524.42 502.608 1524.42 502.433V466.943C1524.42 466.768 1524.47 466.628 1524.58 466.523C1524.72 466.383 1524.88 466.313 1525.05 466.313H1532.51C1532.68 466.313 1532.82 466.383 1532.93 466.523C1533.07 466.628 1533.14 466.768 1533.14 466.943V478.493C1533.14 478.633 1533.15 478.72 1533.19 478.755C1533.26 478.755 1533.33 478.703 1533.4 478.598C1534.73 476.533 1536.83 475.5 1539.7 475.5ZM1578.38 487.103C1578.56 488.153 1578.61 489.535 1578.54 491.25C1578.51 491.67 1578.28 491.88 1577.86 491.88H1561.85C1561.78 491.88 1561.71 491.915 1561.64 491.985C1561.57 492.02 1561.55 492.073 1561.58 492.143C1561.65 492.528 1561.83 493.035 1562.11 493.665C1562.53 494.4 1563.16 494.995 1564 495.45C1564.84 495.905 1565.87 496.133 1567.1 496.133C1569.3 496.133 1571.03 495.415 1572.29 493.98C1572.43 493.805 1572.59 493.718 1572.77 493.718C1572.94 493.718 1573.08 493.788 1573.19 493.928L1577.23 498.548C1577.37 498.653 1577.44 498.793 1577.44 498.968C1577.44 499.108 1577.37 499.248 1577.23 499.388C1576 500.718 1574.48 501.733 1572.66 502.433C1570.88 503.133 1568.92 503.483 1566.78 503.483C1563.6 503.483 1560.88 502.8 1558.64 501.435C1556.44 500.035 1554.85 498.093 1553.87 495.608C1553.13 493.858 1552.76 491.67 1552.76 489.045C1552.76 487.225 1553.04 485.475 1553.6 483.795C1554.51 481.205 1556 479.175 1558.07 477.705C1560.17 476.2 1562.65 475.448 1565.52 475.448C1567.83 475.448 1569.9 475.955 1571.72 476.97C1573.54 477.95 1575.01 479.333 1576.13 481.118C1577.28 482.868 1578.03 484.863 1578.38 487.103ZM1565.52 482.955C1563.7 482.955 1562.49 483.813 1561.9 485.528C1561.76 485.913 1561.67 486.28 1561.64 486.63C1561.57 486.805 1561.64 486.893 1561.85 486.893H1569.3C1569.44 486.893 1569.51 486.823 1569.51 486.683C1569.51 486.403 1569.44 486.053 1569.3 485.633C1569.06 484.758 1568.6 484.093 1567.94 483.638C1567.31 483.183 1566.5 482.955 1565.52 482.955ZM1613.28 475.5C1616.01 475.5 1618.15 476.34 1619.69 478.02C1621.23 479.7 1622 482.063 1622 485.108V502.433C1622 502.608 1621.93 502.765 1621.79 502.905C1621.68 503.01 1621.54 503.063 1621.37 503.063H1613.97C1613.79 503.063 1613.63 503.01 1613.49 502.905C1613.39 502.765 1613.34 502.608 1613.34 502.433V486.998C1613.34 485.808 1613.02 484.845 1612.39 484.11C1611.8 483.34 1610.99 482.955 1609.98 482.955C1608.96 482.955 1608.12 483.323 1607.46 484.058C1606.83 484.793 1606.51 485.773 1606.51 486.998V502.433C1606.51 502.608 1606.44 502.765 1606.3 502.905C1606.2 503.01 1606.06 503.063 1605.88 503.063H1598.43C1598.25 503.063 1598.09 503.01 1597.95 502.905C1597.85 502.765 1597.8 502.608 1597.8 502.433V486.998C1597.8 485.808 1597.46 484.845 1596.8 484.11C1596.17 483.34 1595.35 482.955 1594.33 482.955C1593.39 482.955 1592.6 483.253 1591.97 483.848C1591.34 484.443 1590.95 485.23 1590.81 486.21V502.433C1590.81 502.608 1590.74 502.765 1590.6 502.905C1590.5 503.01 1590.36 503.063 1590.18 503.063H1582.73C1582.55 503.063 1582.4 503.01 1582.26 502.905C1582.15 502.765 1582.1 502.608 1582.1 502.433V476.55C1582.1 476.375 1582.15 476.235 1582.26 476.13C1582.4 475.99 1582.55 475.92 1582.73 475.92H1590.18C1590.36 475.92 1590.5 475.99 1590.6 476.13C1590.74 476.235 1590.81 476.375 1590.81 476.55V478.913C1590.81 479.053 1590.85 479.14 1590.92 479.175C1590.99 479.175 1591.06 479.105 1591.13 478.965C1592.49 476.655 1594.73 475.5 1597.85 475.5C1599.6 475.5 1601.14 475.885 1602.47 476.655C1603.8 477.425 1604.81 478.545 1605.51 480.015C1605.62 480.225 1605.72 480.208 1605.83 479.963C1606.56 478.458 1607.56 477.338 1608.82 476.603C1610.12 475.868 1611.6 475.5 1613.28 475.5ZM1651.29 487.103C1651.46 488.153 1651.52 489.535 1651.45 491.25C1651.41 491.67 1651.18 491.88 1650.76 491.88H1634.75C1634.68 491.88 1634.61 491.915 1634.54 491.985C1634.47 492.02 1634.45 492.073 1634.49 492.143C1634.56 492.528 1634.73 493.035 1635.01 493.665C1635.43 494.4 1636.06 494.995 1636.9 495.45C1637.74 495.905 1638.78 496.133 1640 496.133C1642.21 496.133 1643.94 495.415 1645.2 493.98C1645.34 493.805 1645.5 493.718 1645.67 493.718C1645.85 493.718 1645.99 493.788 1646.09 493.928L1650.13 498.548C1650.27 498.653 1650.34 498.793 1650.34 498.968C1650.34 499.108 1650.27 499.248 1650.13 499.388C1648.91 500.718 1647.39 501.733 1645.57 502.433C1643.78 503.133 1641.82 503.483 1639.69 503.483C1636.5 503.483 1633.79 502.8 1631.55 501.435C1629.34 500.035 1627.75 498.093 1626.77 495.608C1626.04 493.858 1625.67 491.67 1625.67 489.045C1625.67 487.225 1625.95 485.475 1626.51 483.795C1627.42 481.205 1628.91 479.175 1630.97 477.705C1633.07 476.2 1635.56 475.448 1638.43 475.448C1640.74 475.448 1642.8 475.955 1644.62 476.97C1646.44 477.95 1647.91 479.333 1649.03 481.118C1650.19 482.868 1650.94 484.863 1651.29 487.103ZM1638.43 482.955C1636.61 482.955 1635.4 483.813 1634.8 485.528C1634.66 485.913 1634.58 486.28 1634.54 486.63C1634.47 486.805 1634.54 486.893 1634.75 486.893H1642.21C1642.35 486.893 1642.42 486.823 1642.42 486.683C1642.42 486.403 1642.35 486.053 1642.21 485.633C1641.96 484.758 1641.51 484.093 1640.84 483.638C1640.21 483.183 1639.41 482.955 1638.43 482.955Z" fill="#DCDDDE"/>
<g clip-path="url(#clip2_6_131)">
<path d="M1409.77 449.25C1408.86 449.247 1407.97 449.468 1407.18 449.893C1406.38 450.317 1405.7 450.933 1405.2 451.684L1401.23 457.672C1401.98 457.517 1402.74 457.444 1403.5 457.453C1404.53 457.462 1405.55 457.61 1406.54 457.891L1434.21 465.848L1438.23 467.024L1412.8 450.153C1411.9 449.559 1410.84 449.245 1409.77 449.25ZM1403.94 462.922C1402.69 462.821 1401.44 463.154 1400.4 463.867C1399.37 464.579 1398.61 465.626 1398.25 466.832L1396.64 472.301C1398.16 471.523 1399.85 471.12 1401.56 471.125H1432.68L1405.04 463.086C1404.68 462.995 1404.31 462.94 1403.94 462.922ZM1401.56 476.594C1400.11 476.594 1398.72 477.17 1397.7 478.196C1396.67 479.221 1396.09 480.612 1396.09 482.063V509.406C1396.09 510.857 1396.67 512.248 1397.7 513.273C1398.72 514.299 1400.11 514.875 1401.56 514.875H1450.78C1452.23 514.875 1453.62 514.299 1454.65 513.273C1455.67 512.248 1456.25 510.857 1456.25 509.406V482.063C1456.25 480.612 1455.67 479.221 1454.65 478.196C1453.62 477.17 1452.23 476.594 1450.78 476.594H1401.56ZM1442.58 482.063H1450.78V509.406H1442.58V482.063Z" fill="#DCDDDE"/>
</g>
<rect x="1389" y="559" width="572" height="4" rx="2" fill="white" fill-opacity="0.1"/>
<path d="M1519.86 629.7C1519.86 629.875 1519.79 630.032 1519.65 630.172C1519.55 630.277 1519.41 630.33 1519.23 630.33H1502.8C1502.62 630.33 1502.54 630.417 1502.54 630.592V637.05C1502.54 637.225 1502.62 637.312 1502.8 637.312H1513.35C1513.53 637.312 1513.67 637.382 1513.77 637.522C1513.91 637.627 1513.98 637.767 1513.98 637.942V644.085C1513.98 644.26 1513.91 644.417 1513.77 644.557C1513.67 644.662 1513.53 644.715 1513.35 644.715H1502.8C1502.62 644.715 1502.54 644.802 1502.54 644.977V658.995C1502.54 659.17 1502.47 659.327 1502.33 659.467C1502.22 659.572 1502.08 659.625 1501.91 659.625H1494.45C1494.28 659.625 1494.12 659.572 1493.98 659.467C1493.87 659.327 1493.82 659.17 1493.82 658.995V623.505C1493.82 623.33 1493.87 623.19 1493.98 623.085C1494.12 622.945 1494.28 622.875 1494.45 622.875H1519.23C1519.41 622.875 1519.55 622.945 1519.65 623.085C1519.79 623.19 1519.86 623.33 1519.86 623.505V629.7ZM1531.74 660.045C1528.59 660.045 1525.91 659.205 1523.7 657.525C1521.5 655.845 1520.03 653.57 1519.29 650.7C1518.87 649.265 1518.66 647.69 1518.66 645.975C1518.66 644.05 1518.89 642.352 1519.35 640.882C1520.15 638.117 1521.64 635.965 1523.81 634.425C1526.01 632.85 1528.67 632.062 1531.79 632.062C1534.87 632.062 1537.48 632.85 1539.61 634.425C1541.75 635.965 1543.23 638.1 1544.07 640.83C1544.56 642.405 1544.81 644.085 1544.81 645.87C1544.81 647.48 1544.62 649.02 1544.23 650.49C1543.5 653.43 1542.03 655.757 1539.82 657.472C1537.62 659.187 1534.92 660.045 1531.74 660.045ZM1531.74 652.59C1532.75 652.59 1533.59 652.275 1534.26 651.645C1534.92 650.98 1535.41 650.087 1535.73 648.967C1535.94 648.057 1536.04 647.06 1536.04 645.975C1536.04 644.925 1535.92 643.91 1535.67 642.93C1535.39 641.845 1534.92 641.005 1534.26 640.41C1533.59 639.815 1532.75 639.517 1531.74 639.517C1529.71 639.517 1528.38 640.655 1527.75 642.93C1527.54 643.77 1527.43 644.785 1527.43 645.975C1527.43 647.06 1527.54 648.057 1527.75 648.967C1528.03 650.087 1528.5 650.98 1529.16 651.645C1529.86 652.275 1530.72 652.59 1531.74 652.59ZM1563.01 632.115C1564.27 632.115 1565.25 632.342 1565.95 632.797C1566.23 632.972 1566.33 633.235 1566.26 633.585L1565.05 640.882C1565.02 641.302 1564.77 641.425 1564.32 641.25C1563.69 641.11 1563.09 641.04 1562.53 641.04C1561.94 641.04 1561.48 641.075 1561.17 641.145C1560.08 641.285 1559.16 641.705 1558.39 642.405C1557.65 643.105 1557.28 644.032 1557.28 645.187V658.995C1557.28 659.17 1557.21 659.327 1557.07 659.467C1556.97 659.572 1556.83 659.625 1556.65 659.625H1549.2C1549.02 659.625 1548.87 659.572 1548.73 659.467C1548.62 659.327 1548.57 659.17 1548.57 658.995V633.112C1548.57 632.937 1548.62 632.797 1548.73 632.692C1548.87 632.552 1549.02 632.482 1549.2 632.482H1556.65C1556.83 632.482 1556.97 632.552 1557.07 632.692C1557.21 632.797 1557.28 632.937 1557.28 633.112V634.792C1557.28 634.897 1557.32 634.967 1557.39 635.002C1557.46 635.037 1557.51 635.002 1557.55 634.897C1558.95 633.042 1560.77 632.115 1563.01 632.115ZM1580.53 659.625C1580.36 659.625 1580.2 659.572 1580.06 659.467C1579.96 659.327 1579.9 659.17 1579.9 658.995V623.505C1579.9 623.33 1579.96 623.19 1580.06 623.085C1580.2 622.945 1580.36 622.875 1580.53 622.875H1593.92C1596.65 622.875 1599.07 623.347 1601.17 624.292C1603.27 625.237 1604.89 626.585 1606.05 628.335C1607.2 630.085 1607.78 632.097 1607.78 634.372V648.127C1607.78 650.402 1607.2 652.415 1606.05 654.165C1604.89 655.915 1603.27 657.262 1601.17 658.207C1599.07 659.152 1596.65 659.625 1593.92 659.625H1580.53ZM1588.62 651.907C1588.62 652.082 1588.71 652.17 1588.88 652.17H1594.29C1595.69 652.17 1596.83 651.68 1597.7 650.7C1598.58 649.685 1599.03 648.337 1599.07 646.657V635.842C1599.07 634.162 1598.61 632.832 1597.7 631.852C1596.83 630.837 1595.67 630.33 1594.24 630.33H1588.88C1588.71 630.33 1588.62 630.417 1588.62 630.592V651.907ZM1616.51 630.067C1615.18 630.067 1614.07 629.647 1613.2 628.807C1612.36 627.932 1611.94 626.83 1611.94 625.5C1611.94 624.135 1612.36 623.032 1613.2 622.192C1614.07 621.352 1615.18 620.932 1616.51 620.932C1617.84 620.932 1618.92 621.352 1619.76 622.192C1620.64 623.032 1621.07 624.135 1621.07 625.5C1621.07 626.795 1620.64 627.88 1619.76 628.755C1618.92 629.63 1617.84 630.067 1616.51 630.067ZM1612.73 659.625C1612.55 659.625 1612.39 659.572 1612.25 659.467C1612.15 659.327 1612.1 659.17 1612.1 658.995V633.112C1612.1 632.937 1612.15 632.797 1612.25 632.692C1612.39 632.552 1612.55 632.482 1612.73 632.482H1620.18C1620.36 632.482 1620.5 632.552 1620.6 632.692C1620.74 632.797 1620.81 632.937 1620.81 633.112V658.995C1620.81 659.17 1620.74 659.327 1620.6 659.467C1620.5 659.572 1620.36 659.625 1620.18 659.625H1612.73ZM1636.87 660.045C1634.39 660.045 1632.22 659.712 1630.36 659.047C1628.51 658.347 1627.07 657.385 1626.06 656.16C1625.08 654.9 1624.59 653.465 1624.59 651.855V651.277C1624.59 651.102 1624.64 650.962 1624.74 650.857C1624.88 650.717 1625.04 650.647 1625.22 650.647H1632.3C1632.48 650.647 1632.62 650.717 1632.72 650.857C1632.86 650.962 1632.93 651.102 1632.93 651.277C1632.93 651.942 1633.3 652.502 1634.04 652.957C1634.77 653.377 1635.7 653.587 1636.82 653.587C1637.8 653.587 1638.57 653.43 1639.13 653.115C1639.72 652.765 1640.02 652.31 1640.02 651.75C1640.02 651.19 1639.71 650.787 1639.08 650.542C1638.48 650.262 1637.5 650 1636.14 649.755C1633.93 649.335 1632.15 648.827 1630.78 648.232C1629 647.497 1627.58 646.587 1626.53 645.502C1625.48 644.382 1624.95 642.86 1624.95 640.935C1624.95 638.205 1626 636.052 1628.1 634.477C1630.24 632.867 1633.04 632.062 1636.5 632.062C1638.85 632.062 1640.9 632.447 1642.65 633.217C1644.43 633.952 1645.81 635.002 1646.79 636.367C1647.77 637.732 1648.26 639.307 1648.26 641.092C1648.26 641.267 1648.19 641.425 1648.05 641.565C1647.95 641.67 1647.81 641.722 1647.63 641.722H1640.76C1640.58 641.722 1640.42 641.67 1640.28 641.565C1640.18 641.425 1640.13 641.267 1640.13 641.092C1640.13 640.427 1639.81 639.885 1639.18 639.465C1638.55 639.045 1637.69 638.835 1636.61 638.835C1635.63 638.835 1634.82 639.01 1634.19 639.36C1633.6 639.675 1633.3 640.13 1633.3 640.725C1633.3 641.32 1633.63 641.757 1634.3 642.037C1634.96 642.282 1636.08 642.562 1637.66 642.877C1639.69 643.297 1641.11 643.63 1641.91 643.875C1644.08 644.575 1645.76 645.52 1646.95 646.71C1648.18 647.9 1648.79 649.492 1648.79 651.487C1648.79 654.217 1647.7 656.335 1645.53 657.84C1643.4 659.31 1640.51 660.045 1636.87 660.045ZM1664.63 660.045C1661.76 660.045 1659.24 659.327 1657.07 657.892C1654.93 656.457 1653.41 654.48 1652.5 651.96C1651.84 650.28 1651.5 648.267 1651.5 645.922C1651.5 643.577 1651.84 641.565 1652.5 639.885C1653.38 637.435 1654.9 635.527 1657.07 634.162C1659.24 632.762 1661.76 632.062 1664.63 632.062C1667.53 632.062 1670.09 632.78 1672.29 634.215C1674.5 635.65 1675.99 637.47 1676.76 639.675C1677 640.305 1677.16 640.987 1677.23 641.722C1677.23 642.107 1677.04 642.335 1676.65 642.405L1669.35 643.507H1669.25C1668.93 643.507 1668.72 643.332 1668.62 642.982L1668.51 642.51C1668.44 642.23 1668.37 641.985 1668.3 641.775C1667.99 641.11 1667.5 640.567 1666.83 640.147C1666.2 639.727 1665.45 639.517 1664.58 639.517C1662.72 639.517 1661.5 640.34 1660.9 641.985C1660.52 642.965 1660.32 644.295 1660.32 645.975C1660.32 647.48 1660.5 648.792 1660.85 649.912C1661.51 651.697 1662.76 652.59 1664.58 652.59C1665.49 652.59 1666.27 652.362 1666.94 651.907C1667.6 651.417 1668.08 650.735 1668.36 649.86C1668.39 649.79 1668.41 649.685 1668.41 649.545C1668.44 649.51 1668.46 649.44 1668.46 649.335C1668.57 648.915 1668.81 648.74 1669.2 648.81L1676.55 649.965C1676.9 650.035 1677.07 650.227 1677.07 650.542C1677.07 651.067 1676.97 651.645 1676.76 652.275C1675.92 654.725 1674.39 656.632 1672.19 657.997C1670.02 659.362 1667.5 660.045 1664.63 660.045ZM1692.72 660.045C1689.57 660.045 1686.9 659.205 1684.69 657.525C1682.49 655.845 1681.02 653.57 1680.28 650.7C1679.86 649.265 1679.65 647.69 1679.65 645.975C1679.65 644.05 1679.88 642.352 1680.33 640.882C1681.14 638.117 1682.63 635.965 1684.8 634.425C1687 632.85 1689.66 632.062 1692.78 632.062C1695.86 632.062 1698.46 632.85 1700.6 634.425C1702.73 635.965 1704.22 638.1 1705.06 640.83C1705.55 642.405 1705.8 644.085 1705.8 645.87C1705.8 647.48 1705.6 649.02 1705.22 650.49C1704.48 653.43 1703.01 655.757 1700.81 657.472C1698.6 659.187 1695.91 660.045 1692.72 660.045ZM1692.72 652.59C1693.74 652.59 1694.58 652.275 1695.24 651.645C1695.91 650.98 1696.4 650.087 1696.71 648.967C1696.92 648.057 1697.03 647.06 1697.03 645.975C1697.03 644.925 1696.91 643.91 1696.66 642.93C1696.38 641.845 1695.91 641.005 1695.24 640.41C1694.58 639.815 1693.74 639.517 1692.72 639.517C1690.69 639.517 1689.36 640.655 1688.73 642.93C1688.52 643.77 1688.42 644.785 1688.42 645.975C1688.42 647.06 1688.52 648.057 1688.73 648.967C1689.01 650.087 1689.49 650.98 1690.15 651.645C1690.85 652.275 1691.71 652.59 1692.72 652.59ZM1723.99 632.115C1725.25 632.115 1726.23 632.342 1726.93 632.797C1727.21 632.972 1727.32 633.235 1727.25 633.585L1726.04 640.882C1726.01 641.302 1725.76 641.425 1725.31 641.25C1724.68 641.11 1724.08 641.04 1723.52 641.04C1722.93 641.04 1722.47 641.075 1722.16 641.145C1721.07 641.285 1720.14 641.705 1719.37 642.405C1718.64 643.105 1718.27 644.032 1718.27 645.187V658.995C1718.27 659.17 1718.2 659.327 1718.06 659.467C1717.96 659.572 1717.82 659.625 1717.64 659.625H1710.19C1710.01 659.625 1709.85 659.572 1709.71 659.467C1709.61 659.327 1709.56 659.17 1709.56 658.995V633.112C1709.56 632.937 1709.61 632.797 1709.71 632.692C1709.85 632.552 1710.01 632.482 1710.19 632.482H1717.64C1717.82 632.482 1717.96 632.552 1718.06 632.692C1718.2 632.797 1718.27 632.937 1718.27 633.112V634.792C1718.27 634.897 1718.31 634.967 1718.38 635.002C1718.45 635.037 1718.5 635.002 1718.53 634.897C1719.93 633.042 1721.75 632.115 1723.99 632.115ZM1745.99 623.505C1745.99 623.33 1746.04 623.19 1746.15 623.085C1746.29 622.945 1746.45 622.875 1746.62 622.875H1754.08C1754.25 622.875 1754.39 622.945 1754.5 623.085C1754.64 623.19 1754.71 623.33 1754.71 623.505V658.995C1754.71 659.17 1754.64 659.327 1754.5 659.467C1754.39 659.572 1754.25 659.625 1754.08 659.625H1746.62C1746.45 659.625 1746.29 659.572 1746.15 659.467C1746.04 659.327 1745.99 659.17 1745.99 658.995V657.262C1745.99 657.157 1745.96 657.105 1745.89 657.105C1745.82 657.07 1745.75 657.087 1745.68 657.157C1744.28 659.082 1742.26 660.045 1739.64 660.045C1737.26 660.045 1735.14 659.327 1733.29 657.892C1731.47 656.457 1730.17 654.497 1729.4 652.012C1728.84 650.122 1728.56 648.092 1728.56 645.922C1728.56 643.472 1728.93 641.267 1729.66 639.307C1730.47 637.137 1731.75 635.387 1733.5 634.057C1735.28 632.727 1737.43 632.062 1739.95 632.062C1742.47 632.062 1744.38 632.885 1745.68 634.53C1745.75 634.635 1745.82 634.67 1745.89 634.635C1745.96 634.6 1745.99 634.53 1745.99 634.425V623.505ZM1745.1 650.542C1745.69 649.422 1745.99 647.935 1745.99 646.08C1745.99 644.05 1745.66 642.475 1744.99 641.355C1744.26 640.13 1743.23 639.517 1741.9 639.517C1740.46 639.517 1739.39 640.147 1738.69 641.407C1737.99 642.597 1737.64 644.155 1737.64 646.08C1737.64 647.935 1737.96 649.44 1738.59 650.595C1739.32 651.925 1740.43 652.59 1741.9 652.59C1743.3 652.59 1744.36 651.907 1745.1 650.542Z" fill="#DCDDDE"/>
<g clip-path="url(#clip3_6_131)">
<path d="M1448.4 617.065C1444.16 615.077 1439.61 613.633 1434.86 612.81C1434.28 613.865 1433.6 615.283 1433.13 616.411C1428.08 615.652 1423.08 615.652 1418.12 616.411C1417.65 615.283 1416.96 613.865 1416.37 612.81C1411.62 613.633 1407.07 615.082 1402.82 617.075C1394.25 630.024 1391.93 642.651 1393.09 655.099C1398.77 659.343 1404.28 661.922 1409.69 663.609C1411.03 661.769 1412.22 659.813 1413.25 657.751C1411.3 657.008 1409.42 656.09 1407.65 655.025C1408.12 654.677 1408.58 654.314 1409.02 653.939C1419.82 658.99 1431.56 658.99 1442.23 653.939C1442.68 654.314 1443.13 654.677 1443.6 655.025C1441.82 656.096 1439.94 657.013 1437.99 657.757C1439.02 659.813 1440.2 661.774 1441.54 663.614C1446.96 661.927 1452.48 659.349 1458.16 655.099C1459.52 640.669 1455.83 628.158 1448.4 617.065ZM1414.72 647.444C1411.48 647.444 1408.82 644.418 1408.82 640.732C1408.82 637.047 1411.42 634.015 1414.72 634.015C1418.02 634.015 1420.68 637.042 1420.62 640.732C1420.63 644.418 1418.02 647.444 1414.72 647.444ZM1436.53 647.444C1433.29 647.444 1430.63 644.418 1430.63 640.732C1430.63 637.047 1433.23 634.015 1436.53 634.015C1439.83 634.015 1442.48 637.042 1442.43 640.732C1442.43 644.418 1439.83 647.444 1436.53 647.444Z" fill="#DCDDDE"/>
</g>
<path d="M1516.76 755.515C1516.55 755.62 1516.55 755.725 1516.76 755.83C1519.95 757.51 1521.54 760.31 1521.54 764.23C1521.54 767.73 1520.33 770.337 1517.92 772.052C1515.5 773.767 1512.34 774.625 1508.42 774.625H1494.45C1494.28 774.625 1494.12 774.572 1493.98 774.467C1493.87 774.327 1493.82 774.17 1493.82 773.995V738.505C1493.82 738.33 1493.87 738.19 1493.98 738.085C1494.12 737.945 1494.28 737.875 1494.45 737.875H1508C1512.27 737.875 1515.49 738.68 1517.66 740.29C1519.86 741.9 1520.96 744.507 1520.96 748.112C1520.96 751.542 1519.56 754.01 1516.76 755.515ZM1502.8 745.33C1502.62 745.33 1502.54 745.417 1502.54 745.592V752.207C1502.54 752.382 1502.62 752.47 1502.8 752.47H1508C1509.43 752.47 1510.53 752.172 1511.3 751.577C1512.07 750.947 1512.46 750.072 1512.46 748.952C1512.46 747.797 1512.07 746.905 1511.3 746.275C1510.53 745.645 1509.43 745.33 1508 745.33H1502.8ZM1508.42 767.117C1509.82 767.117 1510.9 766.802 1511.67 766.172C1512.44 765.507 1512.83 764.562 1512.83 763.337C1512.83 762.147 1512.44 761.237 1511.67 760.607C1510.94 759.942 1509.85 759.61 1508.42 759.61H1502.8C1502.62 759.61 1502.54 759.697 1502.54 759.872V766.855C1502.54 767.03 1502.62 767.117 1502.8 767.117H1508.42ZM1526.07 785.072C1525.96 785.072 1525.88 785.002 1525.81 784.862C1525.74 784.757 1525.7 784.617 1525.7 784.442V778.562C1525.7 778.142 1525.89 777.932 1526.28 777.932C1528.52 777.932 1530.13 777.722 1531.11 777.302C1532.09 776.882 1532.68 776.042 1532.89 774.782C1532.93 774.712 1532.93 774.607 1532.89 774.467L1524.44 748.165C1524.41 748.095 1524.39 748.007 1524.39 747.902C1524.39 747.587 1524.58 747.43 1524.97 747.43H1532.89C1533.24 747.43 1533.47 747.605 1533.58 747.955L1537.2 763.495C1537.23 763.635 1537.29 763.705 1537.36 763.705C1537.43 763.705 1537.48 763.635 1537.51 763.495L1541.14 747.955C1541.24 747.605 1541.47 747.43 1541.82 747.43H1549.59C1549.8 747.43 1549.96 747.5 1550.06 747.64C1550.17 747.745 1550.18 747.92 1550.11 748.165L1541.24 775.15C1540.37 777.775 1539.44 779.752 1538.46 781.082C1537.51 782.447 1536.11 783.445 1534.26 784.075C1532.44 784.74 1529.83 785.072 1526.44 785.072H1526.07ZM1574.93 747.062C1577.28 747.062 1579.39 747.465 1581.28 748.27C1583.17 749.04 1584.66 750.125 1585.75 751.525C1586.83 752.89 1587.37 754.412 1587.37 756.092V773.995C1587.37 774.17 1587.3 774.327 1587.16 774.467C1587.06 774.572 1586.92 774.625 1586.74 774.625H1579.29C1579.11 774.625 1578.96 774.572 1578.82 774.467C1578.71 774.327 1578.66 774.17 1578.66 773.995V772.157C1578.66 772.017 1578.62 771.947 1578.55 771.947C1578.48 771.912 1578.41 771.965 1578.34 772.105C1577.01 774.065 1574.74 775.045 1571.52 775.045C1568.72 775.045 1566.48 774.397 1564.8 773.102C1563.15 771.772 1562.33 769.83 1562.33 767.275C1562.33 764.58 1563.26 762.497 1565.11 761.027C1567 759.557 1569.73 758.822 1573.3 758.822H1578.4C1578.57 758.822 1578.66 758.735 1578.66 758.56V757.562C1578.66 756.617 1578.34 755.882 1577.71 755.357C1577.08 754.797 1576.21 754.517 1575.09 754.517C1574.25 754.517 1573.51 754.675 1572.88 754.99C1572.29 755.305 1571.9 755.707 1571.73 756.197C1571.55 756.582 1571.31 756.757 1570.99 756.722L1563.43 755.725C1563.01 755.655 1562.8 755.497 1562.8 755.252C1562.94 753.712 1563.54 752.33 1564.59 751.105C1565.67 749.845 1567.11 748.865 1568.89 748.165C1570.71 747.43 1572.73 747.062 1574.93 747.062ZM1574.09 768.797C1575.42 768.797 1576.51 768.465 1577.35 767.8C1578.22 767.1 1578.66 766.19 1578.66 765.07V763.81C1578.66 763.635 1578.57 763.547 1578.4 763.547H1575.25C1573.92 763.547 1572.88 763.775 1572.15 764.23C1571.45 764.685 1571.1 765.367 1571.1 766.277C1571.1 767.047 1571.36 767.66 1571.89 768.115C1572.41 768.57 1573.15 768.797 1574.09 768.797ZM1616.83 758.665C1617.01 759.715 1617.06 761.097 1616.99 762.812C1616.96 763.232 1616.73 763.442 1616.31 763.442H1600.3C1600.23 763.442 1600.16 763.477 1600.09 763.547C1600.02 763.582 1600 763.635 1600.03 763.705C1600.1 764.09 1600.28 764.597 1600.56 765.227C1600.98 765.962 1601.61 766.557 1602.45 767.012C1603.29 767.467 1604.32 767.695 1605.55 767.695C1607.75 767.695 1609.48 766.977 1610.74 765.542C1610.88 765.367 1611.04 765.28 1611.22 765.28C1611.39 765.28 1611.53 765.35 1611.64 765.49L1615.68 770.11C1615.82 770.215 1615.89 770.355 1615.89 770.53C1615.89 770.67 1615.82 770.81 1615.68 770.95C1614.45 772.28 1612.93 773.295 1611.11 773.995C1609.33 774.695 1607.37 775.045 1605.23 775.045C1602.05 775.045 1599.33 774.362 1597.09 772.997C1594.89 771.597 1593.3 769.655 1592.32 767.17C1591.58 765.42 1591.21 763.232 1591.21 760.607C1591.21 758.787 1591.49 757.037 1592.05 755.357C1592.96 752.767 1594.45 750.737 1596.52 749.267C1598.62 747.762 1601.1 747.01 1603.97 747.01C1606.28 747.01 1608.35 747.517 1610.17 748.532C1611.99 749.512 1613.46 750.895 1614.58 752.68C1615.73 754.43 1616.48 756.425 1616.83 758.665ZM1603.97 754.517C1602.15 754.517 1600.94 755.375 1600.35 757.09C1600.21 757.475 1600.12 757.842 1600.09 758.192C1600.02 758.367 1600.09 758.455 1600.3 758.455H1607.75C1607.89 758.455 1607.96 758.385 1607.96 758.245C1607.96 757.965 1607.89 757.615 1607.75 757.195C1607.51 756.32 1607.05 755.655 1606.39 755.2C1605.76 754.745 1604.95 754.517 1603.97 754.517ZM1635.83 747.062C1638.56 747.062 1640.8 747.937 1642.55 749.687C1644.3 751.402 1645.17 753.747 1645.17 756.722V773.995C1645.17 774.17 1645.1 774.327 1644.96 774.467C1644.86 774.572 1644.72 774.625 1644.54 774.625H1637.09C1636.91 774.625 1636.76 774.572 1636.62 774.467C1636.51 774.327 1636.46 774.17 1636.46 773.995V758.612C1636.46 757.422 1636.13 756.442 1635.46 755.672C1634.8 754.902 1633.94 754.517 1632.89 754.517C1631.8 754.517 1630.93 754.902 1630.26 755.672C1629.6 756.407 1629.27 757.387 1629.27 758.612V773.995C1629.27 774.17 1629.2 774.327 1629.06 774.467C1628.95 774.572 1628.81 774.625 1628.64 774.625H1621.18C1621.01 774.625 1620.85 774.572 1620.71 774.467C1620.6 774.327 1620.55 774.17 1620.55 773.995V748.112C1620.55 747.937 1620.6 747.797 1620.71 747.692C1620.85 747.552 1621.01 747.482 1621.18 747.482H1628.64C1628.81 747.482 1628.95 747.552 1629.06 747.692C1629.2 747.797 1629.27 747.937 1629.27 748.112V750.055C1629.27 750.195 1629.28 750.282 1629.32 750.317C1629.39 750.317 1629.46 750.265 1629.53 750.16C1630.86 748.095 1632.96 747.062 1635.83 747.062ZM1661.81 775.045C1658.66 775.045 1655.98 774.205 1653.78 772.525C1651.57 770.845 1650.1 768.57 1649.37 765.7C1648.95 764.265 1648.74 762.69 1648.74 760.975C1648.74 759.05 1648.96 757.352 1649.42 755.882C1650.22 753.117 1651.71 750.965 1653.88 749.425C1656.09 747.85 1658.75 747.062 1661.86 747.062C1664.94 747.062 1667.55 747.85 1669.68 749.425C1671.82 750.965 1673.31 753.1 1674.15 755.83C1674.64 757.405 1674.88 759.085 1674.88 760.87C1674.88 762.48 1674.69 764.02 1674.3 765.49C1673.57 768.43 1672.1 770.757 1669.89 772.472C1667.69 774.187 1664.99 775.045 1661.81 775.045ZM1661.81 767.59C1662.82 767.59 1663.66 767.275 1664.33 766.645C1664.99 765.98 1665.48 765.087 1665.8 763.967C1666.01 763.057 1666.11 762.06 1666.11 760.975C1666.11 759.925 1665.99 758.91 1665.75 757.93C1665.47 756.845 1664.99 756.005 1664.33 755.41C1663.66 754.815 1662.82 754.517 1661.81 754.517C1659.78 754.517 1658.45 755.655 1657.82 757.93C1657.61 758.77 1657.5 759.785 1657.5 760.975C1657.5 762.06 1657.61 763.057 1657.82 763.967C1658.1 765.087 1658.57 765.98 1659.24 766.645C1659.94 767.275 1660.79 767.59 1661.81 767.59Z" fill="#DCDDDE"/>
<path d="M1425.81 755.003C1434.88 755.003 1442.22 747.657 1442.22 738.595C1442.22 729.534 1434.88 722.188 1425.81 722.188C1416.75 722.188 1409.41 729.534 1409.41 738.595C1409.41 747.657 1416.75 755.003 1425.81 755.003Z" fill="#DCDDDE"/>
<path d="M1458.63 779.614V787.818H1393V779.614C1393.07 778.124 1393.47 776.669 1394.18 775.357C1394.89 774.045 1395.89 772.911 1397.1 772.039C1403.94 766.16 1417.8 763.207 1425.81 763.207C1433.83 763.207 1447.69 766.16 1454.53 772.039C1455.74 772.911 1456.74 774.045 1457.45 775.357C1458.16 776.669 1458.56 778.124 1458.63 779.614Z" fill="#DCDDDE"/>
<defs>
<clipPath id="clip0_6_131">
<rect x="325" y="230" width="800" height="800" rx="100" fill="white"/>
</clipPath>
<clipPath id="clip1_6_131">
<rect width="65.625" height="65.625" fill="white" transform="translate(1392.81 334.688)"/>
</clipPath>
<clipPath id="clip2_6_131">
<rect width="65.625" height="65.625" fill="white" transform="translate(1392.81 449.25)"/>
</clipPath>
<clipPath id="clip3_6_131">
<rect width="65.63" height="65.63" fill="white" transform="translate(1392.81 605.81)"/>
</clipPath>
</defs>
</svg>
