<svg width="100" height="100" fill="none" xmlns="http://www.w3.org/2000/svg">
<g clip-path="url(#prefix__clip0_209_6)">
    <path fill="#2F3136" d="M0 0h100v100H0z"/>
    <g clip-path="url(#prefix__clip1_209_6)">
        <path d="M3.49 2.4L1.723 1.175a.68.68 0 01-.285-.6V0a7.21 7.21 0 00-.041-.725.705.705 0 01.285-.608l1.784-1.242a.663.663 0 00.196-.833L1.697-7a.654.654 0 00-.358-.29.638.638 0 00-.457.023L-1.21-6.242a.624.624 0 01-.627 0 8.1 8.1 0 00-.864-.5.668.668 0 01-.358-.542l-.139-2.1a.673.673 0 00-.207-.439A.644.644 0 00-3.85-10h-3.976a.645.645 0 00-.424.188.673.673 0 00-.195.429l-.18 2.075a.643.643 0 01-.108.323.622.622 0 01-.258.218 7.029 7.029 0 00-.961.575.664.664 0 01-.668 0l-2.232-1.075a.638.638 0 00-.456-.022.655.655 0 00-.359.289l-2.02 3.542a.671.671 0 00.196.883l2.093 1.458a.662.662 0 01.277.6v.884a.696.696 0 01-.293.6L-15.49 2.4a.688.688 0 00-.196.933l1.988 3.5a.638.638 0 00.815.267l2.11-1.05a.624.624 0 01.675.067c.338.244.695.459 1.068.641a.68.68 0 01.263.228.701.701 0 01.12.33l.203 2.067a.673.673 0 00.207.44c.121.114.28.178.445.177h3.975a.644.644 0 00.444-.177.673.673 0 00.208-.44l.138-2.075a.651.651 0 01.114-.324.63.63 0 01.261-.217c.335-.166.656-.358.961-.575a.643.643 0 01.644-.059l1.93.967a.638.638 0 00.457.022.654.654 0 00.358-.289l1.988-3.5A.688.688 0 003.49 2.4zM-6 3.667a3.527 3.527 0 01-1.996-.61 3.65 3.65 0 01-1.327-1.642 3.745 3.745 0 01-.21-2.12 3.694 3.694 0 01.976-1.882 3.56 3.56 0 011.835-1.008 3.51 3.51 0 012.074.206 3.603 3.603 0 011.61 1.35c.395.604.606 1.313.606 2.039.001.48-.09.956-.27 1.4a3.666 3.666 0 01-.772 1.19c-.331.34-.725.61-1.158.795-.434.185-.898.28-1.368.282z" fill="#B9BBBE"/>
    </g>
    <g clip-path="url(#prefix__clip2_209_6)">
        <path d="M22-10a10 10 0 100 20 10 10 0 000-20zm-4 4a2 2 0 11-2 2 2.008 2.008 0 012-2zm10 8c0 2.617-2.858 5-6 5s-6-2.383-6-5V1h12v1zm-2-4a2 2 0 110-4 2 2 0 010 4z" fill="#B9BBBE"/>
    </g>
    <g clip-path="url(#prefix__clip3_209_6)">
        <path d="M46-7.083L40 0l6 7.083 2.5-2.5L44.583 0 48.5-4.583l-2.5-2.5zm8 0l-2.5 2.5L55.417 0 51.5 4.583l2.5 2.5L60 0l-6-7.083z" fill="#B9BBBE"/>
    </g>
    <g clip-path="url(#prefix__clip4_209_6)">
        <path d="M85.674-.508h-1.433V-4.33a1.916 1.916 0 00-1.91-1.911h-3.823v-1.433a2.39 2.39 0 00-4.777 0v1.433h-3.82a1.908 1.908 0 00-1.903 1.91V-.7h1.424a2.58 2.58 0 011.824 4.403 2.58 2.58 0 01-1.823.756H68v3.63A1.916 1.916 0 0069.91 10h3.631V8.567a2.58 2.58 0 014.403-1.824 2.58 2.58 0 01.756 1.824V10h3.63a1.916 1.916 0 001.911-1.91V4.267h1.433a2.389 2.389 0 000-4.776z" fill="#B9BBBE"/>
    </g>
    <g clip-path="url(#prefix__clip5_209_6)">
        <path d="M101-10a1.667 1.667 0 00-1.391.742L98.4-7.433c.228-.048.46-.07.692-.067.313.003.624.048.925.133l8.433 2.425 1.225.359-7.75-5.142A1.665 1.665 0 00101-10zm-1.775 4.167a1.667 1.667 0 00-1.733 1.191L97-2.975c.465-.237.979-.36 1.5-.358h9.483l-8.425-2.45a1.666 1.666 0 00-.333-.05zM98.5-1.667A1.666 1.666 0 0096.834 0v8.333A1.667 1.667 0 0098.5 10h15a1.669 1.669 0 001.667-1.667V0a1.669 1.669 0 00-1.667-1.667h-15zM111 0h2.5v8.333H111V0z" fill="#B9BBBE"/>
    </g>
    <g clip-path="url(#prefix__clip6_209_6)" fill="#B9BBBE">
        <path d="M8 25a5 5 0 100-10 5 5 0 000 10zM18 32.5V35H-2v-2.5a3.017 3.017 0 011.25-2.308C1.333 28.4 5.558 27.5 8 27.5s6.667.9 8.75 2.692A3.016 3.016 0 0118 32.5z"/>
    </g>
    <g clip-path="url(#prefix__clip7_209_6)">
        <path fill-rule="evenodd" clip-rule="evenodd" d="M44.097 22.582l.724-.715A4.022 4.022 0 0041.983 15a4.019 4.019 0 00-2.843 1.176l-.723.724 5.68 5.682zm-7.094-4.251l-8.55 8.536 5.68 5.683 8.533-8.562-5.663-5.657zm-9.731 16.64l5.148-1.281-5.073-5.076-1.314 5.117a.981.981 0 00.258.949 1.015 1.015 0 00.98.29z" fill="#B9BBBE"/>
    </g>
    <g clip-path="url(#prefix__clip8_209_6)">
        <path d="M70.967 19.016c-3.412 0-6.12-3.559-6.12-3.6A1.036 1.036 0 0064.02 15a1.027 1.027 0 00-.826.416s-2.71 3.6-6.12 3.6a.985.985 0 00-.921.628 1.004 1.004 0 00-.07.386v6.993c0 3.8 6.706 7.483 7.433 7.874.155.08.33.114.504.1.16-.002.319-.042.462-.117.768-.399 7.433-4.074 7.433-7.874V20.03a1.001 1.001 0 00-.27-.702.989.989 0 00-.68-.312zm-3.973 9.978l-2.973-1.988-2.974 1.996.991-2.993-1.99-1.996h2.981l.992-3.002.99 3.002h2.982l-1.99 1.996.99 2.985z" fill="#B9BBBE"/>
    </g>
    <g clip-path="url(#prefix__clip9_209_6)">
        <path d="M90.677 33.935a4.189 4.189 0 01-2.346-1.047 4.157 4.157 0 01-1.286-2.217c-.233-1.137-.023-2.247.608-3.195a4.176 4.176 0 012.6-1.759c2.01-.41 3.954.598 4.745 2.46.038.087.075.178.083.2.013.037.199.04 3.466.04H102v2.704h-1.128v2.748h-3.014v-2.748h-2.74l-.021.052c-.199.48-.288.655-.474.935a4.175 4.175 0 01-2.601 1.759 4.46 4.46 0 01-1.345.07v-.002zm.791-2.712a1.545 1.545 0 001.124-.996c.067-.206.083-.623.033-.827a1.503 1.503 0 00-1.087-1.098 1.613 1.613 0 00-.964.063c-.586.247-.969.862-.925 1.483a1.5 1.5 0 00.595 1.1 1.515 1.515 0 001.224.275zm-7.97-.137a1.843 1.843 0 01-1.47-1.516c-.037-.233-.037-11.327 0-11.56.061-.383.243-.736.517-1.01.275-.274.63-.454 1.013-.517.12-.018 2.274-.025 7.667-.025 6.375 0 7.528.005 7.67.033.778.149 1.372.754 1.491 1.518.018.116.025 1.54.025 4.909v4.743H98.35l.053-.158c.127-.378.124-.282.118-3.922l-.007-3.355-.06-.22a2.308 2.308 0 00-1.649-1.642l-.224-.062H85.74l-.223.062a2.322 2.322 0 00-1.658 1.682l-.052.204v6.85l.052.203a2.294 2.294 0 001.675 1.685l.094.025-.01.452a5.651 5.651 0 00.168 1.593l.017.063-1.079-.003c-.792-.002-1.117-.01-1.227-.032zm2.048-6.89c0-2.395.006-2.848.034-2.984.108-.516.54-.946 1.058-1.054.243-.05 8.849-.05 9.091 0 .518.108.95.538 1.058 1.054.029.136.034.589.035 2.984v2.823h-.682l-.054-.097a5.932 5.932 0 00-1.209-1.484c-.796-.705-1.86-1.176-3.003-1.33a8.065 8.065 0 00-1.358 0 5.996 5.996 0 00-1.652.467 5.562 5.562 0 00-.972.566c-.03.019-.152.116-.274.216-.4.331-.775.742-1.036 1.136l-.184.275c-.033.05-.063.102-.09.155l-.05.096h-.712v-2.823z" fill="#B9BBBE"/>
    </g>
    <g clip-path="url(#prefix__clip10_209_6)">
        <path d="M-4.9 58.316a8.598 8.598 0 01-1.726-.3 5.547 5.547 0 01-.61-.199.31.31 0 01-.075-.025l-.114-.05a.322.322 0 00-.073-.025.346.346 0 01-.081-.032 6.335 6.335 0 00-.156-.073 6.8 6.8 0 01-.558-.27 3.533 3.533 0 01-.284-.16 1.609 1.609 0 01-.15-.091 1.06 1.06 0 00-.141-.086.634.634 0 01-.086-.058.331.331 0 00-.072-.047 1.29 1.29 0 01-.142-.1.877.877 0 00-.15-.1c-.009 0-.017-.007-.017-.015a.674.674 0 00-.133-.111.724.724 0 01-.134-.11c0-.009-.008-.014-.016-.014-.01 0-.04-.023-.067-.05a.282.282 0 00-.058-.05 8.722 8.722 0 01-.897-.886.274.274 0 01-.045-.059.287.287 0 00-.05-.056c-.028-.028-.05-.057-.05-.067 0-.01-.007-.017-.014-.017a.73.73 0 01-.11-.133.689.689 0 00-.111-.134c-.008 0-.015-.008-.015-.018a.88.88 0 00-.1-.148 1.25 1.25 0 01-.1-.143.334.334 0 00-.046-.072.857.857 0 01-.1-.152.613.613 0 00-.045-.075 1.352 1.352 0 01-.092-.15 3.54 3.54 0 01-.158-.284 6.78 6.78 0 01-.27-.559 6.033 6.033 0 00-.074-.157.353.353 0 01-.032-.08.35.35 0 00-.027-.078c-.065-.146-.073-.167-.073-.184a.127.127 0 00-.016-.048c-.046-.082-.222-.677-.292-.988-.05-.222-.134-.708-.151-.872l-.012-.112-.436-.001c-.491-.001-.583-.015-.75-.116a.808.808 0 01.012-1.391c.158-.094.267-.11.742-.11h.415l.02-.188c.04-.365.164-1.02.242-1.272a.678.678 0 00.025-.104c0-.017-.293-.022-1.412-.022-1.205 0-1.428-.004-1.52-.025a.93.93 0 01-.692-.692.927.927 0 01.692-1.108c.092-.022.357-.024 1.909-.024 1.696 0 1.803-.003 1.828-.03a.296.296 0 00.035-.055c.015-.031.044-.079.086-.142a1.02 1.02 0 00.086-.141.624.624 0 01.058-.086.33.33 0 00.048-.072c0-.006.045-.07.1-.142.055-.073.1-.14.1-.15 0-.009.007-.017.015-.017a.71.71 0 00.11-.133.734.734 0 01.11-.133c.01 0 .015-.009.015-.019 0-.008.022-.039.05-.066a.283.283 0 00.05-.057.276.276 0 01.046-.057l.146-.16.121-.135c.018-.02-.194-.023-1.408-.028l-1.431-.005-.117-.04a1.234 1.234 0 01-.533-.327 1.202 1.202 0 01-.327-.543.974.974 0 01-.039-.342c0-.18.007-.238.039-.342.07-.228.16-.376.327-.542.157-.159.288-.242.488-.31.235-.082.116-.08 5.013-.084 4.558-.002 4.688 0 5.1.053.197.025.582.093.797.141.305.07.901.246.983.292a.138.138 0 00.047.016c.01 0 .045.011.075.025l.114.05a.353.353 0 00.073.025c.01 0 .046.014.08.032l.157.073c.19.082.376.172.558.27.097.049.191.102.283.159.048.025.094.053.15.092.078.051.115.074.142.086.03.017.059.036.086.058a.376.376 0 00.072.047c.006 0 .07.046.142.1.073.056.14.1.15.1.008 0 .017.007.017.016 0 .008.06.058.133.11a.763.763 0 01.133.11c0 .009.009.015.018.015.01 0 .04.022.067.05.016.019.035.036.056.05.021.013.04.028.057.046l.16.146c.24.218.467.45.68.694a.275.275 0 01.047.057c.013.022.03.041.05.059.027.025.05.055.05.065 0 .01.005.017.013.017s.058.06.11.134a.696.696 0 00.112.133c.008 0 .015.008.015.017 0 .01.045.077.1.15.055.072.1.137.1.142 0 .006.02.039.045.072a.84.84 0 01.099.153.607.607 0 00.046.075c.037.054.065.098.092.15.057.092.11.187.158.284.1.181.19.368.271.558.023.05.056.121.074.156a.407.407 0 01.031.081c0 .01.011.043.025.074l.05.113a.356.356 0 01.025.075 8.438 8.438 0 010 5.809.34.34 0 01-.026.079c-.065.146-.074.167-.074.184a.347.347 0 01-.031.08l-.074.155a6.81 6.81 0 01-.27.56 3.558 3.558 0 01-.159.283 1.497 1.497 0 01-.092.15c-.05.078-.073.115-.085.143a.64.64 0 01-.059.085.333.333 0 00-.046.072c0 .006-.045.07-.1.142a.863.863 0 00-.1.15c0 .01-.007.017-.015.017a.727.727 0 00-.112.133.726.726 0 01-.11.134c-.008 0-.013.008-.013.017 0 .01-.023.04-.05.067a.283.283 0 00-.05.057.277.277 0 01-.046.056l-.146.161a8.7 8.7 0 01-.752.727.282.282 0 00-.057.05c-.027.027-.056.05-.066.05-.01 0-.017.006-.017.014 0 .007-.06.057-.133.11a.69.69 0 00-.133.11c0 .01-.009.016-.019.016a.914.914 0 00-.149.1c-.072.055-.136.1-.142.1a.332.332 0 00-.072.046.813.813 0 01-.153.098.61.61 0 00-.075.046 1.325 1.325 0 01-.15.093c-.092.057-.186.11-.283.158a6.764 6.764 0 01-.558.271l-.156.074a.35.35 0 01-.08.031.317.317 0 00-.074.025l-.114.05a.31.31 0 01-.075.026.126.126 0 00-.047.016c-.082.045-.678.222-.983.29a8.702 8.702 0 01-2.438.192v.001zm1.45-2.614c.473-.07.937-.194 1.382-.37.289-.113.9-.447 1.125-.616l.217-.16c.073-.053.148-.113.167-.133.018-.02.108-.103.2-.182.202-.175.176-.15.352-.353.08-.091.164-.183.185-.206.023-.021.082-.096.134-.166.05-.07.12-.166.155-.211.147-.195.527-.888.605-1.101l.076-.206c.372-.99.453-2.148.226-3.214-.067-.314-.12-.484-.302-.984-.08-.218-.459-.908-.605-1.1a21.556 21.556 0 01-.159-.218 1.926 1.926 0 00-.133-.166 2.67 2.67 0 01-.133-.15 3.286 3.286 0 00-.447-.447c-.052-.04-.101-.084-.146-.132 0-.007-.08-.07-.18-.142a4.724 4.724 0 01-.187-.14 3.738 3.738 0 00-.373-.24 5.7 5.7 0 00-2.447-.794 7.924 7.924 0 00-1.314.032 5.833 5.833 0 00-1.741.537c-.208.101-.62.336-.642.366a1.33 1.33 0 01-.117.083 5.768 5.768 0 00-1.106 1.02 5.6 5.6 0 00-.742 1.13 5.838 5.838 0 00-.465 3.806c.094.402.227.799.388 1.156.099.217.363.694.44.794.025.034.08.109.119.168a5.716 5.716 0 003.715 2.312c.377.063.507.072 1.035.067.39-.005.539-.014.717-.04zm-1.26-1.44a4.436 4.436 0 01-1.09-.256 4.81 4.81 0 01-.568-.272 5.941 5.941 0 01-.59-.402 5.115 5.115 0 01-.562-.564 5.94 5.94 0 01-.402-.59 4.195 4.195 0 01-.421-3.085 4.08 4.08 0 01.645-1.4c.142-.201.164-.229.321-.4.131-.143.25-.258.42-.404.095-.084.431-.311.589-.402a4.185 4.185 0 013.083-.422c.503.125.978.344 1.4.646.2.142.228.163.4.321.142.131.257.25.403.42.083.096.311.432.402.59a4.195 4.195 0 01.34 3.37c-.13.398-.32.775-.565 1.115-.142.202-.163.23-.321.401a2.726 2.726 0 01-.26.26c-.17.158-.198.18-.4.322a4.073 4.073 0 01-1.4.645c-.465.114-.946.15-1.424.108zm2.407-2.866c.398-.664.723-1.225.723-1.245 0-.03-1.238-2.157-1.414-2.43l-.041-.063h-2.45l-.038.063c-.183.292-1.383 2.402-1.383 2.431 0 .03 1.217 2.14 1.382 2.398l.04.063 1.229-.005 1.229-.004.723-1.208z" fill="#B9BBBE"/>
    </g>
    <g clip-path="url(#prefix__clip11_209_6)" fill="#B9BBBE">
        <path d="M22 40l-6.667 6.667v6.666L22 60l6.667-6.667v-6.666L22 40zm5 12.65l-5 5-5-5v-5.3l5-5 5 5v5.3z"/>
    <path d="M18.667 48.05v3.9L22 55.283l3.333-3.333v-3.9L22 44.717l-3.333 3.333z"/></g>
    <g clip-path="url(#prefix__clip12_209_6)">
        <path d="M50.596 57.14l4.232 2.673a1.147 1.147 0 001.322-.048c.19-.144.334-.344.413-.574.079-.23.09-.478.03-.714l-1.177-4.982a1.254 1.254 0 01.011-.66c.063-.214.18-.406.342-.556l3.763-3.403c.197-.153.342-.367.415-.61.073-.243.07-.504-.008-.745a1.214 1.214 0 00-.427-.601c-.2-.15-.44-.23-.686-.23l-4.939-.487a1.003 1.003 0 01-.581-.211 1.057 1.057 0 01-.359-.519l-1.88-4.739c-.1-.22-.258-.405-.456-.535a1.205 1.205 0 00-1.324 0c-.198.13-.356.316-.456.535l-1.88 4.861a1.21 1.21 0 01-.376.495c-.165.128-.36.208-.564.234l-4.94.365c-.229.033-.445.132-.623.286a1.29 1.29 0 00-.384.581 1.33 1.33 0 00-.03.704 1.3 1.3 0 00.331.615l3.763 3.404c.172.14.299.332.362.55.063.217.06.45-.01.665l-1.175 4.982c-.06.236-.05.485.03.714.078.23.222.43.412.574a1.152 1.152 0 001.322.048l4.231-2.674a1.239 1.239 0 011.295 0v.001z" fill="#B9BBBE"/>
    </g>
    <g clip-path="url(#prefix__clip13_209_6)">
        <path fill-rule="evenodd" clip-rule="evenodd" d="M82.883 45.994H86a2 2 0 012 1.999v2.015H68v-2.015a1.997 1.997 0 012-1.999h3.117a5.248 5.248 0 01-1.242-.882 3.013 3.013 0 010-4.247 3.085 3.085 0 014.25 0C77.758 42.514 78 45.586 78 45.936c0-.35.242-3.422 1.875-5.087a3.085 3.085 0 014.25 0 3.013 3.013 0 010 4.246 5.251 5.251 0 01-1.242.9zm-9.591-2.298a1 1 0 010-1.415 1.009 1.009 0 011.416 0c.585.72.97 1.582 1.117 2.498a5.334 5.334 0 01-2.533-1.083zm6.883 1.116a5.285 5.285 0 011.117-2.498 1.009 1.009 0 011.634.325.998.998 0 01-.218 1.09 5.294 5.294 0 01-2.533 1.083zM69 51.998v6.004A2.006 2.006 0 0071 60h6v-8.002h-8zm10 0V60h6a2.01 2.01 0 002-1.998v-6.004h-8z" fill="#B9BBBE"/>
    </g>
    <g clip-path="url(#prefix__clip14_209_6)">
        <path d="M97.425 42.083a1.429 1.429 0 00-1.008.426A1.45 1.45 0 0096 43.527v.714h16.425v-.714a1.449 1.449 0 00-.414-1.02 1.428 1.428 0 00-1.011-.424H97.425zm16.433 2.88v2.157H116V46.4a1.448 1.448 0 00-.42-1.013 1.428 1.428 0 00-1.005-.423h-.717zM96 46.398v6.482c0 .38.15.745.417 1.015.268.269.63.42 1.008.42H111a1.412 1.412 0 001.319-.885c.071-.174.107-.362.106-.55v-6.482H96zm17.858 2.88v5.037c0 .383-.151.75-.419 1.021a1.43 1.43 0 01-1.014.423h-12.85v.714a1.443 1.443 0 00.878 1.334c.173.072.359.11.547.11h13.575a1.427 1.427 0 001.008-.426 1.45 1.45 0 00.417-1.018v-7.195h-2.142z" fill="#B9BBBE"/>
    </g>
    <path d="M8 65C2.478 65-2 69.478-2 75S2.478 85 8 85c.922 0 1.667-.744 1.667-1.667 0-.433-.167-.822-.434-1.122a1.669 1.669 0 01-.422-1.1c0-.922.745-1.667 1.666-1.667h1.967A5.558 5.558 0 0018 73.89C18 68.978 13.523 65 8 65zM1.89 75a1.664 1.664 0 01-1.667-1.667c0-.922.744-1.666 1.666-1.666.922 0 1.667.744 1.667 1.666 0 .923-.745 1.667-1.667 1.667zm3.333-4.444a1.665 1.665 0 01-1.667-1.667c0-.922.744-1.666 1.667-1.666.921 0 1.666.744 1.666 1.666 0 .922-.745 1.667-1.667 1.667zm5.554 0a1.665 1.665 0 01-1.666-1.667c0-.922.745-1.666 1.666-1.666.923 0 1.667.744 1.667 1.666 0 .922-.744 1.667-1.667 1.667zM14.111 75a1.665 1.665 0 01-1.667-1.667c0-.922.745-1.666 1.667-1.666s1.666.744 1.666 1.666c0 .923-.744 1.667-1.666 1.667z" fill="#B9BBBE"/>
    <g clip-path="url(#prefix__clip15_209_6)">
        <path d="M36.63 65.02a10 10 0 10-1.26 19.96 10 10 0 001.26-19.96zm-1.033 3.675a1.666 1.666 0 11-1.225 1.225 1.617 1.617 0 011.225-1.225zm5.308 3.992a.55.55 0 01-.333.5l-2.925 1.25v2.141l1.425 3.334c.145.342.222.71.225 1.083v.05a.834.834 0 01-.792.791.833.833 0 01-.775-.55l-1.208-3.383a.276.276 0 00-.258-.175h-.517a.276.276 0 00-.258.175l-1.242 3.35a.833.833 0 01-.767.55.833.833 0 01-.833-.791v-.05c.003-.373.08-.741.225-1.084l1.425-3.333v-2.109l-2.925-1.25a.55.55 0 01-.334-.5.693.693 0 01.776-.691c.261.01.52.06.766.15l1 .375c.468.166.962.25 1.459.25h1.866c.497 0 .99-.084 1.459-.25l1.041-.367c.238-.09.488-.143.742-.158a.692.692 0 01.733.691h.025z" fill="#B9BBBE"/>
    </g>
    <g clip-path="url(#prefix__clip16_209_6)">
        <path fill-rule="evenodd" clip-rule="evenodd" d="M67.051 74a2.96 2.96 0 01-.83 2.223 3.081 3.081 0 01-4.415 0A2.96 2.96 0 0160.974 74v-6c-.001-.796.32-1.559.89-2.121A3.065 3.065 0 0164.017 65c.807 0 1.58.316 2.151.879.571.562.892 1.325.892 2.121l-.009 6zm-3.034 5.1a5.333 5.333 0 002.027-.355 5.276 5.276 0 001.735-1.095c.5-.473.899-1.04 1.176-1.666.277-.627.426-1.3.438-1.984h1.69a6.905 6.905 0 01-1.792 4.46 7.09 7.09 0 01-4.294 2.257V85h-1.995v-4.283a7.106 7.106 0 01-4.29-2.26A6.921 6.921 0 0156.916 74h1.691a5.13 5.13 0 00.441 1.992c.28.628.682 1.196 1.185 1.67a5.275 5.275 0 001.746 1.093c.65.246 1.342.364 2.038.345z" fill="#B9BBBE"/>
    </g>
    <g clip-path="url(#prefix__clip17_209_6)">
        <path d="M99.833 65H84.167A2.167 2.167 0 0082 67.175V85l4.067-3.958h13.766a2.16 2.16 0 001.535-.638 2.158 2.158 0 00.632-1.537V67.2a2.172 2.172 0 00-.623-1.554A2.16 2.16 0 0099.833 65zm-14.95 12.033l3.525-4.641 2.55 2.983 3.45-4.283 4.55 5.941H84.883z" fill="#B9BBBE"/>
    </g>
    <g clip-path="url(#prefix__clip18_209_6)">
        <path d="M-6 90a10 10 0 100 20 10 10 0 000-20zm0 4.692a1.325 1.325 0 110 2.65 1.325 1.325 0 010-2.65zM-3.017 105h-5.966v-1.967H-7v-2.983h-.992v-1.992H-6a.993.993 0 01.992 1v3.975h1.991V105z" fill="#B9BBBE"/>
    </g>
    <g clip-path="url(#prefix__clip19_209_6)">
        <path fill-rule="evenodd" clip-rule="evenodd" d="M31.62 93.16l-7.9 5.14a.928.928 0 00-.316.355l-1.207 2.4a.234.234 0 01-.308.099.246.246 0 01-.108-.099l-1.199-2.4a1.028 1.028 0 00-.324-.356l-7.9-5.139a.234.234 0 00-.352.152.23.23 0 00.02.146l3.304 6.372a.232.232 0 01-.108.307.21.21 0 01-.1 0h-1.99a.224.224 0 00-.227.301c.018.047.051.086.094.112l8.857 6.282a.227.227 0 00.266 0l8.857-6.257a.224.224 0 00.098-.259.222.222 0 00-.089-.117.23.23 0 00-.142-.038h-1.964a.242.242 0 01-.233-.231.222.222 0 010-.1l3.33-6.372a.23.23 0 00-.054-.273.234.234 0 00-.28-.025" fill="#B9BBBE"/>
    </g>
    <g clip-path="url(#prefix__clip20_209_6)">
        <path d="M42.218 90.625a.735.735 0 00-.52.227.754.754 0 00-.209.533v.749h-.74a.731.731 0 00-.529.216.748.748 0 00-.22.533.757.757 0 00.22.533.738.738 0 00.53.216h.74v.75a.757.757 0 00.213.535.737.737 0 001.053 0 .75.75 0 00.213-.536v-.749h.74a.732.732 0 00.53-.216.75.75 0 00.163-.822.75.75 0 00-.407-.406.732.732 0 00-.286-.054h-.74v-.75a.756.756 0 00-.462-.704.73.73 0 00-.29-.055zm12.59.76a.727.727 0 00-.524.22c-.14.14-1.239 1.252-1.45 1.467l-.71-.719a.737.737 0 00-.806-.162.737.737 0 00-.24.162l-2.593 2.625a6.475 6.475 0 00-.614-.035c-3.927 0-7.121 3.235-7.121 7.211 0 3.976 3.194 7.211 7.12 7.211 3.928 0 7.122-3.235 7.122-7.211 0-.195-.014-.403-.035-.622l2.593-2.625a.752.752 0 000-1.06l-.711-.72c.212-.213 1.312-1.326 1.45-1.467a.748.748 0 00.218-.53.755.755 0 00-.217-.53l-2.96-2.996a.737.737 0 00-.523-.22zm-3.206 2.557l4.379 4.434-1.818 1.841-4.379-4.435 1.818-1.84zm-3.731 2.5c.166 0 .333.009.498.026l5.117 5.183c.018.183.026.347.026.503 0 .797-.166 1.585-.487 2.312a3.405 3.405 0 00-.628-.865c-.613-.628-1.463-.979-2.4-.979h-3.402c-.936 0-1.788-.425-2.4-1.053a3.417 3.417 0 01-1.003-2.43c0-.066.01-.128.014-.192 1.017-1.511 2.728-2.505 4.665-2.505zm9.884 8.418a.733.733 0 00-.52.227.754.754 0 00-.208.532v.749h-.74a.726.726 0 00-.532.215.748.748 0 00-.164.824.752.752 0 00.408.407c.092.036.19.054.288.053h.74v.749a.761.761 0 00.213.536.73.73 0 00.812.165.753.753 0 00.454-.701v-.749h.74a.74.74 0 00.696-.46.752.752 0 00-.696-1.039h-.74v-.749a.76.76 0 00-.217-.541.734.734 0 00-.534-.218z" fill="#B9BBBE"/>
    </g>
    <g clip-path="url(#prefix__clip21_209_6)">
        <path d="M69.539 90.833L68 92.361l1.539 3.055 2.308.764 2.693 2.674 1.538-1.528-2.693-2.673-.769-2.292-3.077-1.528zm13.9.008a4.747 4.747 0 00-3.542 1.374c-1.259 1.25-1.372 2.753-.746 4.167l-8.936 8.872a2.28 2.28 0 000 3.241 2.32 2.32 0 003.264 0l8.936-8.873c1.424.622 2.938.509 4.197-.741a4.684 4.684 0 001.163-4.766l-2.85 2.832-2.463-.611-.616-2.445 2.852-2.83a4.813 4.813 0 00-1.26-.22zm-1.19 11.173l-2.895 2.875 3.707 3.682a2.06 2.06 0 002.897 0c.8-.795.8-2.082 0-2.877l-3.708-3.68zm-10.402 4.097a.764.764 0 110 1.527.765.765 0 01-.544-1.304.772.772 0 01.544-.223z" fill="#B9BBBE"/>
    </g>
    <g clip-path="url(#prefix__clip22_209_6)">
        <path d="M104.458 90a.773.773 0 00-.771.77c0 3.89-5.395 6.922-5.395 12.307 0 4.091 4.442 6.735 6.007 6.906a.77.77 0 00.911-.921.77.77 0 00-.265-.428v-.001c-.702-.568-2.028-2.215-2.028-3.719 0-2.468 2.312-3.376 2.312-3.376-1.319 3.723 3.003 4.173 3.872 7.859h.002a.769.769 0 001.243.424c.126-.081 3.362-2.217 3.362-6.744 0-1.848-.926-5.023-1.593-6.429l-.001-.004a.774.774 0 00-.718-.49.772.772 0 00-.758.63v.002c-.001.009-.356 1.578-1.555 2.445 0-3.625-2.622-7.368-4.005-8.917a.761.761 0 00-.62-.314z" fill="#B9BBBE"/>
    </g>
</g>
<defs>
    <clipPath id="prefix__clip0_209_6">
        <rect width="100" height="100" rx="10" fill="#fff"/>
    </clipPath>
    <clipPath id="prefix__clip1_209_6">
        <path fill="#fff" transform="translate(-16 -10)" d="M0 0h20v20H0z"/>
    </clipPath>
    <clipPath id="prefix__clip2_209_6">
        <path fill="#fff" transform="translate(12 -10)" d="M0 0h20v20H0z"/>
    </clipPath>
    <clipPath id="prefix__clip3_209_6">
        <path fill="#fff" transform="translate(40 -10)" d="M0 0h20v20H0z"/>
    </clipPath>
    <clipPath id="prefix__clip4_209_6">
        <path fill="#fff" transform="translate(68 -10)" d="M0 0h20v20H0z"/>
    </clipPath>
    <clipPath id="prefix__clip5_209_6">
        <path fill="#fff" transform="translate(96 -10)" d="M0 0h20v20H0z"/>
    </clipPath>
    <clipPath id="prefix__clip6_209_6">
        <path fill="#fff" transform="translate(-2 15)" d="M0 0h20v20H0z"/>
    </clipPath>
    <clipPath id="prefix__clip7_209_6">
        <path fill="#fff" transform="translate(26 15)" d="M0 0h20v20H0z"/>
    </clipPath>
    <clipPath id="prefix__clip8_209_6">
        <path fill="#fff" transform="translate(54 15)" d="M0 0h20v20H0z"/>
    </clipPath>
    <clipPath id="prefix__clip9_209_6">
        <path fill="#fff" transform="translate(82 15)" d="M0 0h20v20H0z"/>
    </clipPath>
    <clipPath id="prefix__clip10_209_6">
        <path fill="#fff" transform="translate(-16 40)" d="M0 0h20v20H0z"/>
    </clipPath>
    <clipPath id="prefix__clip11_209_6">
        <path fill="#fff" transform="translate(12 40)" d="M0 0h20v20H0z"/>
    </clipPath>
    <clipPath id="prefix__clip12_209_6">
        <path fill="#fff" transform="translate(40 40)" d="M0 0h20v20H0z"/>
    </clipPath>
    <clipPath id="prefix__clip13_209_6">
        <path fill="#fff" transform="translate(68 40)" d="M0 0h20v20H0z"/>
    </clipPath>
    <clipPath id="prefix__clip14_209_6">
        <path fill="#fff" transform="translate(96 40)" d="M0 0h20v20H0z"/>
    </clipPath>
    <clipPath id="prefix__clip15_209_6">
        <path fill="#fff" transform="translate(26 65)" d="M0 0h20v20H0z"/>
    </clipPath>
    <clipPath id="prefix__clip16_209_6">
        <path fill="#fff" transform="translate(54 65)" d="M0 0h20v20H0z"/>
    </clipPath>
    <clipPath id="prefix__clip17_209_6">
        <path fill="#fff" transform="translate(82 65)" d="M0 0h20v20H0z"/>
    </clipPath>
    <clipPath id="prefix__clip18_209_6">
        <path fill="#fff" transform="translate(-16 90)" d="M0 0h20v20H0z"/>
    </clipPath>
    <clipPath id="prefix__clip19_209_6">
        <path fill="#fff" transform="translate(12 90)" d="M0 0h20v20H0z"/>
    </clipPath>
    <clipPath id="prefix__clip20_209_6">
        <path fill="#fff" transform="translate(40 90)" d="M0 0h20v20H0z"/>
    </clipPath>
    <clipPath id="prefix__clip21_209_6">
        <path fill="#fff" transform="translate(68 90)" d="M0 0h20v20H0z"/>
    </clipPath>
    <clipPath id="prefix__clip22_209_6">
        <path fill="#fff" transform="translate(96 90)" d="M0 0h20v20H0z"/>
    </clipPath>
</defs>
</svg>