<svg width="166" height="51" viewBox="0 0 166 51" fill="none" xmlns="http://www.w3.org/2000/svg">
<rect width="165.021" height="51" rx="25.5" fill="white"/>
<path d="M44.1226 24.0869L42.5773 22.5416L38.9786 26.1404V14.5714H36.7928V26.1404L33.194 22.5416L31.6487 24.0869L37.8857 30.3239L44.1226 24.0869Z" fill="#23272A"/>
<path d="M44.4428 32.0571V34.2429H31.3286V32.0571H29.1429V34.2429C29.1429 35.4472 30.1231 36.4286 31.3286 36.4286H44.4428C45.6494 36.4286 46.6286 35.4472 46.6286 34.2429V32.0571H44.4428Z" fill="#23272A"/>
<path d="M58.9214 32.0268H56.2177L56.2355 30.6305H58.9214C59.8464 30.6305 60.6171 30.4378 61.2338 30.0524C61.8504 29.6611 62.3129 29.1156 62.6212 28.4159C62.9354 27.7104 63.0926 26.8862 63.0926 25.9435V25.152C63.0926 24.4108 63.0036 23.7527 62.8258 23.1776C62.6479 22.5965 62.387 22.1074 62.0431 21.7101C61.6992 21.3069 61.2782 21.0016 60.7802 20.7941C60.2881 20.5865 59.7219 20.4828 59.0815 20.4828H56.1644V19.0776H59.0815C59.9294 19.0776 60.7031 19.2199 61.4028 19.5045C62.1024 19.7831 62.7042 20.1893 63.2082 20.7229C63.7181 21.2506 64.1094 21.8909 64.3821 22.6439C64.6549 23.391 64.7913 24.2329 64.7913 25.1697V25.9435C64.7913 26.8803 64.6549 27.7252 64.3821 28.4782C64.1094 29.2253 63.7151 29.8627 63.1993 30.3903C62.6894 30.918 62.0728 31.3242 61.3494 31.6088C60.632 31.8875 59.8226 32.0268 58.9214 32.0268ZM57.1338 19.0776V32.0268H55.4173V19.0776H57.1338ZM66.6856 27.322V27.1175C66.6856 26.4238 66.7864 25.7804 66.988 25.1875C67.1896 24.5887 67.4801 24.0699 67.8596 23.6311C68.239 23.1865 68.6986 22.8426 69.2381 22.5995C69.7777 22.3504 70.3824 22.2259 71.0524 22.2259C71.7283 22.2259 72.3361 22.3504 72.8756 22.5995C73.4211 22.8426 73.8836 23.1865 74.263 23.6311C74.6484 24.0699 74.9419 24.5887 75.1435 25.1875C75.3451 25.7804 75.4459 26.4238 75.4459 27.1175V27.322C75.4459 28.0157 75.3451 28.659 75.1435 29.252C74.9419 29.8449 74.6484 30.3637 74.263 30.8084C73.8836 31.2471 73.4241 31.591 72.8845 31.84C72.3509 32.0831 71.7461 32.2047 71.0702 32.2047C70.3943 32.2047 69.7865 32.0831 69.247 31.84C68.7074 31.591 68.245 31.2471 67.8596 30.8084C67.4801 30.3637 67.1896 29.8449 66.988 29.252C66.7864 28.659 66.6856 28.0157 66.6856 27.322ZM68.3309 27.1175V27.322C68.3309 27.8023 68.3873 28.2559 68.4999 28.6828C68.6126 29.1037 68.7816 29.4773 69.0069 29.8034C69.2381 30.1295 69.5257 30.3874 69.8696 30.5771C70.2134 30.7609 70.6137 30.8528 71.0702 30.8528C71.5208 30.8528 71.9151 30.7609 72.2531 30.5771C72.597 30.3874 72.8816 30.1295 73.1069 29.8034C73.3322 29.4773 73.5011 29.1037 73.6138 28.6828C73.7324 28.2559 73.7917 27.8023 73.7917 27.322V27.1175C73.7917 26.6431 73.7324 26.1955 73.6138 25.7745C73.5011 25.3476 73.3292 24.9711 73.098 24.645C72.8727 24.313 72.5881 24.0521 72.2442 23.8624C71.9062 23.6726 71.509 23.5778 71.0524 23.5778C70.6018 23.5778 70.2046 23.6726 69.8607 23.8624C69.5227 24.0521 69.2381 24.313 69.0069 24.645C68.7816 24.9711 68.6126 25.3476 68.4999 25.7745C68.3873 26.1955 68.3309 26.6431 68.3309 27.1175ZM79.9461 30.3192L82.4186 22.4038H83.5036L83.2901 23.978L80.7732 32.0268H79.7149L79.9461 30.3192ZM78.283 22.4038L80.3908 30.4081L80.542 32.0268H79.4303L76.6377 22.4038H78.283ZM85.8693 30.3459L87.8793 22.4038H89.5157L86.7231 32.0268H85.6203L85.8693 30.3459ZM83.7437 22.4038L86.1628 30.1858L86.4385 32.0268H85.3891L82.801 23.9602L82.5875 22.4038H83.7437ZM92.8509 24.4583V32.0268H91.2055V22.4038H92.7619L92.8509 24.4583ZM92.4595 26.8507L91.7747 26.824C91.7807 26.1658 91.8785 25.5581 92.0682 25.0008C92.258 24.4375 92.5248 23.9483 92.8687 23.5333C93.2125 23.1183 93.6217 22.7981 94.096 22.5728C94.5762 22.3416 95.1069 22.2259 95.688 22.2259C96.1623 22.2259 96.5892 22.2912 96.9686 22.4216C97.3481 22.5461 97.6712 22.7477 97.9381 23.0264C98.2108 23.305 98.4183 23.6667 98.5606 24.1114C98.7029 24.5502 98.7741 25.0867 98.7741 25.7212V32.0268H97.1198V25.7034C97.1198 25.1994 97.0457 24.7962 96.8975 24.4938C96.7493 24.1855 96.5329 23.9632 96.2483 23.8268C95.9637 23.6845 95.6138 23.6134 95.1988 23.6134C94.7897 23.6134 94.4162 23.6993 94.0782 23.8713C93.7462 24.0432 93.4586 24.2804 93.2155 24.5828C92.9783 24.8851 92.7916 25.232 92.6552 25.6233C92.5248 26.0087 92.4595 26.4178 92.4595 26.8507ZM103.061 18.3661V32.0268H101.407V18.3661H103.061ZM105.266 27.322V27.1175C105.266 26.4238 105.367 25.7804 105.569 25.1875C105.77 24.5887 106.061 24.0699 106.44 23.6311C106.82 23.1865 107.279 22.8426 107.819 22.5995C108.359 22.3504 108.963 22.2259 109.633 22.2259C110.309 22.2259 110.917 22.3504 111.456 22.5995C112.002 22.8426 112.464 23.1865 112.844 23.6311C113.229 24.0699 113.523 24.5887 113.724 25.1875C113.926 25.7804 114.027 26.4238 114.027 27.1175V27.322C114.027 28.0157 113.926 28.659 113.724 29.252C113.523 29.8449 113.229 30.3637 112.844 30.8084C112.464 31.2471 112.005 31.591 111.465 31.84C110.932 32.0831 110.327 32.2047 109.651 32.2047C108.975 32.2047 108.367 32.0831 107.828 31.84C107.288 31.591 106.826 31.2471 106.44 30.8084C106.061 30.3637 105.77 29.8449 105.569 29.252C105.367 28.659 105.266 28.0157 105.266 27.322ZM106.912 27.1175V27.322C106.912 27.8023 106.968 28.2559 107.081 28.6828C107.193 29.1037 107.362 29.4773 107.588 29.8034C107.819 30.1295 108.107 30.3874 108.45 30.5771C108.794 30.7609 109.195 30.8528 109.651 30.8528C110.102 30.8528 110.496 30.7609 110.834 30.5771C111.178 30.3874 111.462 30.1295 111.688 29.8034C111.913 29.4773 112.082 29.1037 112.195 28.6828C112.313 28.2559 112.373 27.8023 112.373 27.322V27.1175C112.373 26.6431 112.313 26.1955 112.195 25.7745C112.082 25.3476 111.91 24.9711 111.679 24.645C111.454 24.313 111.169 24.0521 110.825 23.8624C110.487 23.6726 110.09 23.5778 109.633 23.5778C109.183 23.5778 108.785 23.6726 108.442 23.8624C108.104 24.0521 107.819 24.313 107.588 24.645C107.362 24.9711 107.193 25.3476 107.081 25.7745C106.968 26.1955 106.912 26.6431 106.912 27.1175ZM121.764 30.3815V25.4277C121.764 25.0482 121.687 24.7191 121.533 24.4405C121.385 24.1559 121.159 23.9365 120.857 23.7823C120.555 23.6282 120.181 23.5511 119.737 23.5511C119.321 23.5511 118.957 23.6222 118.643 23.7645C118.334 23.9068 118.091 24.0936 117.913 24.3248C117.741 24.5561 117.655 24.8051 117.655 25.0719H116.01C116.01 24.728 116.099 24.3871 116.277 24.0491C116.455 23.7112 116.71 23.4058 117.042 23.1331C117.38 22.8544 117.783 22.635 118.251 22.475C118.726 22.3089 119.253 22.2259 119.834 22.2259C120.534 22.2259 121.151 22.3445 121.684 22.5817C122.224 22.8188 122.645 23.1776 122.947 23.6578C123.255 24.1322 123.41 24.728 123.41 25.4455V29.9279C123.41 30.248 123.436 30.589 123.49 30.9506C123.549 31.3123 123.635 31.6236 123.748 31.8845V32.0268H122.031C121.948 31.8371 121.883 31.5851 121.835 31.2708C121.788 30.9506 121.764 30.6542 121.764 30.3815ZM122.049 26.1925L122.067 27.3487H120.404C119.935 27.3487 119.517 27.3872 119.15 27.4643C118.782 27.5355 118.474 27.6452 118.225 27.7934C117.976 27.9416 117.786 28.1284 117.655 28.3537C117.525 28.5731 117.46 28.831 117.46 29.1274C117.46 29.4298 117.528 29.7055 117.664 29.9546C117.801 30.2036 118.005 30.4022 118.278 30.5504C118.557 30.6927 118.898 30.7639 119.301 30.7639C119.805 30.7639 120.249 30.6572 120.635 30.4437C121.02 30.2303 121.326 29.9694 121.551 29.6611C121.782 29.3527 121.907 29.0533 121.924 28.7628L122.627 29.5543C122.585 29.8034 122.473 30.0791 122.289 30.3815C122.105 30.6838 121.859 30.9744 121.551 31.253C121.248 31.5258 120.887 31.754 120.466 31.9378C120.051 32.1157 119.582 32.2047 119.061 32.2047C118.408 32.2047 117.836 32.0772 117.344 31.8222C116.858 31.5673 116.478 31.2264 116.206 30.7995C115.939 30.3666 115.805 29.8834 115.805 29.3498C115.805 28.834 115.906 28.3804 116.108 27.989C116.309 27.5918 116.6 27.2627 116.979 27.0018C117.359 26.735 117.815 26.5334 118.349 26.3971C118.883 26.2607 119.479 26.1925 120.137 26.1925H122.049ZM132.063 30.1591V18.3661H133.717V32.0268H132.205L132.063 30.1591ZM125.589 27.322V27.1353C125.589 26.4 125.677 25.733 125.855 25.1342C126.039 24.5294 126.297 24.0106 126.629 23.5778C126.967 23.145 127.367 22.8129 127.83 22.5817C128.298 22.3445 128.82 22.2259 129.395 22.2259C130 22.2259 130.528 22.3327 130.978 22.5461C131.435 22.7536 131.82 23.059 132.134 23.4622C132.454 23.8594 132.706 24.3397 132.89 24.9029C133.074 25.4662 133.202 26.1036 133.273 26.8151V27.6333C133.207 28.3389 133.08 28.9733 132.89 29.5366C132.706 30.0998 132.454 30.5801 132.134 30.9773C131.82 31.3746 131.435 31.6799 130.978 31.8934C130.522 32.1009 129.988 32.2047 129.377 32.2047C128.814 32.2047 128.298 32.0831 127.83 31.84C127.367 31.5969 126.967 31.256 126.629 30.8172C126.297 30.3785 126.039 29.8627 125.855 29.2697C125.677 28.6709 125.589 28.0217 125.589 27.322ZM127.243 27.1353V27.322C127.243 27.8023 127.29 28.2529 127.385 28.6739C127.486 29.0948 127.64 29.4654 127.848 29.7856C128.055 30.1057 128.319 30.3577 128.639 30.5415C128.959 30.7194 129.342 30.8084 129.786 30.8084C130.332 30.8084 130.78 30.6927 131.129 30.4615C131.485 30.2303 131.77 29.9249 131.983 29.5454C132.197 29.166 132.363 28.7539 132.481 28.3092V26.1658C132.41 25.8397 132.306 25.5255 132.17 25.2231C132.039 24.9148 131.868 24.6421 131.654 24.4049C131.447 24.1618 131.189 23.9691 130.88 23.8268C130.578 23.6845 130.219 23.6134 129.804 23.6134C129.354 23.6134 128.965 23.7082 128.639 23.8979C128.319 24.0818 128.055 24.3367 127.848 24.6628C127.64 24.983 127.486 25.3565 127.385 25.7834C127.29 26.2044 127.243 26.655 127.243 27.1353Z" fill="#23272A"/>
</svg>
