<svg data-name="Settings Little" width="16" height="16" xmlns="http://www.w3.org/2000/svg">
    <path d="M14.004 9.554l-1.12-.8a.406.406 0 01-.134-.38v-.379c.01-.156.01-.313 0-.47a.487.487 0 01.182-.4l1.139-.799a.431.431 0 00.169-.259.446.446 0 00-.045-.31l-1.33-2.308a.425.425 0 00-.235-.198.404.404 0 00-.3.018l-1.311.67a.389.389 0 01-.402 0 4.448 4.448 0 00-.555-.32.466.466 0 01-.182-.38l-.134-1.34a.428.428 0 00-.127-.287.392.392 0 00-.284-.112H6.809a.411.411 0 00-.285.114.447.447 0 00-.136.286l-.086 1.349a.43.43 0 01-.077.211.405.405 0 01-.171.138c-.21.118-.412.252-.603.4a.425.425 0 01-.421 0l-1.426-.73a.404.404 0 00-.3-.017.425.425 0 00-.235.198L1.806 5.747a.457.457 0 00-.046.315.44.44 0 00.17.264l1.33 1c.061.039.111.095.143.162a.415.415 0 01.039.217v.58a.456.456 0 01-.042.22.435.435 0 01-.14.17l-1.32.929a.441.441 0 00-.17.264.457.457 0 00.045.315l1.263 2.299a.425.425 0 00.235.197.404.404 0 00.301-.018l1.349-.69a.398.398 0 01.43 0c.214.162.442.302.68.42a.437.437 0 01.166.152c.042.065.067.14.073.218l.086 1.34c.01.109.058.21.136.284.078.075.18.115.285.115h2.516a.392.392 0 00.284-.112.428.428 0 00.127-.288l.096-1.349a.411.411 0 01.067-.209.387.387 0 01.163-.14 4.27 4.27 0 00.612-.38.434.434 0 01.411 0l1.234.64c.095.044.202.05.301.017a.425.425 0 00.235-.197l1.263-2.299a.45.45 0 000-.507.428.428 0 00-.124-.122zm-6.037.82a2.208 2.208 0 01-1.268-.397 2.358 2.358 0 01-.842-1.065 2.476 2.476 0 01-.134-1.375c.087-.462.303-.886.621-1.22a2.25 2.25 0 011.166-.654c.442-.092.9-.046 1.316.134.417.18.773.484 1.024.876.25.391.384.851.384 1.322.002.312-.056.62-.17.91-.113.288-.28.55-.49.771-.211.221-.461.396-.737.516-.276.12-.572.181-.87.181z" />
</svg>