<svg data-name="Settings" width="24" height="24" xmlns="http://www.w3.org/2000/svg">
<path d="M21.977 14.52l-1.848-1.29a.703.703 0 01-.303-.62V12a6.787 6.787 0 00-.05-.77.745.745 0 01.304-.63l1.867-1.3a.693.693 0 00.205-.92L20.1 4.65a.687.687 0 00-.39-.319.67.67 0 00-.5.039l-2.16 1.08a.663.663 0 01-.665 0 7.435 7.435 0 00-.909-.52.71.71 0 01-.258-.241.732.732 0 01-.113-.339l-.157-2.2a.707.707 0 00-.217-.463.676.676 0 00-.467-.187h-4.204a.676.676 0 00-.467.187.706.706 0 00-.217.463l-.118 2.17a.66.66 0 01-.11.341.639.639 0 01-.27.229c-.342.177-.669.381-.978.61a.71.71 0 01-.704 0L4.819 4.37a.67.67 0 00-.499-.039.687.687 0 00-.39.319L1.846 8.37a.704.704 0 00.205.93l2.19 1.53c.101.065.182.157.234.267.052.11.072.232.06.353v.94a.702.702 0 01-.343.61l-2.14 1.52a.714.714 0 00-.205.94l2.081 3.72a.687.687 0 00.391.319.67.67 0 00.499-.039l2.22-1.11a.642.642 0 01.703.07c.359.254.734.48 1.124.68a.708.708 0 01.278.24.73.73 0 01.123.35l.147 2.16c.012.177.09.342.217.463.127.12.294.188.467.187h4.175c.173 0 .34-.066.467-.187a.706.706 0 00.217-.463l.147-2.17a.67.67 0 01.116-.342c.069-.1.164-.18.275-.228a7.35 7.35 0 00.977-.61.676.676 0 01.685-.06l2.023 1a.67.67 0 00.499.038.687.687 0 00.391-.318l2.082-3.72a.714.714 0 00-.175-.92zm-9.963 1.33a3.703 3.703 0 01-2.096-.64 3.831 3.831 0 01-1.395-1.723 3.932 3.932 0 01-.222-2.226c.143-.748.5-1.436 1.025-1.976a3.74 3.74 0 011.927-1.06 3.686 3.686 0 012.178.216c.689.291 1.278.784 1.692 1.418.415.633.636 1.379.636 2.141a3.905 3.905 0 01-.28 1.472 3.839 3.839 0 01-.81 1.25 3.743 3.743 0 01-1.217.835 3.672 3.672 0 01-1.438.293z"/>
</svg>