<svg data-name="Theme" width="18" height="18" xmlns="http://www.w3.org/2000/svg">
    <path d="M4.636 0c-.24 0-.476.06-.688.176a1.472 1.472 0 00-.526.492L2.367 2.31c.199-.042.401-.063.604-.06.273.003.545.043.807.12l7.36 2.183 1.07.322L5.443.248A1.423 1.423 0 004.636 0zM3.087 3.75a1.422 1.422 0 00-.94.26 1.499 1.499 0 00-.572.813l-.43 1.5A2.788 2.788 0 012.455 6h8.276L3.378 3.795a1.413 1.413 0 00-.29-.045zM2.455 7.5c-.386 0-.756.158-1.029.44A1.524 1.524 0 001 9v7.5c0 .398.153.78.426 1.06.273.282.643.44 1.029.44h13.09c.386 0 .756-.158 1.029-.44.273-.28.426-.662.426-1.06V9c0-.398-.153-.78-.426-1.06a1.433 1.433 0 00-1.029-.44H2.456zM13.364 9h2.181v7.5h-2.181V9z" />
</svg>