<svg data-name="Activity" width="24" height="24" xmlns="http://www.w3.org/2000/svg">
    <path d="M4.454 3.5h15.1a3.639 3.639 0 013.64 3.382l.8 11.206a2.253 2.253 0 01-2.09 2.412h-.17a3.11 3.11 0 01-3-2.362l-.63-2.501H5.924l-.63 2.501a3.112 3.112 0 01-3 2.362 2.259 2.259 0 01-2.29-2.252.811.811 0 010-.16l.8-11.206A3.643 3.643 0 014.454 3.5zm10.55 6.074a1.82 1.82 0 001.785-2.177 1.821 1.821 0 00-3.298-.656 1.822 1.822 0 001.513 2.833zm4.87 3.642a1.82 1.82 0 001.273-3.113 1.82 1.82 0 00-3.103 1.292 1.811 1.811 0 001.87 1.82h-.04zM4.704 8.363h-2.43v2.431h2.43v2.422h2.43v-2.422h2.44V8.363h-2.44V5.93h-2.43v2.432z" />
</svg>