<svg data-name="Authorized Apps" width="24" height="24" xmlns="http://www.w3.org/2000/svg">
    <path d="M10.413 22.473a5.027 5.027 0 01-2.816-1.258 4.989 4.989 0 01-1.543-2.66c-.28-1.364-.027-2.697.73-3.834a5.01 5.01 0 013.12-2.11c2.412-.493 4.744.717 5.694 2.95.045.106.09.215.099.242.016.044.239.047 4.16.047H24v3.245h-1.353v3.298h-3.618v-3.297h-3.287l-.026.061c-.238.576-.345.787-.569 1.122a5.01 5.01 0 01-3.121 2.11c-.53.11-1.074.138-1.613.085v-.002zm.949-3.255a1.854 1.854 0 001.348-1.195c.081-.247.1-.748.04-.993a1.805 1.805 0 00-1.304-1.318 1.937 1.937 0 00-1.157.076c-.703.296-1.163 1.035-1.11 1.78a1.8 1.8 0 00.713 1.32 1.82 1.82 0 001.47.33zm-9.565-.165a2.229 2.229 0 01-1.168-.634 2.211 2.211 0 01-.596-1.185c-.044-.28-.044-13.593 0-13.872A2.21 2.21 0 01.654 2.15c.33-.328.755-.545 1.216-.62.143-.022 2.729-.03 9.2-.03 7.65 0 9.033.005 9.205.039.933.179 1.645.905 1.788 1.822.022.139.03 1.847.03 5.89v5.692H19.62l.063-.189c.153-.454.15-.338.142-4.707l-.008-4.025-.073-.264a2.77 2.77 0 00-.722-1.251 2.789 2.789 0 00-1.256-.72l-.269-.074H4.49l-.268.074a2.786 2.786 0 00-1.273.737c-.35.356-.598.798-.717 1.282l-.062.243v8.22l.062.244a2.771 2.771 0 002.01 2.022l.113.03-.012.544a6.784 6.784 0 00.202 1.91l.02.076-1.295-.003c-.95-.002-1.341-.012-1.473-.04zm2.458-8.268c0-2.874.007-3.417.041-3.58.13-.62.649-1.136 1.27-1.265.291-.06 10.618-.06 10.909 0 .621.13 1.14.645 1.27 1.264.034.164.04.707.041 3.581v3.388h-.818l-.065-.117a7.125 7.125 0 00-1.45-1.78c-.956-.847-2.232-1.411-3.604-1.597-.338-.046-1.291-.046-1.63 0a7.195 7.195 0 00-1.982.561 6.682 6.682 0 00-1.167.679 7.68 7.68 0 00-.328.259c-.48.398-.93.89-1.244 1.364l-.221.33c-.04.06-.075.121-.108.185l-.06.116h-.854v-3.388z" />
</svg>