<svg data-name="Experiments" width="24" height="24" xmlns="http://www.w3.org/2000/svg">
    <path d="M2.661.75a.883.883 0 00-.623.273.905.905 0 00-.25.638v.9H.9a.878.878 0 00-.636.259.9.9 0 00-.264.64.909.909 0 00.264.64.887.887 0 00.636.259h.887v.899a.909.909 0 00.256.643.887.887 0 00.632.268.878.878 0 00.632-.268.9.9 0 00.256-.643v-.9h.888a.878.878 0 00.635-.259.9.9 0 00.265-.64.909.909 0 00-.265-.64.887.887 0 00-.635-.259h-.888v-.899a.91.91 0 00-.26-.648A.887.887 0 002.66.75zm15.107.911a.874.874 0 00-.627.264L15.4 3.686l-.852-.862a.884.884 0 00-.626-.264.875.875 0 00-.627.264l-3.113 3.15a7.756 7.756 0 00-.737-.042C4.732 5.932.9 9.814.9 14.585c0 4.77 3.832 8.653 8.545 8.653s8.546-3.882 8.546-8.653a7.96 7.96 0 00-.042-.747l3.11-3.15a.902.902 0 00.26-.637.897.897 0 00-.26-.634l-.853-.864 1.742-1.76a.898.898 0 00.26-.636.908.908 0 00-.26-.636l-3.552-3.596a.884.884 0 00-.628-.264zm-3.846 3.07l5.255 5.32-2.182 2.209-5.254-5.322 2.181-2.207zM9.445 7.73c.2 0 .4.011.598.032l6.14 6.219c.022.22.032.417.032.604 0 .956-.2 1.901-.585 2.774a4.074 4.074 0 00-.754-1.038c-.735-.754-1.755-1.174-2.878-1.174H7.914c-1.123 0-2.145-.51-2.88-1.264a4.087 4.087 0 01-.892-1.336 4.128 4.128 0 01-.312-1.581c0-.078.013-.153.017-.23C5.067 8.923 7.121 7.73 9.445 7.73zm11.861 10.102a.883.883 0 00-.623.272.905.905 0 00-.251.639v.899h-.888a.879.879 0 00-.638.257.899.899 0 00-.266.642.909.909 0 00.266.642.886.886 0 00.638.257h.888v.899a.906.906 0 00.545.841.879.879 0 00.975-.198.899.899 0 00.256-.643v-.9h.888a.878.878 0 00.638-.256.9.9 0 00.266-.642.908.908 0 00-.266-.642.886.886 0 00-.639-.257h-.887v-.9a.908.908 0 00-.26-.648.887.887 0 00-.642-.262z" />
</svg>