<svg data-name="Gear" width="24" height="24" xmlns="http://www.w3.org/2000/svg">
    <path d="M23.388 14.88l-2.12-1.47a.816.816 0 01-.342-.72V12a8.659 8.659 0 00-.05-.87.847.847 0 01.342-.73l2.141-1.49a.796.796 0 00.235-1L21.238 3.6a.785.785 0 00-.43-.347.766.766 0 00-.548.027l-2.512 1.23a.75.75 0 01-.753 0 9.733 9.733 0 00-1.036-.6.777.777 0 01-.3-.266.802.802 0 01-.13-.384L15.363.74a.808.808 0 00-.249-.527.772.772 0 00-.533-.213H9.81a.774.774 0 00-.51.226.808.808 0 00-.234.514l-.215 2.49a.771.771 0 01-.13.388.747.747 0 01-.31.262c-.401.199-.787.43-1.153.69a.797.797 0 01-.802 0L3.78 3.28a.766.766 0 00-.547-.027.785.785 0 00-.43.347L.376 7.85a.806.806 0 00.235 1.06l2.512 1.75a.795.795 0 01.332.72v1.06a.836.836 0 01-.352.72L.612 14.88A.825.825 0 00.377 16l2.385 4.2c.098.165.25.288.43.347s.374.05.548-.027l2.532-1.26a.747.747 0 01.811.08c.405.293.833.55 1.28.77a.817.817 0 01.317.273c.08.117.13.254.143.397l.244 2.48c.015.202.104.39.25.527a.772.772 0 00.532.213h4.77a.772.772 0 00.534-.213.808.808 0 00.249-.527l.166-2.49a.782.782 0 01.136-.39.756.756 0 01.314-.26c.401-.199.787-.43 1.153-.69a.772.772 0 01.773-.07l2.316 1.16a.766.766 0 00.547.027.785.785 0 00.43-.347l2.386-4.2a.825.825 0 00-.235-1.12zM12 16.4a4.232 4.232 0 01-2.395-.732 4.379 4.379 0 01-1.593-1.97 4.494 4.494 0 01-.252-2.544 4.433 4.433 0 011.172-2.258 4.273 4.273 0 012.202-1.21 4.212 4.212 0 012.488.247c.787.332 1.46.896 1.933 1.62.474.724.727 1.576.727 2.447a4.477 4.477 0 01-.323 1.68 4.397 4.397 0 01-.927 1.427c-.398.409-.87.733-1.39.955A4.208 4.208 0 0112 16.4z" />
</svg>