<svg data-name="Gift" width="24" height="24" xmlns="http://www.w3.org/2000/svg">
    <path fill-rule="evenodd" clip-rule="evenodd" d="M17.86 7.193h3.74A2.401 2.401 0 0124 9.591v2.418H0V9.591a2.397 2.397 0 012.4-2.398h3.74a6.3 6.3 0 01-1.49-1.059 3.616 3.616 0 010-5.096 3.702 3.702 0 015.1 0C11.71 3.017 12 6.704 12 7.123c0-.42.29-4.106 2.25-6.105a3.701 3.701 0 015.1 0 3.615 3.615 0 010 5.096c-.441.43-.943.794-1.49 1.08zM6.35 4.436a1.199 1.199 0 01.85-2.048c.318 0 .624.126.85.349a6.343 6.343 0 011.34 2.997 6.403 6.403 0 01-3.04-1.298zm8.26 1.338a6.342 6.342 0 011.34-2.997 1.21 1.21 0 011.7 0 1.2 1.2 0 010 1.699 6.353 6.353 0 01-3.04 1.298zM1.2 14.398v7.204A2.407 2.407 0 003.6 24h7.2v-9.602H1.2zm12 0V24h7.2a2.41 2.41 0 002.4-2.398v-7.204h-9.6z" />
</svg>