<svg data-name="Hypesquad" width="24" height="24" xmlns="http://www.w3.org/2000/svg">
    <path fill-rule="evenodd" clip-rule="evenodd" d="M23.542 3.792l-9.48 6.167a1.114 1.114 0 00-.379.427l-1.448 2.88a.279.279 0 01-.37.12.299.299 0 01-.13-.12l-1.438-2.88a1.235 1.235 0 00-.39-.427L.427 3.792a.281.281 0 00-.422.183.277.277 0 00.023.175l3.966 7.646a.277.277 0 01-.13.368.24.24 0 01-.12 0H1.357a.27.27 0 00-.277.186.267.267 0 00.117.31l10.628 7.538a.27.27 0 00.32 0l10.628-7.508a.268.268 0 00-.16-.496h-2.357a.29.29 0 01-.28-.279.266.266 0 010-.119l3.996-7.646a.276.276 0 00-.065-.329.28.28 0 00-.335-.029" />
</svg>