<svg data-name="Keyboard" width="24" height="24" xmlns="http://www.w3.org/2000/svg">
    <path d="M21.6 3.5H2.4a2.383 2.383 0 00-1.69.715 2.44 2.44 0 00-.698 1.714L0 18.07C0 19.407 1.08 20.5 2.4 20.5h19.2c1.32 0 2.4-1.093 2.4-2.429V5.93C24 4.593 22.92 3.5 21.6 3.5zM10.8 7.143h2.4V9.57h-2.4V7.143zm0 3.643h2.4v2.428h-2.4v-2.428zM7.2 7.143h2.4V9.57H7.2V7.143zm0 3.643h2.4v2.428H7.2v-2.428zM6 13.214H3.6v-2.428H6v2.428zm0-3.643H3.6V7.143H6V9.57zm10.8 8.5H7.2v-2.428h9.6v2.428zm0-4.857h-2.4v-2.428h2.4v2.428zm0-3.643h-2.4V7.143h2.4V9.57zm3.6 3.643H18v-2.428h2.4v2.428zm0-3.643H18V7.143h2.4V9.57z" />
</svg>