<svg data-name="Mouse" width="24" height="24" xmlns="http://www.w3.org/2000/svg">
    <path d="M5.69 0a.9.9 0 00-.632.241 12.6 12.6 0 00-3.503 5.357A.902.902 0 002.59 6.79a.9.9 0 00.673-.622 10.794 10.794 0 013.004-4.59A.902.902 0 005.689 0zM13.5.576c-4.97 0-8.998 4.033-8.998 9.009V14.991C4.503 19.967 8.53 24 13.5 24s8.999-4.034 8.999-9.01V9.586c0-4.976-4.029-9.01-8.999-9.01zm-.824 1.868a.908.908 0 01.824.905v7.137a.9.9 0 01-.9.9H7.202a.9.9 0 01-.9-.9v-.901A7.216 7.216 0 0112.48 2.45a.877.877 0 01.198-.006z" />
</svg>