<svg data-name="Package" width="24" height="24" xmlns="http://www.w3.org/2000/svg">
    <path d="M11.898 0c-.017.003-.034.015-.051.018a.779.779 0 00-.163.053c-.029.012-.06.014-.087.03L3.33 4.838c-.02.011-.032.03-.05.044l-.014.004c-.008 0-.008 0-.016.008a.937.937 0 00-.328.257L.209 8.587c-.304.384-.287 1.033.12 1.321l2.065 1.312v6.213c0 .289.12.594.376.754l8.711 5.67a.973.973 0 00.513.143c.176 0 .36-.048.512-.144l8.656-5.669a.859.859 0 00.416-.736v-6.206l2.08-1.337c.408-.288.44-.945.136-1.33l-2.728-3.427a.453.453 0 00-.07-.07V5.08c-.005-.006-.013-.01-.018-.016l-.003-.003a.787.787 0 00-.219-.19L12.39.1c-.028-.016-.059-.017-.087-.029a.78.78 0 00-.161-.053.764.764 0 00-.147-.01c-.032-.001-.063-.01-.096-.007zm.096 1.716l6.737 3.841-.001.002-3.752 2.42.024.015-3.008 1.914-.608-.385v-.008L5.298 5.56l-.003-.002 6.699-3.84zM3.874 6.88l6.663 4.229-2.328 2.218-6.03-4.301L3.872 6.88zm16.24 0l1.695 2.146-6.03 4.3-2.33-2.217 6.665-4.229z" />
</svg>