<svg data-name="Role" width="24" height="24" xmlns="http://www.w3.org/2000/svg">
    <path d="M21.957 5.344L12.513.123a1.09 1.09 0 00-1.006 0L2.043 5.344a1.004 1.004 0 00-.543.91C1.5 6.995 1.62 24 12 24S22.5 6.995 22.5 6.255a.996.996 0 00-.543-.91zM12 6.254c.52 0 1.027.154 1.458.44.432.287.768.695.967 1.172a2.597 2.597 0 01-.569 2.845 2.63 2.63 0 01-2.86.566 2.622 2.622 0 01-1.179-.961 2.6 2.6 0 01.327-3.297A2.632 2.632 0 0112 6.255zM8.068 16.699a3.633 3.633 0 011.06-2.859A3.674 3.674 0 0112 12.777a3.689 3.689 0 012.871 1.062 3.648 3.648 0 011.061 2.859H8.068z" />
</svg>