<svg data-name="Snippet" width="24" height="24" xmlns="http://www.w3.org/2000/svg">
    <path d="M4.175.5C1.91.5 0 2.412 0 4.682c0 2.27 1.91 4.182 4.175 4.182.319 0 .627-.045.928-.117L8.35 12l-3.247 3.253a3.996 3.996 0 00-.928-.117C1.91 15.136 0 17.05 0 19.318c0 2.27 1.91 4.182 4.175 4.182 2.266 0 4.175-1.912 4.175-4.182 0-.32-.045-.628-.116-.929l3.248-3.253 5.777 5.787a5.216 5.216 0 003.69 1.532h2.306c.662 0 .994-.803.526-1.273L8.234 5.611c.071-.3.116-.61.116-.93C8.35 2.413 6.441.5 4.175.5zM20.95 1.545a5.216 5.216 0 00-3.69 1.532l-4.302 4.308 3.132 3.137 7.692-7.704c.468-.47.136-1.273-.526-1.273h-2.306zM4.175 2.591c1.114 0 2.088.975 2.088 2.09 0 1.116-.974 2.092-2.088 2.092s-2.087-.976-2.087-2.091c0-1.116.973-2.091 2.087-2.091zm7.307 8.363a1.045 1.045 0 010 2.091 1.045 1.045 0 010-2.09zm-7.307 6.273c1.114 0 2.088.976 2.088 2.091 0 1.116-.974 2.091-2.088 2.091s-2.087-.975-2.087-2.09c0-1.116.973-2.092 2.087-2.092z" />
</svg>