<svg data-name="Sticker" width="24" height="24" xmlns="http://www.w3.org/2000/svg">
    <path fill-rule="evenodd" clip-rule="evenodd" d="M12 6.56V.193H2.4c-.637 0-1.247.25-1.697.695A2.364 2.364 0 000 2.568v18.936c0 .63.253 1.234.703 1.68.45.445 1.06.696 1.697.696h19.2c.636 0 1.247-.25 1.697-.696.45-.446.703-1.05.703-1.68V12h-6.504a5.56 5.56 0 01-3.876-1.603A5.448 5.448 0 0112 6.56zm0 12.034a4.017 4.017 0 01-2.826-1.16 3.936 3.936 0 01-1.17-2.796H9.6c0 .63.253 1.234.703 1.68.45.445 1.06.695 1.697.695.636 0 1.247-.25 1.697-.695.45-.446.703-1.05.703-1.68h1.596c0 1.049-.421 2.055-1.17 2.797A4.017 4.017 0 0112 18.594zm2.4-12.058V.906a.766.766 0 01.484-.728.787.787 0 01.86.18l8.028 7.936a.781.781 0 01-.564 1.33H17.52a3.135 3.135 0 01-2.21-.9 3.075 3.075 0 01-.91-2.188zm-8.607 9.15c0 .905-.74 1.639-1.655 1.639a1.647 1.647 0 01-1.655-1.639c0-.905.74-1.638 1.655-1.638.914 0 1.655.733 1.655 1.638zm14.07 1.639c.913 0 1.654-.734 1.654-1.639s-.74-1.638-1.655-1.638c-.914 0-1.655.733-1.655 1.638 0 .905.74 1.639 1.655 1.639z" />
</svg>