<svg data-name="Template" width="24" height="24" xmlns="http://www.w3.org/2000/svg">
    <path d="M13.704 7.497l-.52 2.999h3l.519-3h-2.999zm0 0l-.52 2.999h3l.519-3h-2.999zM18.003 0h-5.998a5.997 5.997 0 00-5.998 5.998v5.997a5.997 5.997 0 005.998 5.998h5.998A5.997 5.997 0 0024 11.994V5.998A5.998 5.998 0 0018.003 0zm1.739 7.287a.25.25 0 01-.25.21h-1.78l-.53 2.999h1.7a.242.242 0 01.238.182.24.24 0 01.002.107l-.08.5a.27.27 0 01-.25.21h-1.79l-.319 1.79a.25.25 0 01-.25.21h-.43a.25.25 0 01-.25-.29l.25-1.71h-2.998l-.32 1.79a.25.25 0 01-.24.21h-.5a.251.251 0 01-.24-.29l.3-1.71h-1.7a.25.25 0 01-.25-.29l.09-.5a.25.25 0 01.25-.21h1.78l.54-2.998h-1.71a.25.25 0 01-.24-.29l.09-.5a.24.24 0 01.24-.21h1.79l.32-1.789a.25.25 0 01.25-.21h.49a.25.25 0 01.24.29l-.3 1.71h2.998l.32-1.79a.25.25 0 01.25-.21h.49a.25.25 0 01.24.29l-.3 1.71h1.699a.25.25 0 01.25.29l-.09.499zm-6.558 3.209h3l.519-3h-2.999l-.52 3z" />
    <path d="M4.008 7.517a8.996 8.996 0 1012.475 12.475h-1.23A7.997 7.997 0 114.009 8.746v-1.23z" />
</svg>