<svg data-name="Theme Repo" width="24" height="24" xmlns="http://www.w3.org/2000/svg">
    <path d="M14.42 9.5h1.75v5.83h-1.75V9.5z" />
    <path d="M21.36 3v19.5H4.08a1.5 1.5 0 110-3h15.84V0H4.08A2.94 2.94 0 001.2 3v18a2.94 2.94 0 002.88 3H22.8V3h-1.44zM6.45 3a1.15 1.15 0 011-.52c.231 0 .457.066.65.19l5.43 3.6-.9-.27-5.9-1.67a2.37 2.37 0 00-.65-.09 2 2 0 00-.48.06L6.45 3zM5 6.25a1.17 1.17 0 011.21-.84h.24l5.9 1.71H5.67c-.348.01-.69.1-1 .26L5 6.25zM4.5 9.5a1.18 1.18 0 011.17-1.17h10.5a1.18 1.18 0 011.17 1.17v5.83a1.18 1.18 0 01-1.17 1.17H5.67a1.18 1.18 0 01-1.17-1.17V9.5z" />
</svg>